<?xml version="1.0" encoding="utf-8"?>
<svg viewBox="0 0 97 98" xmlns="http://www.w3.org/2000/svg">
  <defs>
    <style>tspan{white-space:pre}.a{fill:none;stroke:#fff;stroke-width:1}.b{fill:#fff}.c{font-size: 18px;fill: #ffffff;font-family: "' Clarendon  BT'"}</style>
  </defs>
  <g>
    <g>
      <ellipse class="a" cx="48.4" cy="39.1" rx="28.8" ry="27.9" style="stroke: rgb(0, 0, 0);"/>
      <path fill-rule="evenodd" class="b" d="M 27 61.3 L 27.9 62 L 27.3 67 L 29.4 64.5 C 29.533 64.3 29.6 64.167 29.6 64.1 C 29.533 64.033 29.433 63.933 29.3 63.8 L 29 63.6 L 29.3 63.1 L 31.4 64.7 L 31.1 65.1 L 30.8 64.9 C 30.6 64.767 30.467 64.7 30.4 64.7 C 30.267 64.7 30.133 64.8 30 65 L 28.1 67.4 C 27.967 67.6 27.9 67.733 27.9 67.8 C 27.9 67.867 28 67.967 28.2 68.1 L 28.5 68.3 L 28.1 68.8 L 26.3 67.4 L 26.8 63 L 25 65.1 C 24.867 65.3 24.833 65.433 24.9 65.5 C 24.9 65.567 25 65.667 25.2 65.8 L 25.5 66.1 L 25.1 66.5 L 23.1 65 L 23.4 64.5 L 23.6 64.7 C 23.8 64.833 23.933 64.9 24 64.9 C 24.133 64.9 24.267 64.8 24.4 64.6 L 27 61.3 Z M 26.2 60.5 L 25.7 60.9 L 25.5 60.6 C 25.3 60.467 25.167 60.4 25.1 60.4 C 25.033 60.4 24.9 60.467 24.7 60.6 L 22.3 62.6 C 22.167 62.733 22.1 62.833 22.1 62.9 C 22.1 62.967 22.167 63.1 22.3 63.3 L 22.5 63.6 L 22.1 63.9 L 20.1 61.8 L 20.6 61.4 L 20.8 61.7 C 21 61.833 21.133 61.9 21.2 61.9 C 21.267 61.9 21.4 61.833 21.6 61.7 L 24 59.7 C 24.133 59.567 24.2 59.467 24.2 59.4 C 24.267 59.333 24.2 59.2 24 59 L 23.8 58.7 L 24.3 58.4 L 26.2 60.5 Z M 21.3 54.2 L 21.1 54.7 C 21.367 54.767 21.633 54.9 21.9 55.1 C 22.1 55.233 22.3 55.433 22.5 55.7 C 22.7 56.033 22.833 56.367 22.9 56.7 C 22.967 57.033 22.933 57.367 22.8 57.7 C 22.733 58.033 22.6 58.367 22.4 58.7 C 22.133 58.967 21.833 59.2 21.5 59.4 C 21.167 59.667 20.8 59.833 20.4 59.9 C 20 59.967 19.633 59.967 19.3 59.9 C 18.9 59.767 18.567 59.633 18.3 59.5 C 18.033 59.3 17.8 59.033 17.6 58.7 C 17.467 58.433 17.367 58.167 17.3 57.9 C 17.233 57.633 17.233 57.367 17.3 57.1 L 16.7 57.2 L 16.4 56.7 L 18.2 55.6 L 18.6 56.1 C 18.2 56.433 17.967 56.8 17.9 57.2 C 17.833 57.6 17.9 57.967 18.1 58.3 C 18.367 58.7 18.733 58.9 19.2 58.9 C 19.733 58.9 20.267 58.733 20.8 58.4 C 21.4 58.067 21.767 57.667 21.9 57.2 C 22.1 56.8 22.067 56.367 21.8 55.9 C 21.6 55.633 21.367 55.467 21.1 55.4 C 20.833 55.267 20.567 55.3 20.3 55.5 L 20 55.6 C 19.867 55.733 19.8 55.833 19.8 55.9 C 19.733 55.967 19.8 56.133 20 56.4 L 20.2 56.6 L 19.6 57 L 18.1 54.6 L 18.6 54.3 L 18.8 54.6 C 18.933 54.733 19.033 54.8 19.1 54.8 C 19.167 54.8 19.3 54.767 19.5 54.7 L 21 53.7 L 21.3 54.2 Z M 20.4 52.9 L 19.8 53.1 L 19.7 52.8 C 19.633 52.6 19.567 52.5 19.5 52.5 C 19.367 52.433 19.2 52.433 19 52.5 L 16 53.6 C 15.8 53.733 15.7 53.833 15.7 53.9 C 15.633 53.967 15.667 54.1 15.8 54.3 L 15.9 54.6 L 15.3 54.8 L 13.4 50 L 15.4 49.2 L 15.6 49.8 C 15.067 50 14.733 50.233 14.6 50.5 C 14.467 50.7 14.5 51.067 14.7 51.6 L 15.2 52.8 L 16.7 52.2 L 16.6 51.9 C 16.467 51.633 16.333 51.467 16.2 51.4 C 16.067 51.333 15.8 51.367 15.4 51.5 L 15.2 50.9 L 17.7 50 L 17.9 50.5 C 17.5 50.7 17.233 50.867 17.1 51 C 17.033 51.133 17.067 51.367 17.2 51.7 L 17.3 52 L 19.1 51.3 L 18.6 50 C 18.4 49.6 18.167 49.367 17.9 49.3 C 17.633 49.167 17.167 49.2 16.5 49.4 L 16.3 48.9 L 18.4 48.1 L 20.4 52.9 Z M 16.8 45.6 C 17 45.6 17.1 45.567 17.1 45.5 C 17.167 45.433 17.2 45.267 17.2 45 L 17.1 44.7 L 17.7 44.6 L 18.2 47.3 L 17.6 47.4 L 17.6 47.1 C 17.533 46.9 17.467 46.767 17.4 46.7 C 17.333 46.7 17.2 46.7 17 46.7 L 13.8 47.3 C 13.6 47.3 13.467 47.333 13.4 47.4 C 13.4 47.467 13.4 47.633 13.4 47.9 L 13.5 48.2 L 12.9 48.3 L 12.3 45.2 C 12.167 44.533 12.167 44.033 12.3 43.7 C 12.5 43.367 12.8 43.133 13.2 43 C 13.6 42.933 13.933 43.033 14.2 43.3 C 14.467 43.5 14.667 43.833 14.8 44.3 C 14.8 43.9 14.867 43.633 15 43.5 C 15.133 43.3 15.4 43.133 15.8 43 L 16.3 42.9 C 16.5 42.9 16.6 42.867 16.6 42.8 C 16.667 42.733 16.7 42.667 16.7 42.6 C 16.633 42.467 16.333 42.433 15.8 42.5 C 15.733 42.5 15.7 42.5 15.7 42.5 L 15.6 42.1 C 15.667 42.033 15.733 42 15.8 42 C 15.8 42 15.833 42 15.9 42 C 16.367 41.933 16.733 41.967 17 42.1 C 17.267 42.233 17.433 42.467 17.5 42.8 C 17.567 43.133 17.533 43.4 17.4 43.6 C 17.267 43.8 17.033 43.933 16.7 44 L 16.1 44.1 C 15.7 44.233 15.433 44.367 15.3 44.5 C 15.167 44.7 15.167 45.033 15.3 45.5 L 15.3 45.9 L 16.8 45.6 Z M 14.8 45.9 L 14.6 45 C 14.533 44.667 14.433 44.433 14.3 44.3 C 14.1 44.1 13.867 44.033 13.6 44.1 C 13.333 44.167 13.167 44.3 13.1 44.5 C 12.967 44.633 12.933 44.9 13 45.3 L 13.2 46.2 L 14.8 45.9 Z M 17.3 41.3 L 16.7 41.3 L 16.7 40.9 C 16.7 40.7 16.667 40.567 16.6 40.5 C 16.533 40.433 16.4 40.4 16.2 40.4 L 13 40.5 C 12.733 40.5 12.567 40.533 12.5 40.6 C 12.5 40.667 12.5 40.833 12.5 41.1 L 12.5 41.4 L 11.9 41.4 L 11.8 38.6 L 12.4 38.6 L 12.4 38.9 C 12.4 39.167 12.433 39.3 12.5 39.3 C 12.567 39.367 12.7 39.4 12.9 39.4 L 16.1 39.3 C 16.367 39.3 16.5 39.267 16.5 39.2 C 16.567 39.133 16.6 39 16.6 38.8 L 16.6 38.4 L 17.2 38.4 L 17.3 41.3 Z M 17.1 38.4 L 16.5 38.3 L 16.5 38.2 C 16.5 38 16.5 37.833 16.5 37.7 C 16.433 37.567 16.3 37.467 16.1 37.4 L 12 35.4 L 12.1 34.3 L 16.6 33.3 C 16.867 33.233 17.033 33.167 17.1 33.1 C 17.167 33.033 17.2 32.9 17.2 32.7 L 17.2 32.6 L 17.8 32.6 L 17.5 35.3 L 16.9 35.3 L 16.9 34.8 C 16.967 34.667 16.967 34.567 16.9 34.5 C 16.9 34.433 16.867 34.4 16.8 34.4 C 16.733 34.4 16.7 34.4 16.7 34.4 C 16.633 34.4 16.567 34.4 16.5 34.4 L 15.8 34.6 L 15.6 36.3 L 16.3 36.6 C 16.3 36.6 16.333 36.6 16.4 36.6 C 16.467 36.667 16.5 36.7 16.5 36.7 C 16.567 36.7 16.633 36.667 16.7 36.6 C 16.7 36.6 16.7 36.5 16.7 36.3 L 16.8 35.9 L 17.4 36 L 17.1 38.4 Z M 15.2 34.7 L 13.2 35.1 L 15 36 L 15.2 34.7 Z M 19.6 27.3 L 19.2 28.4 L 14.2 29.5 L 17.3 30.5 C 17.5 30.567 17.633 30.6 17.7 30.6 C 17.833 30.533 17.933 30.4 18 30.2 L 18.1 29.9 L 18.7 30 L 17.8 32.5 L 17.2 32.3 L 17.4 32 C 17.467 31.733 17.467 31.567 17.4 31.5 C 17.4 31.433 17.3 31.367 17.1 31.3 L 14 30.3 C 13.8 30.233 13.667 30.233 13.6 30.3 C 13.533 30.3 13.467 30.433 13.4 30.7 L 13.3 31 L 12.7 30.8 L 13.4 28.7 L 17.9 27.7 L 15.2 26.8 C 15 26.733 14.867 26.7 14.8 26.7 C 14.733 26.767 14.667 26.9 14.6 27.1 L 14.5 27.5 L 13.9 27.3 L 14.7 24.9 L 15.3 25.1 L 15.2 25.4 C 15.133 25.6 15.133 25.733 15.2 25.8 C 15.2 25.867 15.3 25.933 15.5 26 L 19.6 27.3 Z M 21.2 24.1 L 20.7 23.8 L 20.9 23.5 C 21.033 23.3 21.1 23.167 21.1 23.1 C 21.1 23.033 21 22.933 20.8 22.8 L 18.1 21.1 C 17.9 20.967 17.767 20.933 17.7 21 C 17.633 21 17.533 21.1 17.4 21.3 L 17.2 21.6 L 16.7 21.3 L 18.3 18.9 L 18.8 19.2 L 18.6 19.5 C 18.467 19.7 18.4 19.833 18.4 19.9 C 18.4 19.967 18.5 20.067 18.7 20.2 L 21.4 21.9 C 21.6 21.967 21.733 22 21.8 22 C 21.867 22 21.967 21.9 22.1 21.7 L 22.3 21.4 L 22.8 21.7 L 21.2 24.1 Z M 26.6 17.3 L 25.8 18.1 L 20.7 17.3 L 23.2 19.4 C 23.333 19.533 23.467 19.6 23.6 19.6 C 23.667 19.6 23.767 19.5 23.9 19.3 L 24.2 19.1 L 24.6 19.5 L 22.9 21.4 L 22.4 21 L 22.7 20.7 C 22.833 20.567 22.9 20.467 22.9 20.4 C 22.9 20.267 22.8 20.133 22.6 20 L 20.2 18 C 20.067 17.867 19.967 17.8 19.9 17.8 C 19.767 17.8 19.633 17.9 19.5 18.1 L 19.3 18.3 L 18.8 17.9 L 20.3 16.2 L 24.9 17 L 22.7 15.2 C 22.567 15.067 22.467 15 22.4 15 C 22.333 15 22.2 15.1 22 15.3 L 21.8 15.5 L 21.3 15.1 L 23 13.3 L 23.4 13.7 L 23.3 13.8 C 23.1 14 23 14.133 23 14.2 C 23.067 14.333 23.167 14.467 23.3 14.6 L 26.6 17.3 Z M 27.6 16.4 L 26.2 14.7 L 26.7 14.3 C 27.1 14.7 27.5 14.9 27.9 14.9 C 28.367 14.9 28.8 14.767 29.2 14.5 C 29.467 14.3 29.633 14.1 29.7 13.9 C 29.767 13.7 29.733 13.5 29.6 13.3 C 29.467 13.167 29.3 13.067 29.1 13 C 28.9 13 28.667 13.067 28.4 13.2 L 27.5 13.6 C 26.967 13.867 26.5 14 26.1 14 C 25.7 13.933 25.4 13.733 25.2 13.4 C 24.867 13.067 24.733 12.667 24.8 12.2 C 24.867 11.733 25.133 11.333 25.6 11 C 25.867 10.8 26.133 10.667 26.4 10.6 C 26.667 10.533 26.933 10.5 27.2 10.5 L 27.2 10 L 27.6 9.7 L 28.9 11.3 L 28.4 11.6 C 28 11.333 27.6 11.167 27.2 11.1 C 26.8 11.1 26.433 11.233 26.1 11.5 C 25.833 11.7 25.667 11.9 25.6 12.1 C 25.533 12.3 25.567 12.467 25.7 12.6 C 25.833 12.733 25.967 12.8 26.1 12.8 C 26.3 12.867 26.533 12.833 26.8 12.7 L 27.8 12.2 C 28.333 11.933 28.8 11.833 29.2 11.9 C 29.6 11.967 29.933 12.167 30.2 12.5 C 30.533 12.833 30.633 13.267 30.5 13.8 C 30.433 14.267 30.167 14.667 29.7 15 C 29.433 15.2 29.167 15.333 28.9 15.4 C 28.567 15.533 28.2 15.6 27.8 15.6 L 28 16.1 L 27.6 16.4 Z M 31.2 8.3 L 31.1 8.3 C 30.7 8.5 30.467 8.733 30.4 9 C 30.333 9.333 30.433 9.767 30.7 10.3 L 30.1 10.5 L 29.1 8.6 L 33.7 6.4 L 34.7 8.3 L 34.1 8.6 C 33.9 8.067 33.633 7.733 33.3 7.6 C 33.033 7.467 32.7 7.5 32.3 7.7 L 32.2 7.8 L 33.9 11 C 33.967 11.2 34.033 11.3 34.1 11.3 C 34.167 11.3 34.333 11.267 34.6 11.2 L 35 11 L 35.3 11.5 L 32.4 12.9 L 32.2 12.3 L 32.6 12.1 C 32.8 12.033 32.9 11.967 32.9 11.9 C 32.967 11.833 32.933 11.7 32.8 11.5 L 31.2 8.3 Z M 36.6 10.9 L 36.4 10.4 L 36.7 10.3 C 36.9 10.167 37.033 10.067 37.1 10 C 37.1 9.933 37.067 9.8 37 9.6 L 36 6.7 C 35.933 6.5 35.867 6.367 35.8 6.3 C 35.733 6.3 35.567 6.333 35.3 6.4 L 35 6.5 L 34.8 6 L 37.6 5 L 37.8 5.6 L 37.4 5.7 C 37.2 5.767 37.067 5.833 37 5.9 C 37 5.967 37.033 6.1 37.1 6.3 L 38.1 9.3 C 38.167 9.5 38.267 9.6 38.4 9.6 C 38.467 9.667 38.6 9.633 38.8 9.5 L 39.1 9.4 L 39.3 10 L 36.6 10.9 Z M 40.6 4.8 L 40.5 4.8 C 40.1 4.933 39.833 5.133 39.7 5.4 C 39.567 5.667 39.567 6.1 39.7 6.7 L 39 6.8 L 38.5 4.7 L 43.5 3.6 L 44 5.7 L 43.4 5.8 C 43.267 5.267 43.067 4.9 42.8 4.7 C 42.6 4.5 42.267 4.433 41.8 4.5 L 41.7 4.6 L 42.6 8.1 C 42.6 8.3 42.633 8.4 42.7 8.4 C 42.767 8.467 42.933 8.467 43.2 8.4 L 43.6 8.3 L 43.8 8.9 L 40.7 9.6 L 40.6 9 L 41 8.9 C 41.267 8.833 41.433 8.767 41.5 8.7 C 41.5 8.633 41.467 8.5 41.4 8.3 L 40.6 4.8 Z M 45.8 4.5 C 45.8 4.3 45.767 4.167 45.7 4.1 C 45.633 4.033 45.5 4 45.3 4 L 45 4 L 45 3.4 L 47.8 3.3 L 47.8 3.9 L 47.5 4 C 47.233 4 47.067 4.033 47 4.1 C 47 4.1 47 4.233 47 4.5 L 47 7 C 47.067 7.333 47.167 7.6 47.3 7.8 C 47.5 7.933 47.8 8 48.2 8 C 48.6 8 48.9 7.9 49.1 7.7 C 49.233 7.5 49.3 7.233 49.3 6.9 L 49.2 4.4 C 49.2 4.2 49.167 4.067 49.1 4 C 49.1 3.933 48.967 3.9 48.7 3.9 L 48.4 3.9 L 48.4 3.3 L 50.8 3.3 L 50.9 3.9 L 50.6 3.9 C 50.333 3.9 50.2 3.933 50.2 4 C 50.133 4 50.1 4.133 50.1 4.4 L 50.2 6.9 C 50.2 7.5 50.033 7.967 49.7 8.3 C 49.3 8.567 48.767 8.733 48.1 8.8 C 47.367 8.8 46.833 8.667 46.5 8.4 C 46.1 8.067 45.9 7.6 45.9 7 L 45.8 4.5 Z M 54.2 4.3 L 54.1 4.3 C 53.633 4.233 53.3 4.3 53.1 4.5 C 52.833 4.7 52.633 5.1 52.5 5.7 L 51.9 5.5 L 52.3 3.4 L 57.4 4.3 L 57 6.4 L 56.3 6.3 C 56.433 5.767 56.433 5.367 56.3 5.1 C 56.167 4.767 55.867 4.567 55.4 4.5 L 55.3 4.5 L 54.6 8.1 C 54.6 8.3 54.6 8.433 54.6 8.5 C 54.667 8.567 54.833 8.6 55.1 8.6 L 55.5 8.7 L 55.4 9.3 L 52.3 8.7 L 52.4 8.2 L 52.9 8.2 C 53.1 8.267 53.233 8.267 53.3 8.2 C 53.367 8.2 53.433 8.1 53.5 7.9 L 54.2 4.3 Z M 56.8 9.5 L 57 8.9 L 57.3 9 C 57.5 9.067 57.633 9.1 57.7 9.1 C 57.767 9.033 57.867 8.9 58 8.7 L 59 5.8 C 59.067 5.6 59.067 5.467 59 5.4 C 59 5.333 58.867 5.267 58.6 5.2 L 58.3 5.1 L 58.5 4.5 L 63.6 6.2 L 62.9 8.1 L 62.3 8 C 62.5 7.4 62.533 6.967 62.4 6.7 C 62.333 6.5 62 6.3 61.4 6.1 L 60.2 5.7 L 59.7 7.2 L 60 7.3 C 60.333 7.433 60.567 7.467 60.7 7.4 C 60.833 7.267 60.967 7.033 61.1 6.7 L 61.7 6.9 L 60.8 9.4 L 60.2 9.2 C 60.333 8.733 60.367 8.433 60.3 8.3 C 60.3 8.1 60.133 7.967 59.8 7.9 L 59.5 7.8 L 58.9 9.5 L 60.2 10 C 60.667 10.133 61.033 10.133 61.3 10 C 61.5 9.867 61.733 9.467 62 8.8 L 62.6 9 L 61.9 11.1 L 56.8 9.5 Z M 68.3 11.5 C 68.5 11.633 68.6 11.8 68.6 12 C 68.667 12.267 68.6 12.533 68.4 12.8 C 68.133 13.267 67.7 13.567 67.1 13.7 C 66.567 13.833 66.1 13.8 65.7 13.6 C 65.5 13.467 65.4 13.3 65.4 13.1 C 65.333 12.833 65.367 12.6 65.5 12.4 C 65.767 11.933 66.167 11.6 66.7 11.4 C 67.3 11.2 67.833 11.233 68.3 11.5 L 68.3 11.5 Z M 67.9 11.6 C 67.7 11.467 67.433 11.467 67.1 11.6 C 66.767 11.733 66.467 12.033 66.2 12.5 C 66 12.7 65.9 12.933 65.9 13.2 C 65.9 13.333 65.967 13.433 66.1 13.5 C 66.3 13.633 66.533 13.633 66.8 13.5 C 67.133 13.367 67.433 13.1 67.7 12.7 C 67.9 12.367 68.033 12.1 68.1 11.9 C 68.1 11.767 68.033 11.667 67.9 11.6 L 67.9 11.6 Z M 69.4 12.6 L 70.1 13.1 C 70.567 12.7 70.967 12.467 71.3 12.4 C 71.633 12.267 71.967 12.233 72.3 12.3 C 72.7 12.3 73 12.4 73.2 12.6 C 73.267 12.667 73.333 12.733 73.4 12.8 C 73.4 12.933 73.367 13.033 73.3 13.1 C 73.3 13.1 73.267 13.133 73.2 13.2 C 73.133 13.2 73.067 13.167 73 13.1 C 72.933 13.033 72.8 12.9 72.6 12.7 C 72.533 12.633 72.467 12.6 72.4 12.6 C 72.267 12.467 72.1 12.433 71.9 12.5 C 71.7 12.567 71.467 12.733 71.2 13 L 70.5 13.4 L 71.3 14 L 71.1 14.2 L 70.3 13.6 L 68.4 15.1 C 67.8 15.5 67.233 15.733 66.7 15.8 C 66.167 15.867 65.733 15.733 65.4 15.4 C 65.267 15.333 65.2 15.267 65.2 15.2 C 65.133 15.067 65.133 14.967 65.2 14.9 C 65.267 14.833 65.333 14.8 65.4 14.8 C 65.467 14.8 65.533 14.833 65.6 14.9 C 65.667 14.967 65.733 15.033 65.8 15.1 C 65.933 15.233 66.033 15.333 66.1 15.4 C 66.3 15.533 66.5 15.6 66.7 15.6 C 66.833 15.533 67.067 15.367 67.4 15.1 L 69.9 13.3 L 69.2 12.8 L 69.4 12.6 Z M 70.7 17.1 L 71.1 16.7 L 71.2 16.9 C 71.333 17.033 71.467 17.1 71.6 17.1 C 71.733 17.167 71.9 17.167 72.1 17.1 L 76.3 15.5 L 77.1 16.3 L 74.9 20.2 C 74.767 20.4 74.7 20.567 74.7 20.7 C 74.7 20.767 74.767 20.867 74.9 21 L 75 21.1 L 74.6 21.5 L 72.7 19.5 L 73.2 19.1 L 73.5 19.4 C 73.633 19.533 73.7 19.6 73.7 19.6 C 73.767 19.667 73.833 19.667 73.9 19.6 C 73.967 19.6 74 19.567 74 19.5 C 74 19.5 74.033 19.467 74.1 19.4 L 74.4 18.8 L 73.3 17.5 L 72.6 17.7 C 72.6 17.7 72.567 17.733 72.5 17.8 C 72.433 17.8 72.4 17.8 72.4 17.8 C 72.333 17.867 72.3 17.933 72.3 18 C 72.3 18.067 72.367 18.167 72.5 18.3 L 72.8 18.6 L 72.3 19 L 70.7 17.1 Z M 74.8 18.2 L 75.8 16.5 L 73.9 17.2 L 74.8 18.2 Z M 76.6 22.8 C 76.4 22.867 76.3 22.967 76.3 23.1 C 76.3 23.167 76.367 23.3 76.5 23.5 L 76.7 23.8 L 76.1 24.1 L 74.7 21.7 L 75.2 21.4 L 75.4 21.6 C 75.467 21.8 75.567 21.933 75.7 22 C 75.767 22 75.9 21.933 76.1 21.8 L 78.8 20.3 C 79 20.167 79.1 20.067 79.1 20 C 79.167 19.933 79.133 19.8 79 19.6 L 78.8 19.3 L 79.4 19 L 81 21.7 C 81.333 22.3 81.5 22.8 81.5 23.2 C 81.433 23.533 81.233 23.833 80.9 24.1 C 80.567 24.233 80.233 24.267 79.9 24.2 C 79.567 24.067 79.233 23.8 78.9 23.4 C 79.033 23.733 79.067 24.033 79 24.3 C 78.933 24.5 78.733 24.7 78.4 24.9 L 78 25.2 C 77.867 25.267 77.767 25.333 77.7 25.4 C 77.7 25.467 77.7 25.533 77.7 25.6 C 77.833 25.733 78.133 25.667 78.6 25.4 C 78.667 25.4 78.7 25.4 78.7 25.4 L 78.9 25.8 C 78.9 25.8 78.867 25.833 78.8 25.9 C 78.8 25.9 78.767 25.9 78.7 25.9 C 78.233 26.167 77.867 26.267 77.6 26.2 C 77.333 26.2 77.1 26.033 76.9 25.7 C 76.7 25.433 76.633 25.167 76.7 24.9 C 76.767 24.7 76.933 24.5 77.2 24.3 L 77.8 24 C 78.133 23.8 78.333 23.567 78.4 23.3 C 78.4 23.1 78.3 22.8 78.1 22.4 L 77.9 22.1 L 76.6 22.8 Z M 78.4 21.8 L 78.8 22.6 C 79 22.933 79.2 23.133 79.4 23.2 C 79.6 23.267 79.833 23.233 80.1 23.1 C 80.367 22.967 80.5 22.8 80.5 22.6 C 80.567 22.4 80.467 22.133 80.2 21.8 L 79.8 21 L 78.4 21.8 Z M 81.1 30.4 L 81.3 31 C 80.567 31.2 79.967 31.2 79.5 31 C 78.967 30.733 78.6 30.3 78.4 29.7 C 78.267 29.3 78.2 28.933 78.2 28.6 C 78.2 28.267 78.3 27.967 78.5 27.7 C 78.633 27.367 78.867 27.067 79.2 26.8 C 79.467 26.533 79.8 26.333 80.2 26.2 C 80.6 26.067 81 26 81.4 26 C 81.733 26.067 82.1 26.167 82.5 26.3 C 82.833 26.5 83.1 26.7 83.3 26.9 C 83.5 27.167 83.667 27.467 83.8 27.8 C 83.933 28.067 84 28.333 84 28.6 C 84 28.867 83.933 29.133 83.8 29.4 L 84.3 29.4 L 84.5 30 L 82.4 30.7 L 82.2 30.1 C 82.667 29.9 83 29.6 83.2 29.2 C 83.4 28.867 83.4 28.533 83.2 28.2 C 83.067 27.733 82.767 27.433 82.3 27.3 C 81.833 27.167 81.267 27.2 80.6 27.4 C 80 27.6 79.567 27.9 79.3 28.3 C 79.033 28.633 78.967 29.033 79.1 29.5 C 79.233 29.9 79.467 30.167 79.8 30.3 C 80.133 30.433 80.567 30.467 81.1 30.4 L 81.1 30.4 Z M 79.4 32.3 L 80 32.2 L 80.1 32.5 C 80.1 32.767 80.133 32.9 80.2 32.9 C 80.267 32.967 80.4 33 80.6 33 L 83.8 32.6 C 84 32.533 84.133 32.5 84.2 32.5 C 84.267 32.433 84.267 32.267 84.2 32 L 84.2 31.7 L 84.8 31.6 L 85.2 34.4 L 84.6 34.5 L 84.5 34.1 C 84.5 33.9 84.467 33.767 84.4 33.7 C 84.333 33.633 84.2 33.633 84 33.7 L 82.8 33.8 L 83 36.1 L 84.2 35.9 C 84.467 35.9 84.6 35.867 84.6 35.8 C 84.667 35.733 84.7 35.6 84.7 35.4 L 84.6 35 L 85.2 34.9 L 85.6 37.7 L 85 37.8 L 84.9 37.5 C 84.9 37.3 84.867 37.167 84.8 37.1 C 84.733 37.033 84.6 37 84.4 37 L 81.2 37.4 C 81 37.467 80.867 37.533 80.8 37.6 C 80.733 37.667 80.733 37.8 80.8 38 L 80.8 38.3 L 80.2 38.4 L 79.8 35.6 L 80.5 35.5 L 80.5 35.9 C 80.5 36.1 80.533 36.233 80.6 36.3 C 80.667 36.367 80.833 36.367 81.1 36.3 L 82.4 36.2 L 82.1 33.9 L 80.8 34.1 C 80.6 34.1 80.467 34.133 80.4 34.2 C 80.333 34.267 80.3 34.4 80.3 34.6 L 80.4 35 L 79.8 35.1 L 79.4 32.3 Z M 80 38.8 L 80.6 38.8 L 80.6 39.1 C 80.6 39.367 80.633 39.533 80.7 39.6 C 80.767 39.667 80.9 39.7 81.1 39.7 L 84.3 39.8 C 84.5 39.8 84.633 39.767 84.7 39.7 C 84.767 39.633 84.8 39.467 84.8 39.2 L 84.8 38.9 L 85.4 38.9 L 85.3 41.8 L 84.7 41.8 L 84.7 41.4 C 84.7 41.2 84.7 41.067 84.7 41 C 84.633 40.933 84.467 40.9 84.2 40.9 L 81 40.8 C 80.8 40.8 80.667 40.833 80.6 40.9 C 80.533 40.9 80.5 41.033 80.5 41.3 L 80.5 41.6 L 79.9 41.6 L 80 38.8 Z M 84.3 44.8 L 84.3 44.7 C 84.433 44.3 84.367 43.967 84.1 43.7 C 83.9 43.5 83.5 43.333 82.9 43.2 L 83 42.6 L 85.3 43 L 84.3 47.9 L 82.1 47.5 L 82.2 46.9 C 82.8 46.967 83.233 46.933 83.5 46.8 C 83.833 46.667 84.033 46.4 84.1 46 L 84.1 45.9 L 80.5 45.2 C 80.233 45.2 80.067 45.2 80 45.2 C 79.933 45.267 79.9 45.4 79.9 45.6 L 79.8 46.1 L 79.2 46 L 79.7 43 L 80.3 43.1 L 80.3 43.5 C 80.233 43.767 80.233 43.933 80.3 44 C 80.3 44.067 80.433 44.1 80.7 44.1 L 84.3 44.8 Z M 78.9 47.4 L 79.4 47.6 L 79.3 47.9 C 79.233 48.1 79.2 48.233 79.2 48.3 C 79.267 48.367 79.4 48.433 79.6 48.5 L 82.6 49.7 C 82.8 49.767 82.933 49.767 83 49.7 C 83.067 49.7 83.133 49.6 83.2 49.4 L 83.3 49.1 L 83.9 49.3 L 81.9 54.1 L 79.9 53.3 L 80.2 52.8 C 80.733 53 81.133 53.067 81.4 53 C 81.667 52.867 81.9 52.533 82.1 52 L 82.6 50.9 L 81.1 50.3 L 80.9 50.6 C 80.833 50.867 80.833 51.067 80.9 51.2 C 80.967 51.333 81.167 51.5 81.5 51.7 L 81.3 52.2 L 78.8 51.3 L 79 50.7 C 79.467 50.833 79.767 50.9 79.9 50.9 C 80.1 50.833 80.267 50.633 80.4 50.3 L 80.5 50.1 L 78.7 49.4 L 78.2 50.6 C 78 51.067 77.967 51.4 78.1 51.6 C 78.233 51.867 78.633 52.133 79.3 52.4 L 79 53 L 76.9 52.2 L 78.9 47.4 Z M 76 57.6 L 75.6 58.2 C 75 57.733 74.667 57.267 74.6 56.8 C 74.467 56.267 74.567 55.733 74.9 55.2 C 75.1 54.867 75.367 54.6 75.7 54.4 C 75.967 54.2 76.267 54.067 76.6 54 C 77 53.867 77.4 53.867 77.8 54 C 78.133 54.067 78.5 54.2 78.9 54.4 C 79.233 54.6 79.5 54.867 79.7 55.2 C 79.9 55.467 80.067 55.8 80.2 56.2 C 80.267 56.533 80.267 56.867 80.2 57.2 C 80.133 57.533 80 57.833 79.8 58.1 C 79.667 58.367 79.467 58.567 79.2 58.7 C 79 58.9 78.767 59.033 78.5 59.1 L 78.8 59.5 L 78.5 60 L 76.6 58.8 L 76.9 58.3 C 77.433 58.5 77.867 58.567 78.2 58.5 C 78.6 58.433 78.933 58.233 79.2 57.9 C 79.467 57.5 79.5 57.067 79.3 56.6 C 79.1 56.2 78.7 55.8 78.1 55.4 C 77.567 55.067 77.067 54.9 76.6 54.9 C 76.133 54.967 75.767 55.2 75.5 55.6 C 75.3 55.933 75.233 56.267 75.3 56.6 C 75.367 56.933 75.6 57.267 76 57.6 L 76 57.6 Z M 75.7 62.2 C 76.033 61.867 76.167 61.533 76.1 61.2 C 76.033 60.933 75.8 60.6 75.4 60.2 L 75.9 59.7 L 77.5 61.2 L 73.9 64.8 L 72.3 63.3 L 72.7 62.9 C 73.167 63.233 73.567 63.433 73.9 63.5 C 74.233 63.567 74.533 63.433 74.8 63.1 L 74.9 63 L 72.2 60.5 C 72.067 60.367 71.933 60.3 71.8 60.3 C 71.733 60.3 71.633 60.4 71.5 60.6 L 71.1 60.9 L 70.7 60.5 L 72.9 58.3 L 73.3 58.7 L 73 59 C 72.8 59.2 72.7 59.333 72.7 59.4 C 72.767 59.467 72.867 59.567 73 59.7 L 75.7 62.2 Z M 69.6 61.6 L 71 63.3 L 70.5 63.6 C 70.1 63.267 69.7 63.1 69.3 63.1 C 68.9 63.033 68.5 63.167 68.1 63.5 C 67.767 63.7 67.567 63.9 67.5 64.1 C 67.433 64.3 67.467 64.5 67.6 64.7 C 67.733 64.833 67.9 64.9 68.1 64.9 C 68.3 64.9 68.533 64.833 68.8 64.7 L 69.7 64.4 C 70.233 64.133 70.7 64 71.1 64 C 71.5 64 71.833 64.167 72.1 64.5 C 72.367 64.9 72.467 65.333 72.4 65.8 C 72.333 66.2 72.067 66.6 71.6 67 C 71.333 67.133 71.067 67.267 70.8 67.4 C 70.533 67.467 70.267 67.5 70 67.5 L 70 68 L 69.6 68.3 L 68.4 66.7 L 68.8 66.3 C 69.2 66.633 69.6 66.833 70 66.9 C 70.4 66.9 70.767 66.767 71.1 66.5 C 71.367 66.3 71.533 66.1 71.6 65.9 C 71.667 65.7 71.633 65.5 71.5 65.3 C 71.367 65.167 71.233 65.1 71.1 65.1 C 70.9 65.1 70.667 65.167 70.4 65.3 L 69.4 65.8 C 68.867 66 68.4 66.1 68 66.1 C 67.6 66.033 67.267 65.833 67 65.5 C 66.667 65.1 66.567 64.667 66.7 64.2 C 66.767 63.733 67.033 63.333 67.5 63 C 67.767 62.8 68.033 62.633 68.3 62.5 C 68.633 62.433 69 62.4 69.4 62.4 L 69.2 61.9 L 69.6 61.6 Z" style="fill: rgb(0, 0, 0);"/>
      <text style="font-family: &quot;' Clarendon  BT'&quot;; font-size: 18px; stroke: rgb(0, 0, 0); white-space: pre;" transform="matrix(0.401358, 0, 0, 0.387576, 40.220749, 74.090057)" x="0" y="0">1960
</text>
      <ellipse class="a" cx="48.4" cy="38.9" rx="39.3" ry="38.1" style="stroke: rgb(0, 0, 0);"/>
      <path fill-rule="evenodd" class="b" d="M 33.1 67.2 C 33.3 67.2 33.5 67.233 33.7 67.3 C 33.9 67.367 34.1 67.5 34.3 67.7 C 34.433 67.833 34.533 68 34.6 68.2 C 34.667 68.4 34.7 68.6 34.7 68.8 C 34.7 69.5 34.3 70 33.7 70.3 C 33.1 70.5 32.4 70.4 31.9 69.9 C 31.5 69.5 31.3 68.8 31.6 68.2 C 31.8 67.6 32.4 67.2 33.1 67.2 L 33.1 67.2 Z" style="stroke: rgb(0, 0, 0);"/>
      <path fill-rule="evenodd" class="b" d="M 63.8 67.2 C 64 67.2 64.2 67.233 64.4 67.3 C 64.6 67.367 64.767 67.5 64.9 67.7 C 65.1 67.833 65.233 68 65.3 68.2 C 65.367 68.4 65.4 68.6 65.4 68.8 C 65.4 69.5 65 70 64.4 70.3 C 63.8 70.5 63.1 70.4 62.6 69.9 C 62.1 69.5 62 68.8 62.3 68.2 C 62.5 67.6 63.1 67.2 63.8 67.2 L 63.8 67.2 Z" style="stroke: rgb(0, 0, 0);"/>
      <path fill-rule="evenodd" class="b" d="M 51.8 19.2 C 53.4 19.9 50.9 21.5 52.2 21.8 C 52.3 21.4 52.3 20.6 52.6 20.4 L 53.6 22.9 C 55.5 24.1 55.9 22.6 56.3 25.3 C 56.4 26.2 56.8 26.3 56.6 27.3 C 56.5 28.2 55.8 28.5 56.3 29.1 C 56.7 29.7 58.7 30.1 58.3 32 C 58 33.5 57.8 34.6 59.1 35.8 L 58.8 35.7 L 58.2 35 L 57.9 34.5 C 57.9 34.8 57.9 34.9 58.1 35.1 L 58.6 35.9 C 56.7 36.6 59.9 27.2 48.7 31.8 C 44.6 33.5 42.1 35.6 40.1 39.5 C 39.9 39.8 39.7 40.1 39.6 40.4 C 39.5 40.1 39.7 40.2 39.4 40.1 C 39.1 40.4 39.4 40.5 39.4 40.9 C 39.4 40.9 39.367 40.867 39.3 40.8 L 39.3 40.6 C 39.3 40.2 39.2 40 39.1 39.7 C 39.7 38.5 40.5 37.1 41.3 36 C 41.6 35.6 42.2 34.9 42.7 34.5 C 42.8 34.4 44.2 33.1 44.2 33.1 C 44.5 33 45.1 32.5 45.3 32.3 C 45.1 31.9 44.8 31.8 45 31.4 C 45.5 31.6 45.3 31.9 45.4 32.2 L 46.7 31.5 L 46.3 31 C 46.2 31.2 46.3 31.2 46.2 31.4 L 45.8 31.1 L 46.3 30.6 C 46.8 30.8 46.6 31 46.8 31.4 L 49.4 30.3 C 49.6 30.3 51.9 29.6 51.9 29.6 L 51.5 29.5 C 51.3 29.5 51.5 29.5 51.3 29.7 L 51 29.4 L 51 29.8 C 50.6 29.7 50.9 29.7 50.6 29.7 C 50.6 29.7 50.7 29.8 50.3 29.6 C 50.3 29.7 50.3 29.7 50.2 29.9 L 49.9 29.6 L 49.9 30.1 L 49.6 29.8 C 49.4 30.3 49.7 30 49.3 30.2 L 49.3 30 C 49.1 30.3 49.3 30.1 49 30.3 L 48.7 30 C 48.7 30.1 48.7 30.2 48.6 30.4 C 48.3 30.2 48.3 30.1 48.2 29.7 L 48.5 29.7 L 48.7 29.6 C 49.2 29.5 49 29.4 49.4 29.5 L 49.5 29.3 C 49.6 29.3 49.7 29.3 49.8 29.3 C 49.8 29.3 49.8 29.3 49.8 29.3 C 49.867 29.3 49.9 29.3 49.9 29.3 C 50.2 29.2 50.2 29.1 51 29 C 51.4 28.9 52.3 28.9 52.6 28.6 C 50.6 28.6 49.4 29.3 48.4 29.5 L 48.3 29.6 L 47 30.2 C 47.2 30.6 47.3 30.6 47.2 31 C 46.9 30.9 46.8 30.6 46.7 30.3 L 45.5 30.9 C 45.7 31.3 45.8 31.2 45.8 31.8 C 45.8 31.8 45.5 31.6 45.4 31.5 C 45.1 31.2 45.4 31.5 45.2 31 L 43.7 32 C 43.9 32.3 43.8 32 44 32.5 C 44 32.7 44.1 32.9 44.2 33.1 L 43.6 32.6 L 43.6 32.2 C 43.4 32.2 42.4 33 42.3 33.2 C 42.5 33.5 42.6 33.6 42.6 34 C 42.3 34 42.2 33.5 41.9 33.4 C 41.8 33.7 42.3 33.9 42.3 34.5 C 41.9 34.4 41.7 34.1 41.6 33.8 L 41 34.4 C 41.4 34.5 41.5 34.9 41.6 35.3 C 41.1 35.1 41.1 34.9 40.8 34.6 L 40.7 34.7 C 40.4 34.9 40.3 35 40.2 35.4 C 40 35.4 39.7 35.9 39.6 36.1 C 39.9 36.4 40.2 36.5 40.2 37.1 L 39.5 36.5 C 39.2 36.2 39.5 36.3 39.2 36.3 C 39.2 36.6 39.5 36.5 39.7 36.9 C 39.9 37.2 40.1 37.5 39.9 37.7 C 39.7 37.5 39.3 36.9 39 36.7 C 38.6 37 38.4 37.4 38.1 37.8 L 37.9 38.1 L 37.9 38.2 L 37.7 38.5 C 37.7 38.5 37.7 38.5 37.7 38.5 C 35.5 37.8 35.5 39.2 35.2 40.5 C 35.1 41.2 35.1 41.4 35.1 41.7 C 35.167 41.7 35.2 41.733 35.2 41.8 C 35.2 41.8 35.2 41.8 35.2 41.8 L 35.6 42.8 C 35.7 43.2 36.4 43.6 36.7 43.7 C 35.6 42.4 35.5 40.5 36.4 40.7 C 36.5 41.1 36.1 41.7 36.5 42 L 37.5 43.7 L 37.4 43.8 L 37 43.7 C 36.9 44 36.9 44 37.2 44.2 L 38.1 45.8 C 38.7 47.2 39.4 46.3 39.8 46.5 C 39.5 46.8 39 47 38.6 46.9 C 36.8 46.3 37.7 45.7 36.3 44.3 L 36.2 44.6 L 36.2 44.9 C 36 45 36.2 44.7 36 45.1 C 36.1 45.3 36 45.2 36.7 45.4 C 37 45.8 37.1 46.5 37.6 46.7 C 37.7 46.8 37.6 46.7 37.8 46.8 C 38.2 47.1 37.4 46.5 37.9 46.9 C 38.1 47 37.9 46.8 38.1 47 L 37.4 47.2 L 39 47.6 L 37.8 47.9 L 39.5 48.4 L 38.2 48.6 L 38.1 48.8 L 39.7 49.2 L 38.6 49.6 L 40.2 50.2 L 40.3 49.4 L 42.9 52.4 L 39.9 46.8 L 40.2 46.7 C 40.4 46.8 43.2 54.7 47.5 55.5 C 46.3 54 44.1 54.1 42.1 49.6 C 41.7 48.6 38.9 41.9 39.8 41.3 C 40 41.5 41 45.6 41.2 46.2 C 41.5 47.7 42.4 49.3 43.2 50.6 C 44.2 52.5 48.4 56.3 50.5 56 L 45.6 52.8 L 45.1 52.4 C 43.1 51.4 39.7 41 40.4 39.8 C 40.4 39.8 41.7 45.2 41.9 45.8 C 42.4 47.6 43.1 49.4 44.3 51 C 45.9 53.1 51.1 57.1 54 56.4 C 51.6 55.6 51 56.1 48.4 54.2 C 46.6 52.9 45.8 51.8 44.7 49.9 C 43.9 48.5 41.1 38.9 41.5 37.7 C 41.7 37.9 43.8 47.7 45.1 49.9 C 47.2 53.6 50.4 56.2 55 56 C 50.5 55.5 47.5 53.6 45.5 49.3 C 45.1 48.4 42.6 36.8 42.6 36.2 C 43.1 36.2 44.2 42.3 44.3 43.1 C 44.9 45.7 44.9 47.3 46.1 50 C 47 51.9 48.6 53.1 50.4 54.3 C 51.6 55.2 57.3 56.6 57.2 55.5 C 54.7 55.1 52.9 55.8 50.4 53.9 C 48.1 52.1 47.7 52.1 46.4 49.4 C 45.3 46.9 45.1 45.2 44.7 42.6 L 43.3 35.6 C 43.7 35.5 44.9 42.1 45 42.6 C 45.8 47.8 46.2 50.8 51 53.9 C 52.3 54.8 58.2 55.9 58 54.8 C 57 54.7 56 55.2 54.3 54.7 C 53.3 54.5 52.1 54.2 51.2 53.5 C 46.9 50.5 46.2 47.1 45.5 42.2 C 45.1 39.4 44.4 37.8 43.9 35.3 L 43.9 35.2 L 44.1 35.1 C 44.9 37.9 45.4 39.2 45.7 42.1 C 46 44.7 46.4 46.4 47.4 48.9 C 48 50.4 50.2 52.6 51.5 53.5 C 52.7 54.3 57.4 55.4 58.3 54.3 C 57.9 54 54.3 55.2 51.5 52.9 C 46.9 49.2 47.3 46.4 46.3 41.2 C 46.1 40.1 44.5 34.9 44.6 34.5 C 45.9 35.7 47.1 45.7 48 48 C 48.8 49.9 50.2 51.6 51.8 52.8 C 53.2 53.9 58.5 54.9 58.4 53.7 C 58.4 53.7 57.7 53.8 56.7 53.8 C 57.3 53.8 57.867 53.667 58.4 53.4 L 59 51.2 L 58.2 51.5 L 58.4 52.4 C 57.9 52.3 57.9 51.6 56.9 52 C 56.2 52.2 55.6 52.9 55.2 52.5 L 56.3 51.7 L 54.6 50.9 C 54.4 50.7 54.2 50.5 54.2 50.3 C 54.2 50 54.5 50 54.8 50.1 L 56.2 50.8 C 56.7 51 57.4 51.2 57.9 51.1 L 58.1 51.1 C 58.5 51 59.1 50.7 59.4 50.4 L 59.4 49.3 L 59.5 49.1 L 59.7 49.4 L 59.6 50.3 C 59.8 50 60 49.6 59.8 49.2 L 59.7 49 C 60.1 48.6 60.2 48.5 60.1 47.9 C 60.3 47.7 60.3 47.7 60.4 46.9 L 60.1 46.8 L 59.7 44.5 L 59.6 44.5 L 59.7 46.4 L 59 46.5 L 58.9 46.5 L 59.5 44.9 L 58.5 45.3 L 57.8 45.6 L 57.6 45.1 L 57.8 44.9 L 59.2 44.3 C 59.4 43.5 58.4 41.8 57.7 41.4 C 57.6 41.1 57.7 41.2 57.4 41 L 57.5 41.3 L 58.6 43.1 L 58.5 43.2 C 57.3 42.7 56.1 38.8 56.9 37.7 C 57.1 37.9 57 38.1 57 38.4 C 57.1 37.6 57.5 37.7 57.6 36.8 L 58 36.7 C 58 36.7 59.1 36.2 58.9 36.9 C 58.8 37.2 58.9 36.9 58.7 37.1 L 58.6 37.2 C 58.3 37.5 58.3 37.4 58.3 37.9 C 58.3 38.2 58.5 38.5 58.2 38.7 C 57.9 38.4 58.1 37.9 58.1 37.5 C 57.5 38.3 58 38.9 57.7 39 C 57.5 38.7 57.6 38.6 57.6 37.9 C 57.2 38.5 57.3 38.5 57.4 39.1 C 57.5 39.4 57.4 39.6 57.5 39.9 C 57.6 40.8 57.5 40.5 58.1 40.9 C 58.3 40.9 58.4 41 58.6 41 C 59 41 59 40.9 59.1 40.7 L 58.4 40.6 C 58.2 40.5 58.3 40.6 58.1 40.5 C 58.033 40.5 57.933 40.5 57.8 40.5 C 57.7 40.1 57.7 40 57.8 39.6 C 58 39 58.7 38.7 59.2 38.3 C 59 37.8 58.8 38.1 59 37.4 C 59.2 37.2 59 37.4 59.1 37 C 59.3 35.9 59 36.8 59 36 L 59.2 36 L 59.8 39.8 L 59 39.5 L 58.2 40.1 L 59.6 40.2 C 59.8 40.7 59.4 40.8 59.6 41.3 C 59.8 41.8 60.5 42.3 60.8 44.5 C 61.1 46.5 60.5 47.6 60.5 49.5 C 60.4 50.4 59.9 50.7 59.5 51.5 C 59.2 52.2 59.2 53.1 59 53.9 C 58.6 56.5 56.6 56 55.9 56.7 L 55.4 61.5 C 53.7 63.4 42.5 62.8 39.9 61.3 C 40 58.7 39.6 54.6 38.7 52.2 C 37.9 52.1 34.1 52.7 34 51.8 L 34.1 51.5 C 34.167 51.5 34.2 51.5 34.2 51.5 C 34.2 51.5 34.4 51.5 34.4 51.5 L 34.4 51.3 L 34.7 51 C 35.2 50.6 35.2 50.5 35.1 49.9 L 35.2 49.1 L 35.4 48.8 C 35.6 48.6 35.6 48.6 36 48.4 L 36 47.6 C 35.7 47.3 35.7 47.5 35.6 47.2 C 35.5 46.6 35.8 45.7 35.9 45.3 L 35.8 44.1 L 36 44 C 35.9 43.6 35.8 43.8 35.6 43.5 C 35.3 43.5 35.7 43.5 35.4 43.6 L 35.2 43.2 C 35 43.6 35 43.7 35 44.1 C 35.2 44 35.1 44 35.4 44 C 35.4 44.3 35.4 44.2 35.5 44.4 C 35.5 44.8 35.4 44.8 35.7 45.1 L 35.6 45.1 C 35.5 45.1 35.7 45 35.2 45 C 34.6 45.1 34.9 46.3 34.9 46.3 C 34.9 46.6 34.8 46.7 35.1 46.8 L 35.3 47 L 35.1 47.1 L 34.9 47 L 34.9 47.2 C 34.8 48.1 34.8 47.9 35.2 48.5 L 35 48.6 L 34.7 48.4 C 34.5 48.2 34.4 48.2 34.4 48 C 34.3 48.5 34.4 48.7 34.3 49.4 C 34.2 49.9 34.1 50.3 34.1 50.8 C 34 50.6 33.9 50.6 33.9 50.2 C 33.9 49.9 34 49.9 33.9 49.5 L 34.6 43.2 C 34.8 43 34.7 43 34.6 42.7 C 34.5 42.7 34.6 42.7 34.5 42.7 L 34.2 42.7 L 33.8 41.9 C 33.9 41.2 33.6 41.1 33.9 40.7 C 34 40.6 34 40.7 34.1 40.6 C 34.2 40.5 34.1 40.6 34.2 40.5 L 34.3 39.8 L 33.6 39.4 L 33.6 39.6 L 33.6 39.9 L 32.9 39.6 L 33 39.5 C 33 39.2 33.1 39.2 33.4 39 L 33 38.1 C 33.4 38 33.4 37.7 33.3 37.2 C 33.1 36.7 32.5 36.6 32.4 36.3 C 32.1 36 31.8 36.1 31.6 35.8 C 31.3 35.4 31.5 35.1 31.9 35.1 C 32.2 35.2 31.9 35.2 32.2 35.6 C 32.3 35.7 32.5 35.8 32.7 35.9 C 32.9 36.2 33.3 36.8 33.5 36.9 C 33.9 36.6 33.8 36.4 34.2 36.4 C 34.5 36.7 34 36.8 34.9 37.8 L 35.6 37.4 C 35.3 37.1 34.8 36.9 34.5 36.6 C 34.2 36.2 34 35.3 34.8 35.4 C 34.8 35.8 34.7 36 35 36.4 C 35.3 36.7 35.4 36.9 35.6 37.2 C 36.2 37.3 36.1 37.2 36.7 37.4 C 37.4 37.7 37.1 37.8 37.4 38 C 38 37.4 37 37.5 37 36.9 C 37.6 36.7 37.4 37.2 37.8 37.5 L 38.1 37.2 C 37.7 36.9 37.2 36.7 37.3 36.3 C 37.7 36.2 37.8 36.7 38.1 37 L 38.4 36.6 L 38.8 36.2 C 38.5 35.9 37.9 35.7 38.2 35.3 C 38.6 35.4 38.5 35.7 38.8 36 L 39.2 35.7 C 38.9 35.3 38.4 35.4 38.4 34.9 C 39.1 34.7 38.7 35.3 39.2 35.6 L 39.5 35.4 C 39.3 35 38.8 35 38.9 34.5 C 39.4 34.5 39.3 34.9 39.7 35.1 L 39.9 34.9 C 39.8 34.5 39.2 34.7 39.3 34.1 C 39.9 34.1 39.6 34.6 40.1 34.7 C 40.3 34.6 40.2 34.7 40.3 34.4 L 40.7 34.1 C 40.5 33.8 40.4 33.8 40.3 33.6 L 40.3 33.4 C 40.3 33.4 40.3 33.4 40.3 33.4 C 40.367 33.4 40.4 33.4 40.4 33.4 C 40.5 33.4 40.4 33.3 40.6 33.5 C 40.7 33.7 40.6 33.7 40.9 33.9 C 41.3 33.4 41.1 33.7 40.8 33.2 C 39.5 33.3 39.8 32.5 39.7 31.8 C 39.5 31.6 39.1 31.4 39 31.2 C 38.8 30.9 38.8 30.2 39 30 L 39.1 29.8 L 39.7 31.6 L 39.8 31.6 L 40.6 31.4 L 40.5 31.5 L 40.2 32.5 L 40.4 32.7 L 41.1 32.5 L 40.8 31.2 L 40.9 31 L 41.1 30.5 L 40.5 28.5 L 41.1 28.2 L 42.9 29.7 L 42.4 30.6 L 43.3 30.5 L 42.2 28 L 42.5 27.8 L 43.2 29 L 43.9 29 C 44 29.2 43.7 29.7 43.6 30 L 44.5 29.7 L 44.6 29.7 C 44.4 30.3 44.3 30.3 44.8 30.8 L 45.1 30.7 C 44.9 30.4 44.6 30.4 44.8 30 C 45.2 30.1 45 30.2 45.2 30.6 L 45.6 30.4 L 45.8 30.3 C 46.1 30.2 46.2 30.2 46.3 30 L 46.3 29.9 L 46.4 30 L 46.9 29.7 L 47 29.8 L 47.3 29.7 C 47.3 29.3 46.9 29.3 47.1 28.9 C 47.5 29 47.4 29.2 47.7 29.5 L 48 29.3 C 47.6 29 47.6 29.1 47.4 28.7 L 47 28.7 L 46.8 28.6 C 46.4 28.4 46.6 27.5 47.3 27.5 L 47.2 28 L 47.1 28.2 L 47.4 28.3 C 48.2 28.2 47.9 28.3 47.9 27.7 C 48 27.2 48.2 27.3 48.5 27 C 48.4 26.7 48.2 26.2 47.8 26.3 C 47.8 26.7 48.2 26.9 47.9 27.4 C 47.3 27.2 47.8 26.5 47 26.3 C 46.4 26.7 47 26.9 46.8 27.6 C 46.5 27.5 46.5 27.1 46.3 26.8 C 45.9 26.3 45.8 26.7 45.4 26.4 C 45.6 25.9 45.7 26.2 46 26 C 45.9 25.6 45.5 25 45.3 24.6 C 44.9 23.9 44.7 23.8 44.2 24.4 L 44 24.4 L 43.9 24 C 44.1 22.9 48.8 23.4 49.4 23.3 L 48.9 20.2 L 49.2 20.2 C 49.2 20.2 49.6 22.6 49.7 22.8 C 50.1 23.7 51.8 23.1 52.1 22.8 L 52.2 22.5 L 49.9 21.7 L 49.9 21.5 L 51.7 21.3 L 49.4 20.4 L 49.4 20.2 L 51.2 20.3 L 51.6 20.6 L 51.7 20.7 C 51.9 20.3 52 20.3 52 19.9 C 51.8 19.6 51.9 19.8 51.8 19.6 L 51.8 19.2 Z M 44.2 33 C 44.2 33 44.2 33 44.2 33 C 44.2 33 44.2 33 44.2 33 C 44.2 33 44.2 33 44.2 33 C 44.2 33 44.2 33 44.2 33 C 44.2 33 44.2 33 44.2 33 Z M 56.5 53.7 C 55.6 53.7 54.5 53.6 53.7 53.3 C 49.7 51.9 46.7 44.6 47.7 43.2 C 48.4 44.9 47.7 47 50.7 50.7 C 52.1 52.3 54.3 53.7 56.5 53.7 Z M 39.4 40.8 C 39.4 40.8 39.4 40.8 39.4 40.8 C 39.5 40.8 39.5 40.8 39.4 40.8 Z M 56.7 53.7 C 56.633 53.7 56.567 53.7 56.5 53.7 C 56.567 53.7 56.633 53.7 56.7 53.7 Z M 39.3 52.2 L 43.7 54.1 L 39.5 53 L 39.5 53.2 L 45.1 55.2 L 39.7 53.8 L 39.6 54.2 L 48.6 56.5 L 48.6 56.7 L 40.2 54.8 C 40 54.6 40.3 54.7 39.9 54.7 C 40 55 39.9 54.8 40 54.9 C 40.4 55.3 46.3 56.7 47.2 56.8 C 48.6 57 49.7 57.2 51.2 57.3 C 51.9 57.4 55 56.8 55.2 57.3 C 54.8 58.2 48.5 57.5 47.3 57.3 C 46 57.2 40.8 55.7 40.2 55.7 C 39.7 57.9 55 58 55 58 L 55 58.3 C 53.8 59 45.8 58.1 43.7 57.8 C 42.9 57.6 41.1 56.9 40.4 56.9 C 40.1 59 51.2 58.8 51.6 59.3 C 50.1 60.3 40.6 58.2 40.5 58.2 C 41 60 53 60.4 55 59.6 L 55.2 58.3 L 55.3 57.9 L 55.5 56.6 C 51.8 56.4 52.1 57.4 47.8 56.1 C 44.8 55.2 44.5 54.1 42.4 52.7 C 42.2 52.4 41.9 52.2 41.6 51.9 C 41.4 51.6 41.3 51.3 41.1 51 C 40.8 50.6 40.6 50.3 40.2 50.3 C 39.9 50.2 39 50.2 38.8 50.2 C 39 50.7 40.2 50.8 40.7 51 C 40 51.1 39.5 50.9 39 50.9 C 39.1 51.4 41 51.6 41.4 51.9 C 40.9 52.1 39.8 51.6 39.2 51.5 C 39.4 51.9 41.5 52.5 42.2 52.7 L 39.3 52.2 Z M 42.4 52.7 C 42.4 52.7 42.367 52.7 42.3 52.7 L 42.4 52.7 Z M 37.8 51.8 C 37.6 51.5 37.5 51.5 37.3 51.8 C 37.5 51.9 37.5 51.9 37.8 51.8 Z M 36 51.8 L 36.7 51.8 C 36.7 51.7 36.4 51.4 36.3 51.4 L 35.8 51.6 C 36 51.7 35.8 51.5 36 51.8 L 36 51.8 Z M 35.6 51.6 C 35.6 51.4 35.4 51.3 35.2 51.2 C 34.8 51.8 34.9 51.4 34.4 51.6 C 34.6 51.8 35.4 51.8 35.6 51.6 L 35.6 51.6 Z M 38.4 51.2 C 38.4 50.9 38.5 50.9 38.2 50.7 L 37.9 50.7 C 37.9 51 38.1 51.1 38.4 51.2 Z M 34.8 42.1 L 34.7 42.7 L 35.3 42.8 L 35.5 42.7 L 35.3 42.6 L 34.8 42.1 Z M 59.9 43.2 C 59.7 42.7 59.6 42.7 59.3 42.2 C 59.2 42 59 41.9 58.9 41.7 C 58.6 41.3 58.9 41.3 58.4 41.3 C 58.9 42.5 59.9 42.4 60 45.3 C 60.1 46.2 60 45.9 60.2 46 C 60.5 45.4 60.1 43.8 59.9 43.2 L 59.9 43.2 Z M 59.4 38.8 C 59.1 38.4 58.8 38.8 58.6 39 L 59.4 38.8 Z M 34.3 39.1 L 34.4 38.7 L 33.7 38.2 C 33.7 38.6 34 38.9 34.3 39.1 Z M 34.8 37.8 L 33.8 37.1 C 33.8 37.5 34.2 38 34.5 38.3 L 34.8 37.8 Z M 41.6 33 L 41.2 32.5 C 41.1 32.8 41.2 33 41.3 33.2 L 41.6 33 Z M 41.9 32.9 L 42.3 32.5 C 42 32.2 42 32.4 42 32.1 C 42.3 32.1 42.1 32.1 42.4 32.4 L 42.8 32.1 C 42.6 31.8 42.5 31.9 42.3 31.6 L 42 31.9 C 41.8 32 41.6 32.1 41.4 32.1 L 41.9 32.9 Z M 43.3 30.9 C 43.4 31.1 43.4 31.3 43.6 31.5 L 44 31.2 C 43.8 31 43.6 31 43.6 30.6 C 44 30.6 43.9 30.8 44.2 31.1 L 44.5 30.8 C 44.1 30.4 44.1 30.4 43.5 30.4 L 43.3 30.9 Z M 41.3 28.6 C 40.8 29.2 41.5 30.1 41.8 30.6 C 41.5 30.8 41.3 31.2 41.3 31.6 C 42.1 31.7 42 31.3 42.7 31.5 L 43 32 L 43.4 31.6 L 43 31.1 C 41.3 31 41.9 30.3 42.2 29.7 C 42.1 29.6 41.4 28.7 41.3 28.6 L 41.3 28.6 Z M 52.8 29.5 L 53 29.3 L 53.1 29.4 L 53.4 29.3 L 53.3 29 L 53.1 29.1 L 53.1 29 L 52.9 28.9 C 52.9 29 52.9 29.1 52.9 29.1 C 52.8 29.3 52.8 29.2 52.8 29.3 L 52.7 29.1 L 52.6 29.4 L 52.8 29.5 Z M 54.4 29.1 C 54.3 29 54.2 29 54.2 29.1 C 54.2 29.3 54.4 29.3 54.4 29.1 Z M 54 29.2 C 54.1 29.1 54.1 29.3 54 28.9 C 53.8 29.1 53.8 29 54 29.2 Z M 55.3 28.9 C 55.2 29.1 55.2 29 55.3 29.2 C 55.4 29 55.5 29.2 55.3 28.9 Z M 54.8 28.9 C 54.9 29.3 54.9 29.1 55 29.1 C 55 28.9 55.1 28.9 54.8 28.9 Z M 53.1 28.6 C 52.8 28.5 53 28.6 52.8 28.6 C 52.9 28.7 52.8 28.8 53.1 28.6 Z M 52.5 29.5 C 52.3 29.2 52.5 29.3 52 29.3 L 51.9 29.5 L 52.5 29.5 Z M 50.2 28.7 L 49.9 28.2 C 49.9 28.2 49.8 28.2 49.9 28.5 C 50 28.8 50.1 28.7 50.2 28.7 Z M 49.2 28.9 C 49 28.6 49 28.9 48.7 28.4 L 48.4 28.4 C 48.6 28.7 48.8 29.2 49.2 28.9 Z M 48.2 28.2 L 47.7 28.6 L 48.3 29.3 L 48.6 29.1 C 48.4 28.8 48.3 28.8 48.2 28.5 L 48.4 28.4 L 48.2 28.2 Z M 49.4 28.8 L 49.9 28.7 L 49.5 28.5 C 49.5 28.1 49.5 28.3 49.7 28.1 C 49.5 28 49.4 28 49.2 28.2 L 49.4 28.8 Z M 50.7 28.5 C 50.6 28.2 50.5 28.3 50.7 28 C 51.1 28 50.9 28.3 51.2 28.4 L 51.1 28 C 50.7 27.8 50.5 27.9 50.2 28.2 C 50.4 28.5 50.3 28.5 50.7 28.5 Z M 52.1 27.1 C 50.9 26.3 50.6 24.8 51.3 23.5 C 50.3 23.8 50.2 27.2 53.7 28.3 C 54.1 28.5 55.9 28.5 55.9 27.9 C 55 27.8 54.3 28.9 52.1 27.1 L 52.1 27.1 Z M 48.5 27.7 C 48.8 27.9 48.9 28 49.3 27.9 C 49.2 27.7 49.1 27.6 49.1 27.3 C 49.2 27.1 49.9 26 48.3 26 C 49.2 26.5 48.5 27.6 48.5 27.7 L 48.5 27.7 Z M 53.2 23.3 C 52.2 23.2 51.8 25.6 53.6 26.6 C 54.3 27 54.2 26.9 55.1 26.9 C 55.4 26.8 55.5 26.8 55.7 26.5 C 55.3 26.6 55.4 26.8 55.1 26.7 C 52.9 26.8 52.1 24 53.2 23.3 L 53.2 23.3 Z M 47.5 25.8 C 47.5 25.6 47.2 25.5 47 25.3 C 46.9 25.1 46.8 24.8 46.7 24.6 C 46.4 24 46.2 23.5 45.5 23.8 C 45.5 24 46.4 25.6 46.6 25.9 C 47.2 25.7 47.2 26.1 47.5 25.8 Z M 48.5 25.5 C 48.2 24.5 48.2 23.3 46.8 23.6 C 46.8 23.6 47.5 25.7 47.8 25.8 L 48.3 26 L 48.2 25.6 L 48.5 25.5 Z M 52.1 23.5 C 51.8 23.5 52 23.4 51.8 23.6 C 51.5 24 51.4 24.9 51.5 25.3 C 51.5 25.8 51.9 26.4 52.2 26.7 C 52.9 27.5 54.2 27.9 55.3 27.6 C 55.8 27.4 56.4 27.2 56.3 26.6 C 55.9 27.2 56.1 27.2 55.2 27.4 C 54 27.5 53.3 27.2 52.5 26.5 C 51.6 25.6 51.8 24.8 51.9 23.7 L 52.1 23.5 Z M 53.9 25.3 C 53.5 24.7 53.5 24.2 53.6 23.6 C 52.5 23.9 53.9 27.1 55.5 26.1 C 55.1 25.8 54.4 25.9 53.9 25.3 Z M 50.8 27.4 L 51.3 27.6 L 50.9 27 L 50.8 27.4 Z M 49.6 23.5 L 50 25 C 49.2 24.7 49.4 23 48.2 23.6 C 48.7 24.2 48.6 25.1 48.9 25.4 C 49.2 25.7 49.4 25.6 49.6 26.1 C 49.8 26.3 49.9 26.7 50 27 C 49.8 27.4 49.6 27.1 49.8 27.5 C 49.9 27.7 50.3 27.8 50.5 27.8 C 50 26.7 50.6 27 50.4 26.3 C 50.2 25.6 49.6 25.7 49.5 25.3 C 49.8 25 49.9 25.2 50.2 25.3 C 50.2 24.6 50.2 24.6 50.3 23.9 L 50.4 23.8 L 50.1 23.7 L 49.6 23.5 Z M 55.7 25 C 54.8 25 54.3 24.5 54.8 23.7 C 53.7 23.3 54.2 25.7 55.6 25.3 L 55.7 25 Z M 55.7 24.5 C 55.6 24.1 55.5 24.1 55.2 24.1 C 55.1 24.5 55.3 24.5 55.7 24.5 Z M 52.5 22.6 C 52.7 22.8 53.1 22.8 53.3 22.8 C 53.6 21.5 51.9 21.7 52.5 22.6 Z M 47.4 60.4 C 46.6 60.3 40.7 59.3 40.6 59.5 C 40.1 60.7 46.6 60.7 47.4 60.8 C 48.7 60.9 49.9 60.9 51.3 61 C 52.2 61 54.3 60.5 54.9 60.7 C 54 61.8 45.7 61.3 43.8 61.1 C 43.3 61.1 40.8 60.5 40.6 60.5 C 40.9 62.1 52.8 62.4 55 61 L 54.9 60.1 C 52.6 60.1 50.1 60.8 47.4 60.4 L 47.4 60.4 Z" style="stroke: rgb(0, 0, 0);"/>
      <path fill-rule="evenodd" class="b" d="M 38 33.3 C 36.7 32.1 37.5 33.3 37 31.7 C 37 31.4 36.1 30.6 35.8 30.3 C 34.5 28.7 36.5 28.2 37.3 27.5 C 37.8 26.9 38.3 26.7 38.8 26.3 C 39.2 25.9 39.4 26 39.7 25.8 C 40 25.7 39.9 25.5 40.3 25.2 C 40.3 25.2 43.5 24.4 43.9 24 L 44 24.4 C 44.1 24.7 44 24.5 44.2 24.6 C 44.6 25 45.2 26 45.2 26.5 C 44.1 26.1 44 24.1 42.9 24.8 C 42.9 25.1 43.9 26.4 44.1 27 C 44.8 27.1 44.5 27 44.9 28.2 L 45.5 28.2 C 45.4 28.9 45 28.7 45 29.2 C 45.3 29.3 45.6 29.2 45.8 29 C 45.8 28.6 45.4 29.1 45.8 28 C 46.1 27.9 46 27.8 46.4 27.9 L 46.2 28.5 C 46.8 29 46.8 28.6 46.8 28.6 L 47 28.7 L 46.7 29 L 47 29.8 L 46.9 29.7 C 46.7 29.6 46.6 29.5 46.5 29.4 C 46.2 29.1 46.4 29.1 46 29.1 C 46 29.4 46.2 29.6 46.3 29.9 L 46.3 30 C 46 29.8 45.9 29.6 45.7 29.6 C 45.6 29.9 45.7 30 45.8 30.3 L 45.6 30.4 C 45.5 30 45.1 29.8 44.6 29.7 L 44.5 29.7 L 44.8 28.4 C 44.4 27.8 42.5 24.7 41.7 25.4 L 42.7 27.5 C 41.6 27.6 41.5 25.4 40.7 25.6 C 39.5 25.9 41.6 27 41.4 28.2 C 40.9 28.1 39.8 25.6 39.2 26.6 C 39 26.9 40.4 28.5 40.5 29.1 L 38.6 27.1 C 38.4 27.2 38 27.3 37.8 27.5 L 39.1 29.8 L 39 30 C 38.9 29.6 38.3 29.2 38 28.8 C 37.6 28.4 37.4 27.9 36.8 28.3 C 36.8 28.4 37.3 29 37.5 29.3 C 37.6 29.6 37.8 30 38 30.3 C 38.7 31.1 38.2 30.8 38.4 31.4 C 38.4 31.5 38.8 32.3 38.9 32.4 C 39.2 32.2 39.1 32.1 39.5 32.1 C 39.6 32.6 39.2 32.9 39.2 33.4 L 40.1 33.2 L 40.3 33.4 L 40.3 33.6 L 40 33.5 C 40 33.9 40.1 34.1 40.3 34.4 C 39.6 34.1 40 33.9 39.1 33.9 C 38.8 34.2 38.9 34.6 38.5 34.7 C 38 34.9 37.8 34.7 37.6 34.3 L 37.7 33.8 L 38 33.3 Z M 36.9 29.5 C 36.3 28.3 35.9 29 35.9 29.2 C 35.8 29.5 36.4 30.2 36.7 30.5 C 36.8 30.7 36.9 31 37.1 31.2 C 37.4 31.6 37.3 31.2 37.8 31.5 C 37.8 32 37.4 31.8 37.8 32.6 C 38.2 33.4 38.1 32.9 38.5 33.3 C 38.4 33.7 38.1 33.8 38.2 34.2 C 38.5 34.3 38.8 34 38.7 33.6 C 38.5 33 38.7 33.2 38.8 32.6 C 38.3 31.7 37.5 32.2 37.9 30.7 C 37.2 30.1 37.4 30.3 36.9 29.5 L 36.9 29.5 Z" style="stroke: rgb(0, 0, 0);"/>
      <path fill-rule="evenodd" class="b" d="M 48.5 19 C 47.8 18.7 47.9 18.7 47.8 18 C 47.7 17.5 47.3 17.4 47.3 16.7 C 47.3 16.3 47.9 14.4 48.1 14.1 C 48.5 14.3 48.3 14.5 48.9 14.9 C 50 15.4 51.3 16.1 50.7 17.4 C 51.6 17.9 51.7 18.8 51.8 19.2 L 51.8 19.6 C 51.2 19.6 51.5 20.1 51.6 20.5 L 51.3 20.2 C 51 19.6 49 19.7 49.1 18.9 C 49.6 18.6 50.2 19.1 50.7 19.2 C 50.4 18.1 48.7 18.2 48.6 17.9 C 48.5 17.5 49.1 17.6 49.4 17.5 L 49.6 17.6 L 49.6 17.4 C 49.9 16.2 49.2 16.4 48.9 15.7 C 50.2 16.1 50.2 16.8 50 17.8 L 50.8 18.5 C 51.2 17.8 50.7 17.9 50.3 17.6 C 50.6 16.9 50.7 16.3 49.9 15.9 C 49.5 15.6 48.8 15.1 48.3 14.9 C 48.2 15.7 47.7 16.3 47.9 17.2 L 48.5 17.6 C 48.5 18 48.2 17.9 48.4 18.4 C 48.5 19 48.6 18.7 49 18.9 C 49.1 19.3 48.8 19.3 49.1 19.7 C 49.3 20 49.5 20 49.2 20.2 L 48.9 20.2 C 48.6 19.7 48.4 19.8 48.5 19 L 48.5 19 Z M 51.2 18.5 C 50.9 18.8 50.7 19.2 51.2 19.5 C 51.5 19.3 51.5 18.8 51.2 18.5 Z" style="stroke: rgb(0, 0, 0);"/>
      <path fill-rule="evenodd" class="b" d="M 53.5 38.4 C 53.6 38.5 53.9 40.1 53.9 40.1 C 53.1 40.3 52.9 37.6 50.3 39.6 C 50.9 40.1 52.8 39.5 53.3 40 C 52.9 40.6 50.6 40.1 49.9 40.1 C 51.4 41 53 40.4 53.5 40.6 C 53.5 41.9 49.4 40.4 48.8 40 C 48.9 38.8 52.4 37.5 53.5 38.4 Z M 51.1 38.6 C 50.6 38.7 49.6 39.2 49.4 39.6 C 49.7 39.6 50.9 38.8 51.1 38.6 Z" style="stroke: rgb(0, 0, 0);"/>
      <path fill-rule="evenodd" class="b" d="M 33.4 31.3 L 33.5 31.6 L 33.1 31.6 C 33.4 32.7 34.5 33.3 34.8 34.3 L 35.3 34.3 C 35.3 34.8 34.9 34.7 35.7 35.7 C 36 35.4 35.8 35.3 36.3 35.3 C 36.4 35.8 36.1 35.9 36.3 36.4 C 36.8 36.4 36.9 36.2 37.2 36 C 37.3 36.4 36.9 37 36.4 36.9 C 35.7 36.9 35.7 36.4 35.6 35.9 L 34.8 35.4 L 34.7 34.4 C 33.8 33.8 33.4 32.9 32.8 32.5 C 32.7 31.8 32.1 31.1 33.4 31.3 L 33.4 31.3 Z" style="stroke: rgb(0, 0, 0);"/>
      <path fill-rule="evenodd" class="b" d="M 53.6 43.7 C 53.7 42.7 52.7 42.2 53 41.7 C 53.6 41.9 53.6 42.7 53.9 43.1 L 54.7 42.6 C 54.6 42.2 54.1 41.6 54.4 41.2 C 55 41.6 54.6 42.8 55.4 42.6 C 55.3 42.1 54.7 41.3 55 40.8 C 55.4 41 55.5 42.3 55.7 42.7 L 56.5 43.1 L 56.4 43.2 C 55.6 42.8 55.7 43 55 43.2 C 54.9 43.1 54.9 43.1 54.9 43 L 54.9 42.9 C 54.9 42.9 54.9 42.9 54.9 42.9 C 54.6 43 54.1 43.7 54.1 44.1 C 54.1 44.8 54.2 44.6 54.3 45 C 54.5 45.1 54.8 45.1 54.9 45.2 L 54.5 45.3 C 53.6 45.1 53.4 44.5 53.6 43.7 L 53.6 43.7 Z" style="stroke: rgb(0, 0, 0);"/>
      <path fill-rule="evenodd" class="b" d="M 42.7 45.5 C 43 46.6 43.3 47.6 43.6 48.7 C 43.9 49.7 44.6 50.5 45.1 51.4 C 43.6 50.2 42.9 47.4 42.5 45.6 C 42.2 44.5 41.5 41.8 41.1 40.8 C 40.9 40.3 40.5 39.5 40.8 39.1 C 41.2 39.4 41.2 40.2 41.3 40.7 C 41.4 41.1 41.7 41.7 41.8 42.2 C 42.1 43.3 42.5 44.3 42.7 45.5 L 42.7 45.5 Z" style="stroke: rgb(0, 0, 0);"/>
      <path fill-rule="evenodd" class="b" d="M 37.7 42.5 C 37.7 42.2 37.8 42.1 38 41.8 L 37.9 41.6 L 37.8 41.7 L 37.6 41.9 C 37.6 42.6 37.8 42.7 37.8 43.2 C 38.2 43.4 38.5 43 39 43.4 C 39.3 43.5 39.7 43.9 39.8 44.2 C 40.6 45.9 38.6 45.7 38.3 45.3 C 38 45.1 38 44.8 38.3 44.7 C 38.6 44.5 38.8 44.7 39.1 44.8 C 38.9 44.2 38.1 43.7 37.7 43.6 C 37.4 43.5 37.4 43.6 37.1 43.2 C 36.9 43.1 36.9 43 36.9 42.8 L 37.7 41.3 L 37.6 41 C 37.733 41 37.867 41 38 41 L 37.9 40.1 C 37.5 39.8 37.5 39.9 37 39.9 C 36.4 40.1 36.3 40.5 35.9 40.4 C 35.6 39.9 36 39.3 36.6 39.3 L 38 39.1 L 37.8 38.8 C 36.9 38.6 36.2 38.3 35.8 39.3 C 35.5 39.8 35.5 40.1 35.5 40.6 C 35.4 41.1 35.2 41.3 35.2 41.8 C 35.2 41.8 35.2 41.8 35.2 41.8 C 35.2 41.733 35.167 41.7 35.1 41.7 C 35.1 41.4 35.1 41.2 35.2 40.5 C 35.5 39.2 35.5 37.8 37.7 38.5 C 37.7 38.5 37.7 38.5 37.7 38.5 L 37.9 38.2 L 38.1 38.6 L 38.3 42.3 C 38.2 42.6 38.1 42.7 37.7 42.5 L 37.7 42.5 Z M 38.1 38.6 C 38.6 38.6 39 39.2 39.1 39.7 C 39.2 40 39.3 40.2 39.3 40.6 L 38.9 40.3 L 38.8 40.7 L 38.1 38.6 Z M 40 35.7 C 40.5 35.6 40.7 36.2 40.7 36.7 C 40.4 36.5 40 36 40 35.7 Z M 39.2 51.5 C 39.8 51.6 40.9 52.1 41.4 51.9 C 41 51.6 39.1 51.4 39 50.9 C 39.5 50.9 40 51.1 40.8 51.1 C 40.2 50.8 39.1 50.7 38.8 50.2 C 39.1 50.2 39.9 50.3 40.2 50.3 C 40.6 50.3 40.8 50.6 41.1 51 C 41.3 51.3 41.4 51.6 41.7 51.9 C 41.9 52.2 42.2 52.5 42.4 52.7 C 41.9 52.7 39.4 51.9 39.2 51.5 Z M 36.3 44.2 C 37.7 45.6 36.9 46.2 38.6 46.9 C 39.1 47 39.6 46.8 39.8 46.5 C 39.5 46.3 38.7 47.2 38.1 45.7 C 38.5 45.9 38.5 46.1 38.9 46.2 C 39.3 46.2 39.7 46.2 40 46.3 C 40.1 47.4 38.8 47.2 38.1 47 C 37.9 46.7 38.1 47 37.9 46.8 C 37.4 46.5 38.2 47 37.8 46.8 C 37.7 46.7 37.7 46.8 37.6 46.6 C 37.5 46.4 37.2 46 37 45.6 C 36.8 45.3 36.6 44.7 36.2 44.6 L 36.3 44.2 Z M 34 50.1 C 34 50.5 34.1 50.5 34.1 50.7 C 34.2 50.2 34.3 49.8 34.4 49.3 C 34.5 48.6 34.4 48.4 34.4 47.9 C 34.5 48.1 34.6 48.1 34.8 48.3 L 35.1 48.5 L 34.9 48.6 C 34.9 48.7 34.9 48.5 34.8 48.8 L 34.5 49.8 C 34.4 50.2 34.2 50.7 34.2 51.2 L 34.5 51.2 L 34.5 51.4 C 34.4 51.4 34.3 51.4 34.2 51.4 C 34.2 51.4 34.2 51.4 34.2 51.4 L 34 51.7 C 34.1 51 33.6 49.9 34 49.4 C 34.1 49.8 34 49.8 34 50.1 L 34 50.1 Z M 33.8 41 C 33.1 40.4 33 40.4 33 39.5 L 33.7 39.8 L 33.7 39.5 L 34.1 39.9 L 33.9 40 L 34.3 40.4 C 34.2 40.5 34.3 40.4 34.2 40.5 C 34.1 40.6 34.1 40.5 34 40.6 C 33.6 41 34 41.1 33.8 41.8 C 33.6 41.6 33.7 41.3 33.8 41 L 33.8 41 Z M 36 42.7 C 35.4 41.3 35.8 40.1 36.6 40.4 C 36.8 40.8 36.5 41.3 36.6 41.9 C 36.2 41.6 36.6 41 36.4 40.6 C 35.6 40.4 35.6 42.3 36.8 43.6 C 36.4 43.5 35.8 43.1 35.7 42.7 L 36 42.7 Z M 35.9 47.7 C 35.6 47.2 35.3 47 35.3 46.4 C 35.4 46 35.5 45.4 35.9 45.2 C 35.9 45.6 35.5 46.5 35.7 47.1 C 35.7 47.4 35.8 47.2 36 47.5 L 36 48.3 C 35.7 48.5 35.7 48.5 35.5 48.7 L 35.3 49 C 35.4 48 35.5 48.3 35.9 47.7 L 35.9 47.7 Z M 34.9 46.2 C 34.9 46.2 34.6 45 35.2 45 C 35.7 44.9 35.5 45 35.6 45 C 35.3 45.2 35.3 45.4 35.2 45.8 C 35.2 46.2 35.1 46.3 35.1 46.8 C 34.9 46.6 35 46.5 34.9 46.2 L 34.9 46.2 Z M 39.5 40.8 C 39.4 40.4 39.2 40.3 39.5 40 C 39.7 40.1 39.6 40 39.7 40.3 C 39.8 40 39.9 39.7 40.2 39.4 C 40.1 39.8 40 40.1 39.9 40.4 C 39.8 40.9 39.8 41 39.6 41.2 L 39.4 40.7 C 39.4 40.767 39.433 40.8 39.5 40.8 L 39.5 40.8 Z M 39.5 40.8 C 39.5 40.8 39.5 40.8 39.5 40.8 C 39.5 40.8 39.5 40.8 39.5 40.8 Z M 39.4 39 C 39 39 39.1 38.9 38.8 38.6 C 38.6 38.4 38.3 38.3 38.2 38.1 C 38.1 38 38.2 38 38 38 L 38.2 37.7 L 38.3 37.8 C 38.7 37.9 39.3 38.6 39.4 39 L 39.4 39 Z M 33.9 37.1 L 34.8 37.9 L 34.5 38.4 C 34.2 38.1 33.8 37.6 33.9 37.1 Z M 35.4 43.9 C 35.1 43.9 35.3 43.9 35.1 44 C 35.1 43.6 35.1 43.5 35.3 43.2 L 35.4 43.5 C 35.7 43.4 35.4 43.4 35.7 43.4 C 35.9 43.7 35.9 43.6 36.1 43.9 L 35.8 44 C 35.7 43.7 35.9 43.9 35.6 43.7 C 35.5 43.9 35.5 44 35.6 44.3 C 35.4 44.1 35.4 44.2 35.4 43.9 L 35.4 43.9 Z M 38.9 36.9 C 39.2 37 39.8 37.5 39.6 37.9 C 39.3 37.8 38.7 37.3 38.9 36.9 Z M 38.6 37.4 C 39 37.5 39.6 38 39.5 38.5 C 39.2 38.5 38.6 37.7 38.6 37.4 Z M 35.3 51.2 C 35.5 51.3 35.6 51.4 35.7 51.6 C 35.5 51.8 34.7 51.9 34.5 51.6 C 35 51.4 34.9 51.8 35.3 51.2 L 35.3 51.2 Z M 36.4 51.4 C 36.5 51.5 36.8 51.7 36.8 51.8 L 36 51.8 C 35.9 51.5 36.1 51.7 35.8 51.6 L 36.4 51.4 Z M 38 50.7 L 38.3 50.7 C 38.6 50.8 38.5 50.9 38.5 51.2 C 38.2 51.1 38 51 38 50.7 Z M 37.4 51.8 C 37.6 51.5 37.7 51.5 37.9 51.8 C 37.6 51.9 37.6 51.9 37.4 51.8 Z M 37.1 43.6 L 37.5 43.7 L 37.5 43.6 C 37.8 43.7 37.8 43.8 37.9 44 C 37.4 44.1 37.4 43.9 37.3 44.1 C 36.9 43.9 36.9 43.9 37.1 43.6 L 37.1 43.6 Z M 35.2 49.8 C 35.2 50.4 35.2 50.5 34.7 50.9 C 34.8 50.5 34.9 50 35.2 49.8 Z M 34.8 42.7 L 34.9 42.1 L 35.4 42.6 L 35.4 42.8 L 34.8 42.7 Z M 34.5 42.7 C 34.6 42.6 34.5 42.6 34.6 42.6 C 34.7 42.9 34.8 42.9 34.6 43.1 C 34.4 42.8 34.4 43 34.2 42.6 L 34.5 42.7 Z M 35.3 42.9 L 35.4 42.6 L 35.6 42.8 L 35.3 42.9 Z M 34.8 47 L 35.1 47.1 C 34.9 47.1 34.9 47.1 34.8 47.1 L 34.8 47 Z M 38.2 36.4 L 38.4 36.6 L 38.2 36.4 Z" style="stroke: rgb(0, 0, 0);"/>
      <path fill-rule="evenodd" class="b" d="M 35.5 33.6 C 36.1 33.7 35.7 34.4 36.4 34.9 C 36.6 34.7 36.6 34.7 36.6 34.4 C 36.2 34 35.3 33.5 35.9 32.8 L 36.3 32.8 C 36.4 33.3 36 33.1 36.4 33.6 C 36.5 33.8 36.7 33.9 36.8 34.2 L 37.2 34 L 37.5 34 L 37.5 34.4 C 37.1 34.6 37 34.9 37.2 35.2 C 37.6 35.4 37.7 35.1 38 34.9 C 38 35.4 37.9 35.3 37.8 35.7 C 38 35.9 38.2 36.1 38.3 36.4 C 37.7 36.3 37.8 36 37.4 35.8 C 37 35.7 37.2 36 36.7 35.5 C 36.4 35.2 36.2 35.3 35.9 35 C 35.7 34.8 35.5 34.5 35.3 34.3 C 35.3 33.9 35.2 33.8 35.5 33.6 L 35.5 33.6 Z" style="stroke: rgb(0, 0, 0);"/>
      <path fill-rule="evenodd" class="b" d="M 51.5 49.5 C 51.7 49.5 51.7 49.2 51.9 49.3 C 52.7 49.5 51.6 51.1 50.8 48.5 C 50.4 47.4 49.2 44.5 48.5 43.5 C 48.3 43.2 48 42.9 48.2 42.5 C 48.7 42.6 49.8 45.2 50.1 45.7 L 51.5 49.5 Z" style="stroke: rgb(0, 0, 0);"/>
      <path fill-rule="evenodd" class="b" d="M 52.8 51.7 C 53.133 51.967 53.533 52.2 54 52.4 C 54.2 52.6 55.4 52.9 55.4 53.1 C 55.4 53.2 54 52.8 53.9 52.7 C 53.3 52.4 53.1 52.2 52.7 51.9 C 50.3 50.5 49.6 48.3 48.7 45.9 C 48.633 45.633 48.567 45.4 48.5 45.2 C 48.3 44.7 48.3 44.6 48.5 44.5 C 48.7 44.6 49.3 46.8 49.5 47.3 C 49.9 48.3 50.2 48.9 50.8 49.8 C 51.4 50.7 51.9 51.1 52.8 51.7 L 52.8 51.7 Z" style="stroke: rgb(0, 0, 0);"/>
      <path fill-rule="evenodd" class="b" d="M 32.8 38.1 C 31.6 37.1 30.8 36.6 31.5 35 L 31.9 35.1 C 31.5 35.1 31.3 35.4 31.6 35.8 C 31.8 36.1 32.1 36 32.4 36.3 C 32 36.4 32.4 36.6 32.6 36.8 C 32.8 37 33 37.2 33.2 37.3 L 33.3 37.2 C 33.4 37.7 33.4 38 33 38.1 L 33.4 39 C 33.1 39.2 33 39.2 33 39.5 C 32.5 39.1 32.6 38.5 32.8 38.1 Z" style="stroke: rgb(0, 0, 0);"/>
      <path fill-rule="evenodd" class="b" d="M 50 42 C 50.6 43 50.5 42.1 51.2 43.8 C 51.5 44.6 51.8 45.1 52 46 C 52.1 46.5 52.5 48 52.3 48.4 C 52 48.3 52.2 48.3 52 47.3 C 51.9 46.9 51.8 46.6 51.7 46.1 C 51.6 45.7 50.7 43.3 50.4 43 C 50.2 42.7 49.9 42.6 49.7 42.2 C 49.4 41.8 48.4 40.9 48.7 40.4 C 49 40.5 49.1 41 49.3 41.2 C 49.5 41.5 49.7 41.7 50 42 L 50 42 Z" style="stroke: rgb(0, 0, 0);"/>
      <path fill-rule="evenodd" class="b" d="M 51.8 48.7 C 51.5 48.6 50.7 45.4 50 44 C 48.9 41.9 48.2 41.6 47.7 40.3 C 47.7 40.1 47.6 40 47.7 39.8 C 47.7 39.5 47.6 39.7 47.7 39.6 C 48.1 39.9 47.9 40.8 48.8 41.8 C 49.5 42.6 49.7 42.9 50.2 43.8 C 50.6 44.4 52 48.3 51.8 48.7 L 51.8 48.7 Z" style="stroke: rgb(0, 0, 0);"/>
      <path fill-rule="evenodd" class="b" d="M 55.5 47.6 C 56 47.2 57.4 46.6 57.8 47.2 L 57.8 47.5 C 57.5 47.5 57 47.2 56.8 47.5 C 56.4 47.6 56.6 47.5 56.5 47.8 L 56.9 47.8 C 56.9 48.2 56.8 48.5 56.7 48.9 L 57.1 48.9 L 57.1 49.2 L 56.6 49.2 C 56.5 49 56.5 49.2 56.5 48.9 L 56.5 48 L 56.2 48.6 L 55.9 49 C 55.8 48.8 55.8 48.8 56 48.6 C 56 48.3 56.1 48.2 56.2 47.9 L 56.2 47.7 C 55.9 47.7 54.6 48.5 53.7 48.9 C 53.8 48.9 54.1 48.9 54.1 49 C 53.8 49.1 53.8 49.1 53.6 49.3 L 53.5 49.3 C 53.2 49.3 53 49.3 53.1 48.9 C 53.4 48.7 53.2 48.9 53.4 48.8 C 53.467 48.8 53.5 48.8 53.5 48.8 L 53.6 48.7 C 54.7 48.3 54.7 48.2 55.5 47.6 L 55.5 47.6 Z" style="stroke: rgb(0, 0, 0);"/>
      <path fill-rule="evenodd" class="b" d="M 42.5 39.4 C 42.4 39 41.9 37.1 42.1 36.9 C 42.5 36.9 42.5 37.6 42.6 38 L 43.1 40.6 C 43.4 41.7 43.8 43.4 44 44.6 L 44.4 47.2 C 43.8 45.1 43.3 41.5 42.5 39.4 L 42.5 39.4 Z" style="stroke: rgb(0, 0, 0);"/>
      <path fill-rule="evenodd" class="b" d="M 35 29.7 C 35 30.1 34.7 30.1 35.1 30.5 C 35.9 31.4 36.1 31 36.4 32.3 C 36.6 32.2 36.5 32.2 36.8 32.2 C 37 32.5 36.9 32.7 37.1 33.1 C 37.3 33.3 37.4 33.5 37.5 33.8 L 37.5 33.9 C 37.1 33.6 36.8 33.6 36.6 33.1 C 36.4 32.8 36.5 32.8 36.3 32.6 L 34.3 30.4 C 34.3 30 34.3 29.5 35 29.7 L 35 29.7 Z" style="stroke: rgb(0, 0, 0);"/>
      <path fill-rule="evenodd" class="b" d="M 60.1 47.3 L 60.1 46.8 L 60.4 46.9 C 60.3 47.7 60.3 47.7 60.1 47.9 C 60.2 48.5 60.1 48.6 59.7 49 L 59.8 49.2 L 59.7 49.3 L 59.7 49.4 L 59.5 49.1 L 59.4 49.3 C 59.2 49.4 59.2 49.2 59.2 49.6 L 59.1 49.2 C 58.6 49.3 59 49.2 58.9 49.7 L 58.8 49.4 C 58.6 49.4 58.7 49.4 58.6 49.6 C 58.3 49.4 58.6 49.2 58.6 48.8 L 58.3 48.8 L 58.3 47.7 C 58.6 47.7 58.8 47.6 58.9 47.9 C 58.9 47.9 58.8 48.6 58.8 48.6 L 58.8 48.4 L 58.6 48.6 L 58.8 48.7 L 58.9 48.9 C 59.1 48.8 59 48.8 59.1 48.5 C 59 48.2 59 48.1 59.1 47.8 C 59.1 47.6 58.9 47.7 58.9 47.4 C 59.3 47.2 59.4 47 59.8 47.3 L 59.7 47.1 L 60.1 47.3 Z M 59.8 48.7 C 60 48.5 60.1 48 60 47.7 C 59.7 47.7 59.9 47.7 59.8 47.9 C 59.6 47.8 59.7 48 59.6 47.7 L 59.5 47.8 L 59.3 47.8 L 59.2 48.5 L 59.2 48.7 L 59.4 48.7 L 59.3 48.9 C 59.7 48.9 59.4 48.9 59.6 48.6 C 59.7 48.8 59.5 48.6 59.8 48.7 L 59.8 48.7 Z M 59.6 47.7 C 59.6 47.7 59.6 47.7 59.6 47.7 Z" style="stroke: rgb(0, 0, 0);"/>
      <path fill-rule="evenodd" class="b" d="M 56.1 40.9 C 56 40.3 56 39.6 56 39 C 56 38.6 55.9 37.7 56.3 37.4 C 56.6 37.8 56.3 40 56.5 40.8 C 56.7 41.5 57.5 42.8 57.4 43.3 C 57 42.9 56.3 41.5 56.1 40.9 Z" style="stroke: rgb(0, 0, 0);"/>
      <path fill-rule="evenodd" class="b" d="M 52.1 43.9 C 52.5 45 52.7 46.1 53 47.2 L 53.5 47.4 C 53.6 47.8 53.2 48.2 53 47.9 C 52.9 47.8 52.8 47.1 52.7 46.9 L 52.1 44.9 C 52 44.5 51.6 43.2 51.4 43 C 51.1 42.6 50.4 41.9 50.6 41.4 C 50.7 41.4 51.2 42.3 51.4 42.5 C 52 43.2 51.9 43.1 52.1 43.9 Z" style="stroke: rgb(0, 0, 0);"/>
      <path fill-rule="evenodd" class="b" d="M 54.1 49 C 54.1 48.9 53.8 48.9 53.7 48.9 C 54.6 48.5 55.9 47.7 56.2 47.7 L 56.2 47.9 C 55.9 48 55.4 48.4 55.3 48.5 L 56 48.6 C 55.8 48.8 55.8 48.8 55.9 49 L 56.2 48.6 C 56.2 48.9 56.2 48.8 56.5 48.9 C 56.5 49.2 56.5 49 56.6 49.2 C 56 49.4 55.2 49.4 54.6 49.3 L 54.4 49.1 L 53.6 49.3 C 53.8 49.1 53.8 49.1 54.1 49 Z M 55.1 48.5 C 54.6 48.4 54.4 48.6 54.4 49 C 54.6 49 55 48.8 55.1 48.5 Z" style="stroke: rgb(0, 0, 0);"/>
      <path fill-rule="evenodd" class="b" d="M 46.2 36.4 C 45.9 35.5 45.1 34.1 45.4 33.7 C 46 34 46.6 36.9 46.7 37.8 C 46.8 38.3 47.1 38.9 47 39.2 C 46.4 39 46.3 37 46.2 36.4 Z" style="stroke: rgb(0, 0, 0);"/>
      <path fill-rule="evenodd" class="b" d="M 55.7 35.1 C 55.6 34.7 55.4 34.1 55.2 33.6 L 54.1 30.9 C 54.5 31 54.4 31.1 54.6 31.4 C 55.1 32.4 55.1 32.1 55.6 33.5 C 55.7 34.1 56.3 36.3 56.1 36.7 C 55.7 36.5 55.8 35.5 55.7 35.1 Z" style="stroke: rgb(0, 0, 0);"/>
      <path fill-rule="evenodd" class="b" d="M 32.8 32.5 C 32.7 33.5 32.6 33.3 33.4 33.9 C 33.9 34.3 34.2 34.6 34.3 35.2 C 33.7 35.2 33.5 34.6 33 34.3 C 32.4 33.9 32.1 33.6 32.2 32.8 C 32.4 32.5 32.4 32.5 32.8 32.5 L 32.8 32.5 Z" style="stroke: rgb(0, 0, 0);"/>
      <path fill-rule="evenodd" class="b" d="M 53.7 46.8 C 53.767 46.867 53.8 46.967 53.8 47.1 C 53.9 47.6 53.9 47.3 53.8 47.4 C 53.3 47.1 53.2 44.9 52.6 43.4 C 52.4 43.1 52 42.4 52 42.2 C 52.9 42.2 53.4 45.2 53.6 46 C 53.6 46.2 53.7 46.5 53.7 46.8 L 53.7 46.8 Z" style="stroke: rgb(0, 0, 0);"/>
      <path fill-rule="evenodd" class="b" d="M 32 33.3 C 32.3 33.9 31.8 34.1 32.6 34.9 C 33.1 35.3 33.5 35.3 33.7 35.9 C 32.4 35.6 32.2 35.1 31.8 34.8 C 31.7 34.3 31.1 33.5 32 33.3 L 32 33.3 Z" style="stroke: rgb(0, 0, 0);"/>
      <path fill-rule="evenodd" class="b" d="M 33.5 30.5 C 33.8 30.2 34 30.4 34.2 30.4 C 34.1 31 34.3 30.4 34 30.8 C 34.1 31.4 34.6 31.5 34.9 31.9 C 35.1 32.2 35.3 32.8 35.4 33.2 C 35 33.1 34.8 32.5 34.4 32.2 C 34.3 32 34 31.9 33.9 31.8 C 33.7 31.5 33.7 31.4 33.4 31.3 C 33.4 31 33.3 30.7 33.5 30.5 L 33.5 30.5 Z" style="stroke: rgb(0, 0, 0);"/>
      <path fill-rule="evenodd" class="b" d="M 56.8 36.4 C 57.1 35.7 56 31.2 55.2 31.1 C 55.1 31.5 55.5 31.9 55.6 32.3 C 56.3 33.7 56.6 36.2 56.8 36.4 Z" style="stroke: rgb(0, 0, 0);"/>
      <path fill-rule="evenodd" class="b" d="M 50.9 35.1 C 50.6 34 49.6 32.1 49.8 31.7 C 50.1 31.7 50.1 31.9 50.4 32.7 C 50.7 33.5 51.6 35.7 51.3 36.2 C 51.1 36 51 35.4 50.9 35.1 Z" style="stroke: rgb(0, 0, 0);"/>
      <path fill-rule="evenodd" class="b" d="M 46.9 35.8 L 46.2 33.5 C 46.5 33.6 46.7 34.2 46.8 34.5 C 47.1 35.4 47.8 37.8 47.8 38.3 C 47.1 38.1 47.2 36.5 46.9 35.8 Z" style="stroke: rgb(0, 0, 0);"/>
      <path fill-rule="evenodd" class="b" d="M 49.1 35.5 C 49 34.4 48 32.8 48.3 32.2 C 48.6 32.3 49 33.7 49.1 34.2 C 49.3 34.8 49.6 36.2 49.5 36.6 C 49.1 36.2 49.2 36.1 49.1 35.5 Z" style="stroke: rgb(0, 0, 0);"/>
      <path fill-rule="evenodd" class="b" d="M 47.7 36.2 C 47.5 35.3 46.6 33.3 46.8 33 C 47.4 33.2 48.3 36.8 48 37.3 C 47.7 37.2 47.8 36.5 47.7 36.2 L 47.7 36.2 Z" style="stroke: rgb(0, 0, 0);"/>
      <path fill-rule="evenodd" class="b" d="M 52.6 35.5 C 52.3 34.3 52 32.9 51.4 31.8 C 51.1 31.2 51.3 31.3 51.3 31.2 C 51.8 31.4 52.2 33 52.4 33.5 C 52.5 33.8 53 35.8 53 36 C 52.6 35.9 52.7 35.9 52.6 35.5 Z" style="stroke: rgb(0, 0, 0);"/>
      <path fill-rule="evenodd" class="b" d="M 54 34.8 C 53.8 34.1 52.8 31.7 52.7 31.2 C 53.1 31.2 53.1 31.3 53.2 31.6 C 53.4 32.3 54.6 35.8 54.5 36 C 54.2 35.8 54.1 35.2 54 34.8 L 54 34.8 Z" style="stroke: rgb(0, 0, 0);"/>
      <path fill-rule="evenodd" class="b" d="M 53.9 32.3 C 53.8 32 53.4 31.4 53.5 31.1 C 54.1 31.3 54.8 34 55 34.8 C 55.2 35.3 55.5 35.6 55.4 36.1 C 55 35.8 54.2 33.1 53.9 32.3 Z" style="stroke: rgb(0, 0, 0);"/>
      <path fill-rule="evenodd" class="b" d="M 50.2 35.2 C 50 34.5 49.6 33.5 49.3 32.9 C 49.2 32.7 49.1 32.6 49 32.4 C 48.8 31.9 49.1 31.9 49.1 31.9 C 49.7 32.7 50.7 35.4 50.5 36.3 C 50.2 36.2 50.2 35.5 50.2 35.2 L 50.2 35.2 Z" style="stroke: rgb(0, 0, 0);"/>
      <path fill-rule="evenodd" class="b" d="M 55.9 42.1 C 55.7 41.9 55.6 41.4 55.5 41.1 C 55.3 40.6 54.9 39 55.3 38.6 C 55.4 38.8 55.5 40.6 55.7 41.2 C 56 41.8 56.7 42.8 56.7 43.2 L 56.5 43.1 C 56.4 42.7 56.1 42.5 55.9 42.1 L 55.9 42.1 Z" style="stroke: rgb(0, 0, 0);"/>
      <path fill-rule="evenodd" class="b" d="M 50.6 32 C 50.3 31.5 50.5 31.6 50.6 31.5 C 50.8 31.9 51 32.1 51.1 32.6 C 51.4 33.3 52.4 35.7 52.2 36.1 C 52 36 51.1 33.1 50.6 32 Z" style="stroke: rgb(0, 0, 0);"/>
      <path fill-rule="evenodd" class="b" d="M 48.2 34.8 C 48 34.3 47.4 33.1 47.5 32.6 C 47.7 32.8 47.7 32.7 47.8 33.1 L 48.4 34.6 C 48.7 35.4 48.8 36.2 49 36.9 C 48.5 36.8 48.4 35.3 48.2 34.8 L 48.2 34.8 Z" style="stroke: rgb(0, 0, 0);"/>
      <path fill-rule="evenodd" class="b" d="M 57.6 36 C 57.3 35.6 57 34.2 56.9 33.8 C 56.8 33.3 56 31.6 56.2 31.4 C 56.5 31.6 57 33.1 57.1 33.6 C 57.3 34.2 57.3 34.5 57.4 35 C 57.5 35.4 57.7 35.8 57.8 36.2 C 57.6 36.1 57.8 36.4 57.6 36 L 57.6 36 Z" style="stroke: rgb(0, 0, 0);"/>
      <path fill-rule="evenodd" class="b" d="M 57.7 47.7 C 57.8 47.9 57.7 47.7 57.7 47.9 C 57.7 47.967 57.7 48 57.7 48 C 57.7 48 57.7 48.033 57.7 48.1 C 57.7 48.167 57.7 48.2 57.7 48.2 C 57.767 48.267 57.8 48.3 57.8 48.3 L 57.9 48.2 C 58.1 48 57.8 48.1 58.1 48 L 58.1 48.7 L 58.3 48.8 L 58.6 48.8 C 58.6 49.2 58.3 49.4 58.6 49.6 C 58.8 49.9 58.7 50.5 58.4 50.8 L 58.3 49.4 C 58.1 49.267 57.933 49.133 57.8 49 L 57.8 48.3 L 57.6 48.6 L 57.4 48.3 L 57.5 47.8 L 57.7 47.7 Z" style="stroke: rgb(0, 0, 0);"/>
      <path fill-rule="evenodd" class="b" d="M 53.3 34.9 L 52.5 32.4 C 52.433 32.2 52.333 32 52.2 31.8 C 51.9 31.1 52.1 31.2 52.2 31.2 C 52.6 31.6 53.8 35.5 53.7 36.1 C 53.4 36 53.4 35.2 53.3 34.9 L 53.3 34.9 Z" style="stroke: rgb(0, 0, 0);"/>
      <path fill-rule="evenodd" class="b" d="M 58.1 47.6 L 58.4 46.9 C 58.8 47 58.6 47.2 59.1 47 C 59.3 46.9 59.5 46.8 59.7 47.1 L 59.8 47.3 C 59.4 47 59.3 47.2 58.9 47.4 C 58.9 47.7 59.1 47.6 59.1 47.8 C 59 48.1 59 48.2 59.1 48.5 C 59 48.8 59.1 48.8 58.9 48.9 L 58.8 48.7 L 58.8 48.6 C 58.8 48.6 58.9 47.9 58.9 47.9 C 58.8 47.6 58.6 47.7 58.3 47.7 L 58.1 47.6 Z" style="stroke: rgb(0, 0, 0);"/>
      <path fill-rule="evenodd" class="b" d="M 47 39.9 C 47.3 39.9 47.3 40 47.3 40.4 C 47.5 41.2 47.9 41.9 47.9 42.4 C 47.2 42.2 46.9 40.3 47 39.9 Z" style="stroke: rgb(0, 0, 0);"/>
      <path fill-rule="evenodd" class="b" d="M 54.8 44.6 C 55 44.5 55.4 44.5 55.6 44.5 C 55.3 44.8 55.3 44.6 55.2 44.8 C 55.7 44.8 55.8 44.6 56.1 44.8 C 55.6 44.9 55 45.9 54.5 45.3 L 54.9 45.2 C 54.8 45.1 54.5 45.1 54.3 45 C 54.8 44.9 54.4 44.9 54.8 44.6 L 54.8 44.6 Z" style="stroke: rgb(0, 0, 0);"/>
      <path fill-rule="evenodd" class="b" d="M 40.8 31.2 C 40.7 31.1 40.8 31.1 40.7 31 C 40.4 30.2 40.2 30.1 40.3 29.2 C 39.2 29.3 40.1 30.9 40.8 31.2 Z" style="stroke: rgb(0, 0, 0);"/>
      <path fill-rule="evenodd" class="b" d="M 53.2 22.8 C 53.5 21.5 51.8 21.7 52.5 22.6 C 52.6 22.8 53 22.8 53.2 22.8 Z" style="stroke: rgb(0, 0, 0);"/>
      <path fill-rule="evenodd" class="b" d="M 55.3 37.2 C 55.3 36.8 54.9 36.3 55.6 36.4 C 55.8 36.8 55.5 38.2 55.2 38.5 C 54.8 38 55.3 38.1 55.3 37.2 L 55.3 37.2 Z" style="stroke: rgb(0, 0, 0);"/>
      <path fill-rule="evenodd" class="b" d="M 57.5 39.9 C 57.4 39.6 57.5 39.4 57.4 39.1 C 57.3 38.5 57.2 38.5 57.6 37.9 C 57.6 38.6 57.5 38.7 57.7 39 C 57.7 39.3 57.6 39.4 57.8 39.6 C 57.7 40 57.7 40.1 57.8 40.5 C 57.933 40.5 58.033 40.5 58.1 40.5 C 58.3 40.6 58.2 40.5 58.4 40.6 L 58 40.7 L 58.1 40.9 C 57.5 40.5 57.6 40.8 57.5 39.9 L 57.5 39.9 Z" style="stroke: rgb(0, 0, 0);"/>
      <path fill-rule="evenodd" class="b" d="M 56.6 44.4 C 56.8 44.8 56.6 44.9 56.4 45.2 C 56.1 45.2 56 45.1 56.1 44.8 C 55.8 44.6 55.7 44.8 55.2 44.8 C 55.3 44.6 55.3 44.8 55.6 44.5 C 56 44.3 56.2 44.3 56.6 44.4 Z" style="stroke: rgb(0, 0, 0);"/>
      <path fill-rule="evenodd" class="b" d="M 58.8 36 L 58.8 35.7 L 59.1 35.8 L 59.2 36 L 59 36 C 59 36.8 59.3 35.9 59.1 37 C 59 37.4 59.2 37.2 59 37.4 L 58.9 37.2 L 58.6 37.2 L 58.7 37.1 C 58.9 36.9 58.8 37.2 58.9 36.9 C 59.1 36.2 58 36.7 58 36.7 C 58.2 36.3 58.5 36.4 58.8 36 L 58.8 36 Z" style="stroke: rgb(0, 0, 0);"/>
      <path fill-rule="evenodd" class="b" d="M 53.4 59.2 C 53.9 59.2 54.1 59.1 54.6 59.1 C 54.3 59.4 53.7 59.4 53.3 59.5 C 52.9 59.5 52.2 59.7 52.2 59.2 C 52.6 59 53 59.2 53.4 59.2 L 53.4 59.2 Z" style="stroke: rgb(0, 0, 0);"/>
      <path fill-rule="evenodd" class="b" d="M 54.6 37.2 C 54.6 36.8 54.4 36.6 54.7 36.3 C 55.3 36.4 54.9 38 54.6 38.3 C 54.5 37.9 54.6 37.7 54.6 37.2 Z" style="stroke: rgb(0, 0, 0);"/>
      <path fill-rule="evenodd" class="b" d="M 43.4 28.3 C 43.2 28 43.1 27.8 43.3 27.4 C 43.7 27.4 43.9 28.4 44.1 28.8 C 43.8 28.6 43.6 28.7 43.4 28.3 L 43.4 28.3 Z" style="stroke: rgb(0, 0, 0);"/>
      <path fill-rule="evenodd" class="b" d="M 57.6 49.4 C 58.1 48.9 58.2 50.4 58.1 50.9 L 57.9 51 C 58 49.9 57.2 49.8 57.6 49.4 Z" style="stroke: rgb(0, 0, 0);"/>
      <path fill-rule="evenodd" class="b" d="M 45.2 27.3 C 45 27 44.7 26.9 44.9 26.6 C 45.6 26.7 45.8 27.5 45.8 28 C 45.6 27.9 45.4 27.5 45.2 27.3 Z" style="stroke: rgb(0, 0, 0);"/>
      <path fill-rule="evenodd" class="b" d="M 58.5 45.3 L 58.5 46.6 C 58.2 46.4 57.9 45.9 57.8 45.6 L 58.5 45.3 Z" style="stroke: rgb(0, 0, 0);"/>
      <path fill-rule="evenodd" class="b" d="M 58.5 52.8 C 58.2 52.9 57.7 52.8 57.4 52.8 C 57 52.8 56.5 53 56.3 52.8 C 56.5 52.5 58.3 52.3 58.5 52.8 Z" style="stroke: rgb(0, 0, 0);"/>
      <path fill-rule="evenodd" class="b" d="M 53.8 37.1 C 53.7 36.7 53.5 36.6 53.7 36.3 C 54.4 36.3 54.2 37.6 53.9 37.9 C 53.8 37.6 53.9 37.4 53.8 37.1 L 53.8 37.1 Z" style="stroke: rgb(0, 0, 0);"/>
      <path fill-rule="evenodd" class="b" d="M 56.3 53.2 C 56.6 53.5 58.1 53.3 58.4 53.1 C 57.9 53 56.7 52.9 56.3 53.2 Z" style="stroke: rgb(0, 0, 0);"/>
      <path fill-rule="evenodd" class="b" d="M 52 37.4 C 51.9 37.1 51.7 36.4 51.2 36.4 C 50.8 37 51.6 37.1 52 37.4 Z" style="stroke: rgb(0, 0, 0);"/>
      <path fill-rule="evenodd" class="b" d="M 56.9 49.5 L 57.2 49.5 C 57.5 49.7 57.5 50.4 57.3 50.7 L 56.8 49.8 L 56.9 49.5 Z" style="stroke: rgb(0, 0, 0);"/>
      <path fill-rule="evenodd" class="b" d="M 53.3 37.6 C 53.5 37.3 53.6 36.2 53 36.3 C 52.9 36.5 53.2 37.5 53.3 37.6 Z" style="stroke: rgb(0, 0, 0);"/>
      <path fill-rule="evenodd" class="b" d="M 55.9 46.2 C 55.5 46.1 55 46 55 46.5 C 55.3 46.8 56.1 46.8 55.9 46.2 Z" style="stroke: rgb(0, 0, 0);"/>
      <path fill-rule="evenodd" class="b" d="M 43.7 33.3 L 43.2 33 L 43.3 33.5 C 43.1 33.2 42.9 33.2 42.8 32.8 C 43 32.7 42.9 32.7 43.1 32.8 L 43.2 32.5 L 43.6 32.6 L 43.7 33.3 Z" style="stroke: rgb(0, 0, 0);"/>
      <path fill-rule="evenodd" class="b" d="M 57.8 47.5 L 57.8 47.2 C 58.2 47.6 58 47.6 58.1 48 C 57.8 48.1 58.1 48 57.9 48.2 L 57.8 48.3 C 57.8 48.3 57.767 48.267 57.7 48.2 C 57.7 48.2 57.7 48.167 57.7 48.1 C 57.7 48.033 57.7 48 57.7 48 C 57.7 48 57.7 47.967 57.7 47.9 C 57.7 47.7 57.8 47.9 57.7 47.7 L 57.5 47.8 C 57.4 47.4 57.2 47.5 56.8 47.5 C 57 47.2 57.5 47.5 57.8 47.5 L 57.8 47.5 Z" style="stroke: rgb(0, 0, 0);"/>
      <path fill-rule="evenodd" class="b" d="M 54.1 47.3 C 54.6 47.4 54.9 47.1 54.7 46.6 C 54.1 46.4 54 46.9 54.1 47.3 Z" style="stroke: rgb(0, 0, 0);"/>
      <path fill-rule="evenodd" class="b" d="M 57.4 48.9 L 57.4 48.3 L 57.6 48.6 L 57.6 48.9 L 57.8 49 L 57.8 49.2 C 57.4 49.3 57.3 49.2 57.2 49.5 L 56.9 49.5 C 56.6 49.3 56.7 49.4 56.6 49.2 L 57.1 49.2 L 57.1 48.9 L 57.4 48.9 Z" style="stroke: rgb(0, 0, 0);"/>
      <path fill-rule="evenodd" class="b" d="M 50.6 36.5 C 50.9 36.7 51.1 37.1 51.1 37.5 C 50.8 37.3 50.4 37.1 50.3 36.7 L 50.6 36.5 Z" style="stroke: rgb(0, 0, 0);"/>
      <path fill-rule="evenodd" class="b" d="M 52.6 37.5 C 52.8 37.1 52.6 36.3 52.1 36.3 C 52 36.7 52.3 37.3 52.6 37.5 Z" style="stroke: rgb(0, 0, 0);"/>
      <path fill-rule="evenodd" class="b" d="M 52.1 50.4 C 52.4 50.3 52.5 50.3 52.8 50.4 C 52.9 50.8 52.8 50.8 52.5 50.9 C 52.2 50.8 52 50.8 52.1 50.4 L 52.1 50.4 Z" style="stroke: rgb(0, 0, 0);"/>
      <path fill-rule="evenodd" class="b" d="M 57.6 36.8 C 57.5 37.7 57.1 37.6 57 38.4 C 57 38.1 57.1 37.9 56.9 37.7 C 57 37.3 57.3 37 57.6 36.8 Z" style="stroke: rgb(0, 0, 0);"/>
      <path fill-rule="evenodd" class="b" d="M 54.3 51.7 C 54.7 51.7 54.9 51.9 54.9 52.3 C 54.4 52.3 54.3 52.3 54.1 52 L 54.3 51.7 Z" style="stroke: rgb(0, 0, 0);"/>
      <path fill-rule="evenodd" class="b" d="M 56.9 50.7 C 56.7 50.5 56.3 49.7 56.3 49.4 C 56.7 49.4 56.6 49.6 56.8 49.8 L 56.9 50.7 Z" style="stroke: rgb(0, 0, 0);"/>
      <path fill-rule="evenodd" class="b" d="M 49.6 37.7 C 49.2 37.5 49.1 37.5 49.2 37.2 C 49.5 37.2 50.2 37.6 50.2 37.9 C 49.8 37.9 49.9 37.8 49.6 37.7 Z" style="stroke: rgb(0, 0, 0);"/>
      <path fill-rule="evenodd" class="b" d="M 49.6 37 C 49.8 37.2 50.3 37.6 50.6 37.7 C 50.6 37.3 49.9 36.5 49.6 37 Z" style="stroke: rgb(0, 0, 0);"/>
      <path fill-rule="evenodd" class="b" d="M 48.9 38.7 C 48.6 38.9 48.2 38.9 47.8 38.7 L 47.9 38.4 C 48.1 38.3 48.7 38.5 48.9 38.7 Z" style="stroke: rgb(0, 0, 0);"/>
      <path fill-rule="evenodd" class="b" d="M 54.9 42.9 C 54.9 42.9 54.9 42.9 54.9 42.9 L 54.9 43 C 54.9 43.1 54.9 43.1 55 43.2 C 55 43.3 54.2 44 54.1 44.1 C 54.1 43.7 54.6 43 54.9 42.9 Z" style="stroke: rgb(0, 0, 0);"/>
      <path fill-rule="evenodd" class="b" d="M 52.7 49.2 C 52.7 48.4 53.1 48.7 53.6 48.7 L 53.5 48.8 C 53.5 48.8 53.467 48.8 53.4 48.8 C 53.2 48.9 53.4 48.7 53.1 48.9 C 53 49.3 53.2 49.3 53.5 49.3 C 53.3 49.6 52.9 49.4 52.7 49.2 Z" style="stroke: rgb(0, 0, 0);"/>
      <path fill-rule="evenodd" class="b" d="M 55.6 49.5 L 56 49.5 C 56.2 49.9 56.3 50.2 56.2 50.6 L 55.6 49.5 Z" style="stroke: rgb(0, 0, 0);"/>
      <path fill-rule="evenodd" class="b" d="M 53 51 C 52.9 51.4 53.1 51.6 53.5 51.6 C 53.8 51.2 53.4 50.9 53 51 Z" style="stroke: rgb(0, 0, 0);"/>
      <path fill-rule="evenodd" class="b" d="M 56.8 45.9 C 56.1 45.5 56 46.6 56.8 46.3 C 56.9 46 56.9 46.2 56.8 45.9 Z" style="stroke: rgb(0, 0, 0);"/>
      <path fill-rule="evenodd" class="b" d="M 59.6 47.7 C 59.6 48.1 59.6 47.8 59.7 47.9 C 59.8 48.2 59.7 48.3 59.6 48.6 C 59.3 48.9 59.6 48.9 59.3 48.9 L 59.3 48.7 L 59.4 47.8 L 59.6 47.7 Z" style="stroke: rgb(0, 0, 0);"/>
      <path fill-rule="evenodd" class="b" d="M 40 33.5 L 40.3 33.6 C 40.4 33.8 40.5 33.8 40.7 34.1 L 40.3 34.4 C 40.1 34.1 40 33.9 40 33.5 Z" style="stroke: rgb(0, 0, 0);"/>
      <path fill-rule="evenodd" class="b" d="M 48.4 38 C 48.4 38.4 48.9 38.4 49.3 38.3 C 49.2 38.1 48.6 37.7 48.4 38 Z" style="stroke: rgb(0, 0, 0);"/>
      <path fill-rule="evenodd" class="b" d="M 54.3 42.6 C 54.4 42.2 54.3 41.6 53.9 41.5 C 53.8 41.7 54 42.4 54.3 42.6 Z" style="stroke: rgb(0, 0, 0);"/>
      <path fill-rule="evenodd" class="b" d="M 47.8 29.9 C 47.6 30.3 47.9 30.5 48.2 30.7 C 48.2 30.3 48.3 29.8 47.8 29.9 Z" style="stroke: rgb(0, 0, 0);"/>
      <path fill-rule="evenodd" class="b" d="M 59.1 49.2 L 59.2 49.6 C 59.2 50 59.2 50.1 59 50.4 L 58.9 49.7 C 59 49.2 58.6 49.3 59.1 49.2 L 59.1 49.2 Z" style="stroke: rgb(0, 0, 0);"/>
      <path fill-rule="evenodd" class="b" d="M 49.7 38.2 C 49.6 37.8 49.2 37.5 48.8 37.6 C 48.8 37.9 49.4 38.1 49.7 38.2 Z" style="stroke: rgb(0, 0, 0);"/>
      <path fill-rule="evenodd" class="b" d="M 40.6 34.9 L 40.9 34.9 L 41.3 35.7 C 40.8 35.7 41.1 35.5 40.8 35.4 L 40.6 34.9 Z" style="stroke: rgb(0, 0, 0);"/>
      <path fill-rule="evenodd" class="b" d="M 57 48.8 C 57.3 48.5 57.6 47.9 57.1 47.7 C 56.9 48 57 48.4 57 48.8 Z" style="stroke: rgb(0, 0, 0);"/>
      <path fill-rule="evenodd" class="b" d="M 47.3 30.3 C 47.2 30.6 47.4 30.8 47.7 30.9 C 47.8 30.5 47.7 30.1 47.3 30.3 Z" style="stroke: rgb(0, 0, 0);"/>
      <path fill-rule="evenodd" class="b" d="M 55.8 50.4 L 55.1 49.6 L 55.4 49.5 C 55.6 49.8 55.8 50.1 55.8 50.4 L 55.8 50.4 Z" style="stroke: rgb(0, 0, 0);"/>
      <path fill-rule="evenodd" class="b" d="M 54.4 49 C 54.6 49 55 48.8 55.1 48.5 C 54.6 48.4 54.4 48.6 54.4 49 Z" style="stroke: rgb(0, 0, 0);"/>
      <path fill-rule="evenodd" class="b" d="M 40.4 35.2 L 40.7 35.4 C 40.8 35.7 40.9 35.8 40.8 36.1 L 40.4 35.5 L 40.4 35.2 Z" style="stroke: rgb(0, 0, 0);"/>
      <path fill-rule="evenodd" class="b" d="M 44.5 31.7 C 44.3 32 44.6 32.1 44.9 32.4 C 44.9 32.1 44.9 31.6 44.5 31.7 Z" style="stroke: rgb(0, 0, 0);"/>
      <path fill-rule="evenodd" class="b" d="M 56.6 44.4 L 56.9 44.5 C 57.1 44.9 56.8 45.1 56.4 45.2 C 56.6 44.9 56.8 44.8 56.6 44.4 L 56.6 44.4 Z" style="stroke: rgb(0, 0, 0);"/>
      <path fill-rule="evenodd" class="b" d="M 44.2 31.9 C 44.5 32.1 44.5 32.4 44.5 32.7 L 44 32.2 L 44.2 31.9 Z" style="stroke: rgb(0, 0, 0);"/>
      <path fill-rule="evenodd" class="b" d="M 41.9 34.7 C 41.9 34.4 41.8 34.2 41.5 34.1 C 41.3 34.4 41.6 34.6 41.9 34.7 Z" style="stroke: rgb(0, 0, 0);"/>
      <path fill-rule="evenodd" class="b" d="M 42.5 33.1 C 42.4 33.4 42.8 33.7 43 33.8 C 42.9 33.4 42.9 33 42.5 33.1 Z" style="stroke: rgb(0, 0, 0);"/>
      <path fill-rule="evenodd" class="b" d="M 54.6 50.9 C 54.4 50.7 54.2 50.5 54.2 50.3 C 54.2 50 54.5 50 54.8 50.1 L 54.6 49.9 C 53.8 49.9 54 50.7 54.6 50.9 L 54.6 50.9 Z" style="stroke: rgb(0, 0, 0);"/>
      <path fill-rule="evenodd" class="b" d="M 58.6 38.2 C 58.4 37.9 58.5 37.8 58.5 37.5 L 58.7 37.5 C 58.8 37.9 58.9 38.1 58.6 38.2 Z" style="stroke: rgb(0, 0, 0);"/>
      <path fill-rule="evenodd" class="b" d="M 57.8 45.6 L 57.6 45.1 L 57.8 44.9 C 57.3 45.1 57.4 45.5 57.8 45.6 Z" style="stroke: rgb(0, 0, 0);"/>
      <path fill-rule="evenodd" class="b" d="M 37.5 33.8 L 37.7 33.8 L 37.6 34.3 L 37.5 34.4 L 37.5 34 L 37.2 34 L 37.5 33.9 L 37.5 33.8 Z" style="stroke: rgb(0, 0, 0);"/>
      <path fill-rule="evenodd" class="b" d="M 55.3 58 L 55.2 58.4 L 55 58.4 L 55 58.1 C 55.2 58 55.1 58.1 55.3 58 L 55.3 58 Z" style="stroke: rgb(0, 0, 0);"/>
      <path fill-rule="evenodd" class="b" d="M 57.9 34.5 L 58.2 35 L 58.1 35.1 C 57.9 34.9 57.9 34.8 57.9 34.5 L 57.9 34.5 Z" style="stroke: rgb(0, 0, 0);"/>
      <path fill-rule="evenodd" class="b" d="M 48.2 25.7 L 48.3 26 L 47.8 25.8 C 48.2 25.8 47.9 25.9 48.2 25.7 Z" style="stroke: rgb(0, 0, 0);"/>
      <path fill-rule="evenodd" class="b" d="M 51.3 20.2 L 51.6 20.5 L 51.6 20.6 L 51.2 20.3 L 51.3 20.2 Z" style="stroke: rgb(0, 0, 0);"/>
      <path fill-rule="evenodd" class="b" d="M 43.8 35.1 C 44.3 35 44 35 44.1 35.1 L 43.9 35.2 L 43.9 35.3 L 43.8 35.1 Z" style="stroke: rgb(0, 0, 0);"/>
      <path fill-rule="evenodd" class="b" d="M 58.1 50.9 L 58.1 51.1 L 57.9 51.1 L 57.9 51 L 58.1 50.9 Z" style="stroke: rgb(0, 0, 0);"/>
      <path fill-rule="evenodd" class="b" d="M 39.9 54.7 C 40.3 54.8 40 54.7 40.2 54.9 L 40 54.8 L 40 55 C 39.9 54.9 40 55.1 39.9 54.7 L 39.9 54.7 Z" style="stroke: rgb(0, 0, 0);"/>
      <path fill-rule="evenodd" class="b" d="M 48.3 29.6 L 48.4 29.5 C 48.5 29.7 48.4 29.6 48.5 29.7 L 48.2 29.7 L 48.3 29.6 Z" style="stroke: rgb(0, 0, 0);"/>
      <path fill-rule="evenodd" class="b" d="M 44 24.4 L 44.2 24.4 L 44.2 24.6 C 44 24.5 44.1 24.7 44 24.4 Z" style="stroke: rgb(0, 0, 0);"/>
      <path fill-rule="evenodd" class="b" d="M 49.6 17.4 L 49.6 17.6 L 49.4 17.5 C 49.6 17.5 49.5 17.6 49.6 17.4 L 49.6 17.4 Z" style="stroke: rgb(0, 0, 0);"/>
      <path fill-rule="evenodd" class="b" d="M 52.1 23.5 L 51.9 23.7 L 51.8 23.6 C 52 23.4 51.8 23.5 52.1 23.5 L 52.1 23.5 Z" style="stroke: rgb(0, 0, 0);"/>
      <path fill-rule="evenodd" class="b" d="M 45.6 52.8 L 45.1 52.4 C 45.3 52.7 45.3 52.6 45.6 52.8 Z" style="stroke: rgb(0, 0, 0);"/>
      <path fill-rule="evenodd" class="b" d="M 50.1 23.7 L 50.4 23.8 L 50.3 24 C 50.2 23.8 50.3 23.9 50.1 23.7 L 50.1 23.7 Z" style="stroke: rgb(0, 0, 0);"/>
      <path fill-rule="evenodd" class="b" d="M 47.1 28.2 L 47.2 28 C 47.3 28.3 47.2 28.1 47.4 28.3 L 47.1 28.2 Z" style="stroke: rgb(0, 0, 0);"/>
      <path fill-rule="evenodd" class="b" d="M 58.7 37.4 L 58.7 37.5 L 58.5 37.5 L 58.7 37.4 Z" style="stroke: rgb(0, 0, 0);"/>
      <path fill-rule="evenodd" class="b" d="M 40.7 31 L 40.9 31 L 40.8 31.2 C 40.7 31.1 40.8 31.1 40.7 31 Z" style="stroke: rgb(0, 0, 0);"/>
    </g>
  </g>
</svg>