<?xml version="1.0" encoding="utf-8"?>
<!-- Generator: Adobe Illustrator 23.0.3, SVG Export Plug-In . SVG Version: 6.00 Build 0)  -->
<svg version="1.1" xmlns="http://www.w3.org/2000/svg" xmlns:xlink="http://www.w3.org/1999/xlink" x="0px" y="0px"
	 viewBox="0 0 539.2 550.7" style="enable-background:new 0 0 539.2 550.7;" xml:space="preserve">
<style type="text/css">
	.st0{fill:#202124;}
	.st1{fill:#DDDDDD;}
	.st2{fill:#FFFFFF;stroke:#202124;stroke-width:0.75;stroke-miterlimit:10;}
	.st3{fill:#5492ED;}
	.st4{fill:#EB506E;}
	.st5{fill:none;stroke:#202124;stroke-width:0.75;stroke-miterlimit:10;}
	.st6{fill:#B1CEFC;}
	.st7{fill:none;}
	.st8{fill:#F7CD5B;}
	.st9{fill:#F4F4F4;}
	.st10{fill:#FFFFFF;}
	.st11{fill:#040844;}
</style>
<g id="background">
	<g id="table">
		<rect x="106.6" y="329.8" class="st0" width="6.1" height="220.9"/>
		<rect x="9.1" y="309.2" class="st0" width="5.4" height="212.1"/>
		<rect x="226.3" y="258.2" class="st0" width="5.4" height="212.1"/>
		<rect x="327.5" y="275.6" class="st0" width="5.4" height="212.1"/>
		<path class="st0" d="M1.9,308.2c1.4,0,106.5,29.9,106.5,29.9l228.8-59.7c-0.2-1.5-0.4-3-0.6-4.4c-38.5-5.3-77-10.7-115.5-16
			c-72.6,15.4-145.2,30.8-217.7,46.2C2.9,305.5,2.4,306.8,1.9,308.2z"/>
		<path class="st1" d="M3.3,304.1c1.4,0,106.5,29.9,106.5,29.9l228.8-59.7c-38.7-6.8-77.4-13.6-116.1-20.5
			C149.4,270.6,76.3,287.4,3.3,304.1z"/>
	</g>
	<g id="voffee">
		<polygon class="st2" points="41.6,303.4 70.6,317.4 99.7,301.5 71.5,294.9 		"/>
		<path class="st3" d="M56.4,275.6c-0.8,1.5,5.3,31.5,5.3,31.5h16.7l3.8-31.5H56.4z"/>
		<rect x="54.7" y="273.4" class="st4" width="28.8" height="3"/>
		<rect x="62.1" y="269.2" class="st4" width="13.6" height="5.2"/>
	</g>
	<g id="keyboard">
		<path class="st2" d="M106.6,291.4l41.3,14.8L258,276.4c-13.3-3.7-26.5-7.3-39.8-11C181,274,143.8,282.7,106.6,291.4z"/>
		<line class="st5" x1="112.7" y1="290" x2="155.3" y2="304.2"/>
		<line class="st5" x1="123.6" y1="287.4" x2="165.1" y2="301.5"/>
		<line class="st5" x1="133.6" y1="285.1" x2="174.9" y2="298.9"/>
		<line class="st5" x1="143.2" y1="282.9" x2="183.3" y2="296.6"/>
		<line class="st5" x1="141.4" y1="303.9" x2="252.3" y2="274.8"/>
		<line class="st5" x1="136.4" y1="302.1" x2="246.5" y2="273.2"/>
		<line class="st5" x1="131.3" y1="300.3" x2="240" y2="271.4"/>
		<line class="st5" x1="127.1" y1="298.7" x2="234.8" y2="270"/>
		<line class="st5" x1="122.8" y1="297.1" x2="229" y2="268.3"/>
		<line class="st5" x1="118.7" y1="295.7" x2="224.6" y2="267.1"/>
		<line class="st5" x1="114.4" y1="293.9" x2="220.6" y2="266"/>
		<line class="st5" x1="151.9" y1="280.8" x2="184.6" y2="292"/>
		<line class="st5" x1="163.2" y1="278.2" x2="193.4" y2="289.7"/>
		<line class="st5" x1="175.9" y1="275.2" x2="202.6" y2="287.6"/>
		<line class="st5" x1="185.7" y1="273" x2="211.1" y2="285.6"/>
		<line class="st5" x1="194" y1="271" x2="223.3" y2="285.1"/>
		<line class="st5" x1="202.9" y1="269" x2="232.3" y2="282.7"/>
		<line class="st5" x1="210.4" y1="267.2" x2="242.8" y2="280.5"/>
	</g>
	<g id="plant">
		<polygon class="st0" points="141.6,479.3 154.3,547.5 208.7,547.5 217.6,479.3 		"/>
		<ellipse class="st2" cx="179.2" cy="480.3" rx="37.6" ry="5"/>
		<g>
			<g>
				<path class="st3" d="M165.2,428.4c-6,7.3-4.2,16.1,2.3,22.4c4,3.9,8.9,6.9,11.7,11.8c3.4,6,3.5,13.1,3.6,19.8c0,1.9,3,1.9,3,0
					c-0.1-8.9-0.7-18.2-6.8-25.2c-6.5-7.4-21.2-15.1-11.6-26.7C168.5,429,166.4,426.9,165.2,428.4L165.2,428.4z"/>
			</g>
		</g>
		<g>
			<g>
				<path class="st3" d="M184.6,416.7c-0.3,3.2,1,5.2,2.4,7.9c2.2,4.4,2.1,8.7,0.3,13.3c-2.7,6.4-8.8,10.5-10.9,17.2
					c-0.6,1.8,2.3,2.6,2.9,0.8c2.4-7.3,9.5-11.7,11.7-19.2c0.8-2.7,1.1-5.5,0.6-8.3c-0.7-4.1-4.3-7.5-3.9-11.7
					C187.8,414.7,184.8,414.7,184.6,416.7L184.6,416.7z"/>
			</g>
		</g>
		<g>
			<g>
				<path class="st3" d="M152.9,408.8c-5.6,5.8-8,18.1-5.5,25.7c2.6,8.1,10.8,11.9,18.2,14.5c1.8,0.7,2.6-2.2,0.8-2.9
					c-6.4-2.3-13.7-5.5-16.1-12.4c-2.1-6.2,0.1-17.9,4.8-22.8C156.4,409.6,154.3,407.4,152.9,408.8L152.9,408.8z"/>
			</g>
		</g>
		<g>
			<g>
				<path class="st3" d="M186.4,471.6c0.2-4.4,9.6-8.7,12.3-12.1c2.9-3.6,4.1-7.7,2.9-12.2c-0.5-1.9-3.4-1.1-2.9,0.8
					c1.9,7.5-4.8,12.2-10.1,16c-2.7,2-5.1,3.8-5.3,7.4C183.3,473.5,186.3,473.5,186.4,471.6L186.4,471.6z"/>
			</g>
		</g>
		<g>
			<g>
				<path class="st3" d="M177.6,406.3c-2.8,5.2-3.2,11.1-1.2,16.8c0.7,2,1.7,4.1,3.2,5.7c2.3,2.5,5.7,3.4,7.9,5.9
					c1.3,1.4,3.4-0.7,2.1-2.1c-2.8-3.2-7.2-4.1-9.3-7.9c-2.9-5.2-2.8-11.6-0.1-16.8C181.1,406.1,178.5,404.6,177.6,406.3
					L177.6,406.3z"/>
			</g>
		</g>
		<path class="st3" d="M148.2,420.8c-1.4-1.3-3-3.2-4.2-5.6c-4.2-8.4-1.2-17-0.4-19.1c1.4,1.6,2.9,3.8,4,6.6
			C150.8,410.6,149,418,148.2,420.8z"/>
		<path class="st3" d="M154,409.9c-0.8-1.6-1.8-4.4-1.4-7.7c0.7-5.7,5.5-10.6,12-12.6c0.2,2,0.3,5.1-0.8,8.6
			C161.5,405.4,155.7,408.9,154,409.9z"/>
		<path class="st3" d="M150.1,436.9c-0.8-0.2-8-1.8-11.3-8.8c-2.6-5.5-1-10.7-0.6-11.8c1.6,1.8,3.2,3.8,4.8,6.2
			C146.5,427.7,148.7,432.7,150.1,436.9z"/>
		<path class="st3" d="M161.2,445.7c-1.4-1.1-5.4-4.4-7-10.3c-2.2-8.4,2.3-15.1,3-16c0.8,2.9,1.6,6,2.2,9.4
			C160.6,435,161.1,440.7,161.2,445.7z"/>
		<path class="st3" d="M177.3,457.7c-1.8,0.8-8.6,3.5-14.9,0.2c-4.2-2.2-7.5-6.7-6.6-8c1-1.5,7.3,0.9,10.6,2.2
			C171.2,453.9,174.9,456.1,177.3,457.7z"/>
		<path class="st3" d="M168.6,448.7c-0.4-1.2-1-3.7-0.2-6.6c1.3-5.2,5.9-7.6,6.6-8c0.4,1.2,1,3.2,0.6,5.6
			C174.8,445.5,169.3,448.4,168.6,448.7z"/>
		<path class="st3" d="M164.9,431.2c-0.9-1.6-2-4-2.3-7.1c-0.6-6.8,3-13.7,4.8-13.4c1.5,0.2,1.9,4.9,2,5.8
			C170.1,423.2,166.8,428.6,164.9,431.2z"/>
		<path class="st3" d="M189,425.2c-0.4-1.7-1-5.2,0.5-9.2c2.8-7.5,10.5-9.8,11.4-10c-0.2,2-0.7,4.5-1.8,7.2
			C196.4,419.9,191.4,423.6,189,425.2z"/>
		<path class="st3" d="M177.5,410.1c-1-1.4-2.1-3.2-2.8-5.6c-2.3-8.2,2.7-15.4,3.6-16.7c0.9,1.6,1.9,3.7,2.4,6.4
			C182.1,402,178.7,408.2,177.5,410.1z"/>
		<path class="st3" d="M186.4,467.9c-0.2-1.4-0.4-3-0.3-4.7c0.2-7.8,4.2-13.7,6.4-16.5c0.4,1.2,0.7,2.6,0.8,4
			C194,459.2,188.4,465.8,186.4,467.9z"/>
		<path class="st3" d="M200.3,453.1c-0.6-1.9-1.8-6.6-0.2-12.2c2.2-7.6,8-11.3,9.4-12.2c0.1,2.5-0.1,5.8-1,9.4
			C206.7,445.5,202.7,450.5,200.3,453.1z"/>
	</g>
</g>
<g id="girl">
	<g id="tab">
		<path class="st1" d="M17,51.9c0,3.1,7.6,196.2,7.6,196.2l229.5-72.9L249.4,3.4L17,51.9z"/>
	</g>
	<g id="torso_1_">
		<path class="st6" d="M39.1,94.4c2.4-1.6,6-3.9,10.3-6.5c10.1-6.2,24-14.8,41-22.5c9.2-4.2,21-9.5,37.5-13.5
			C144.1,48,158,47.1,168,47c0.1,3.3,0.1,8.1,0,13.8c-0.3,19.9-1.9,38.2-5.6,63.8c-4.6,32.1-10.5,61.4-15.6,84.6
			c-24.1,7.2-48.3,14.4-72.4,21.6c-2-4.8-4.7-11.5-7.6-19.6c-10.2-28.3-15.3-50.7-18.6-65.8C45.2,131.9,41.9,114.6,39.1,94.4z"/>
		<g>
			<path class="st7" d="M39.1,94.4c18.4-11.9,37.3-23.2,57.5-31.8s41.6-14.6,63.6-15.6"/>
		</g>
		<g>
			<path class="st7" d="M168.3,54.9c-1.6,49.4-8.5,98.5-20.4,146.4"/>
		</g>
		<g>
			<g>
				<path class="st0" d="M41.5,108.5c5.5,40.5,15.9,80.3,30.8,118.4c0.2,0.4,0.9,0.3,0.7-0.2c-14.9-38.1-25.3-77.8-30.8-118.4
					C42.2,107.9,41.4,108.1,41.5,108.5L41.5,108.5z"/>
			</g>
		</g>
	</g>
	<g id="head_1_">
		<path class="st0" d="M105.5,40.7c0.6-1.8,1.3-4.8,1-8.4c-0.5-6.5-3.7-10.8-4.9-12.3c-1.3-1.6-7.1-9.2-14.1-8.3
			c-0.7,0.1-4.2,0.5-5.9,3c-1.2,1.8-0.4,3.1-1.5,4.9c-1.1,1.8-3.3,2.6-7.5,3.2c-5.9,0.9-10.4,0.6-12.1,0.6
			c-12.7-0.1-22.7,12.1-24,13.7c-1.7,2.1-6.3,8.1-7.5,17.3c-0.4,2.9-1.3,11.6,4.1,20.4C34,76,40.1,85.6,52.3,88.4
			c10.4,2.3,18.7-1.8,23.2-4.1c7.3-3.6,11.6-8.4,14.4-11.7C99.9,61.4,103.8,48.9,105.5,40.7z"/>
		<path class="st0" d="M96.2,64.4c-0.5-1-1.2-2.5-1.6-4.5c-1-4.8,0.5-8.8,1.3-10.9c2.4-6,6.6-9.4,10.1-12.4
			c2.9-2.3,7.6-6.1,14.9-8.1c3.7-1,10.2-2.8,17-0.1c2.2,0.9,5.9,2.4,7.3,6c1.7,4.2-0.8,8.5-1.7,10.1c-3.3,5.7-9,7.9-12.8,9.3
			c-6.8,2.5-9.6,1.3-16.6,2.8C109.8,57.6,103.4,59.5,96.2,64.4z"/>
		<path class="st8" d="M127.3,55.3c0.1,1.5,0.1,3.8-0.4,6.5c-0.5,2.9-1.4,7.6-5.1,11.5c-0.9,1-2.8,2.8-5.8,3.9
			c-5,1.7-9.4,0-10.2-0.4c-4.5-1.9-6.6-5.5-7.4-7.1c-1.1-2-1.6-3.8-1.9-5.1c0.6-1.3,1.1-2.5,1.7-3.8c4.2-1.9,7.7-2.8,10.1-3.2
			c2.7-0.5,4.4-0.6,9.6-1.2C121.8,56,125.1,55.6,127.3,55.3z"/>
		<ellipse class="st0" cx="110.9" cy="61.4" rx="0.9" ry="1.7"/>
		<g>
			<path class="st7" d="M99.1,70.9c1.8,3.2,4.8,5.6,8.3,6.6s7.3,0.6,10.5-1.1c3.5-1.9,6.1-5.4,7.6-9.1c1.5-3.8,1.9-7.9,1.8-11.9"/>
		</g>
		<g>
			<g>
				<path class="st0" d="M98.1,61.5c13-6.7,30-2.3,41.6-12c6.7-5.7,9.6-17.2-0.5-20.9C120.7,21.7,84.4,42.6,96,64.9
					c0.1,0.2,0.5,0.3,0.6,0c0.6-1.3,1.1-2.5,1.7-3.8c0.2-0.4-0.5-0.8-0.6-0.4c-0.6,1.3-0.4,2.7-1.7,1.8c-1-0.7-1-2.7-1.2-3.7
					c-0.4-3.5,0.2-7.1,1.7-10.3c2.4-5.1,6.6-9.3,11.1-12.6c8.1-5.7,20.3-9.9,30.2-7.1c8.2,2.3,9,10.9,4.3,17
					c-3.6,4.7-9.2,7.2-14.9,8.5c-9.9,2.3-20.2,1.6-29.5,6.4C97.3,61.1,97.7,61.7,98.1,61.5L98.1,61.5z"/>
			</g>
		</g>
		<g>
			<g>
				<path class="st0" d="M118.2,57.7c0.5,2.8,2.2,10.2-0.9,12.1c-0.4,0.3,0,0.9,0.4,0.6c1.5-0.9,1.9-2.3,2-4c0.2-3-0.2-6.1-0.7-9
					C118.9,57,118.1,57.2,118.2,57.7L118.2,57.7z"/>
			</g>
		</g>
		<g>
			<g>
				<path class="st0" d="M106.8,35.7c0.5-6.5-1.8-12.8-6.3-17.6c-3.5-3.7-10.8-8.6-16.2-6.8c-2.2,0.7-2.7,2.3-3.3,4.3
					c-1.1,3.2-2,5.5-5.6,6.5c-2.2,0.6-4.7,0.2-7,0.2c-7.7,0-15.4,1.9-22,5.8C33.9,35.5,26.3,50.2,29,64.7
					c2.6,13.9,15.2,24.9,29.4,24.6c16.3-0.4,32.7-11.7,37.5-27.4c0.1-0.5-0.6-0.7-0.7-0.2c-5.3,17.2-26.5,30.9-44.5,26
					c-19.4-5.3-26.3-27.9-17.5-44.7c4.3-8.2,11.9-14.3,20.6-17.4c4.4-1.6,9.1-2.4,13.8-2.4c3,0,6.2,0.4,9.1-0.5
					c1.6-0.5,2.9-1.4,3.8-2.8c0.7-1.2,0.6-2.7,1.2-3.9c2.4-5,5.9-4.2,9.8-2.8c9.3,3.4,15.3,13,14.6,22.7
					C106,36.2,106.8,36.2,106.8,35.7L106.8,35.7z"/>
			</g>
		</g>
	</g>
	<g id="certificate">
		<path class="st9" d="M164.1,46c0.4,5.5,0.8,11.1,1.3,16.7c3.5,38.5,9.5,74.8,17.1,108.7c2.8-1.5,6.7-3.7,11.5-6.3
			c18-9.9,32.7-17.9,47.9-26.7c9.3-5.4,21.9-12.9,36.7-22.3c-0.2-6.5-0.3-13-0.4-19.5c-0.4-28.7-0.3-56.8,0.4-84.3
			c-17.3,3.3-36.1,7.7-55.9,13.5C201.3,32.1,181.7,39,164.1,46z"/>
		<g>
			<path class="st7" d="M164.1,46c3,41.5,8.7,82.9,17.1,123.6"/>
		</g>
		<g>
			<path class="st7" d="M165.6,44.8c35.7-12.5,71.5-25.1,108.9-31.1"/>
		</g>
		<g>
			<path class="st7" d="M278.3,16.4c0,32.6,0,65.2-0.1,97.8"/>
		</g>
		<g>
			<path class="st7" d="M182.6,171.4c31.9-17.3,63.5-35.1,94.8-53.4"/>
		</g>
		<g>
			<g>
				<path class="st0" d="M221.4,39c0.1,2.7,0.3,5.4,0.4,8.1c0,0.5,0.8,0.5,0.8,0c-0.1-2.7-0.3-5.4-0.4-8.1
					C222.1,38.5,221.4,38.5,221.4,39L221.4,39z"/>
			</g>
		</g>
		<g>
			<g>
				<path class="st0" d="M222.8,38.4c16.1-5.2,32.2-10.4,48.3-15.6c0.5-0.1,0.3-0.9-0.2-0.7c-16.1,5.2-32.2,10.4-48.3,15.6
					C222.2,37.8,222.4,38.5,222.8,38.4L222.8,38.4z"/>
			</g>
		</g>
		<g>
			<g>
				<path class="st0" d="M224.5,46.8c14.8-5.3,29.6-10.5,44.4-15.8c0.5-0.2,0.3-0.9-0.2-0.7c-14.8,5.3-29.6,10.5-44.4,15.8
					C223.9,46.2,224.1,46.9,224.5,46.8L224.5,46.8z"/>
			</g>
		</g>
		<g>
			<g>
				<path class="st0" d="M270.6,23.9c-0.1,1.7-0.1,3.4,0.1,5.1c0.1,0.5,0.8,0.5,0.8,0c-0.2-1.7-0.3-3.4-0.1-5.1
					C271.4,23.4,270.7,23.4,270.6,23.9L270.6,23.9z"/>
			</g>
		</g>
		<g>
			<g>
				<path class="st0" d="M215.3,56.5c0.2,1.3,0.3,2.5,0.5,3.8c0.1,0.5,0.8,0.5,0.8,0c-0.2-1.3-0.3-2.5-0.5-3.8
					C216,56,215.2,56,215.3,56.5L215.3,56.5z"/>
			</g>
		</g>
		<g>
			<g>
				<path class="st0" d="M216.2,56.4c17.3-5.4,34.4-11.3,51.4-17.7c0.4-0.2,0.3-0.9-0.2-0.7c-17,6.4-34.1,12.3-51.4,17.7
					C215.5,55.8,215.7,56.6,216.2,56.4L216.2,56.4z"/>
			</g>
		</g>
		<g>
			<g>
				<path class="st0" d="M216.8,61.2c17-6,33.9-11.9,50.9-17.9c0.5-0.2,0.3-0.9-0.2-0.7c-17,6-33.9,11.9-50.9,17.9
					C216.1,60.6,216.3,61.4,216.8,61.2L216.8,61.2z"/>
			</g>
		</g>
		<g>
			<g>
				<path class="st0" d="M267.1,39c-0.2,1.3,0,2.5,0.6,3.7c0.2,0.4,0.8,0.1,0.6-0.4c-0.5-1.1-0.6-2.2-0.5-3.3
					C267.9,38.5,267.2,38.5,267.1,39L267.1,39z"/>
			</g>
		</g>
		<g>
			<g>
				<path class="st0" d="M192.9,126.6c25.1-12,50.4-23.4,76-34.2c0.4-0.2,0.2-0.9-0.2-0.7C243,102.6,217.6,114,192.5,126
					C192.1,126.2,192.4,126.8,192.9,126.6L192.9,126.6z"/>
			</g>
		</g>
		<g>
			<g>
				<path class="st0" d="M196.1,130.8c11.4-4.6,22.7-9.6,33.8-14.9c0.4-0.2,0.1-0.9-0.4-0.6c-11.1,5.3-22.3,10.2-33.6,14.9
					C195.4,130.2,195.6,130.9,196.1,130.8L196.1,130.8z"/>
			</g>
		</g>
		<g>
			<g>
				<path class="st0" d="M200.5,139c20.8-10.5,41.7-21,62.5-31.5c0.4-0.2,0.1-0.9-0.4-0.6c-20.8,10.5-41.7,21-62.5,31.5
					C199.6,138.5,200,139.2,200.5,139L200.5,139z"/>
			</g>
		</g>
	</g>
	<g id="hand_1_">
		<path class="st8" d="M163.4,153.9c0.8-1.4,1.8-3,3-4.7c3.2-4.1,6.7-6.6,9.4-8.2c0.2,2.1,0.4,4.2,0.6,6.4c1.2-0.5,2.6-1.1,4-2
			c2.4-1.4,4.4-3,5.8-4.3c0.7,0.8,1.5,2,2.1,3.6c1.1,2.8,1,5.3,0.8,6.6c-0.5,1.3-1.2,3-2.2,4.8c-2,3.6-4.3,5.9-4.7,6.4
			c-2.8,2.9-5.5,4.4-7.7,5.6c-4,2.2-6,3.3-7.5,2.8C163.8,169.9,162.5,162.9,163.4,153.9z"/>
		<path class="st6" d="M39.1,94.4c-0.1,2-0.2,4.9-0.3,8.5c-0.3,11.4-0.1,22.4,0.4,29.6c1.6,24,8.2,47.2,9.2,50.5
			c6.7,23.1,15.5,40.5,21.3,50.8c1.8,3.2,3.4,5.8,4.5,7.7c1.3,0.7,4.1,2.1,7.9,2.1c3.5-0.1,6-1.5,10.2-4.1
			c6.9-4.3,10.4-6.4,12.9-8.4c9-7.1,15.5-13.7,19.1-17.2c1.6-1.6,14.9-14.9,23.4-22.9c5.5-5.2,13.6-12.6,24.3-21.1
			c-0.1-1.7-0.4-3.8-1.2-6.2c-1.7-4.9-4.7-8-6.4-9.5c-6.1,3.1-12.4,6.2-18.9,9.3c-14.2,6.7-28.1,12.6-41.5,17.8
			c-1.4-5.1-2.8-10.4-4.1-15.8c-5.4-23.2-8.1-45-9-64.8c-0.9-2.3-1.8-4.5-2.6-6.8c-4.7-1.9-11.4-4-19.7-4.5
			C55.2,88.5,44.8,92,39.1,94.4z"/>
		<g>
			<path class="st7" d="M39.1,98.3c-3.4,49.8,9.1,100.6,35.1,143.2"/>
		</g>
		<g>
			<g>
				<path class="st10" d="M91.2,111.8c2,23.4,6,46.5,12.1,69.1c0.1,0.5,0.8,0.3,0.7-0.2C98,158.2,94,135.1,92,111.8
					C91.9,111.4,91.2,111.4,91.2,111.8L91.2,111.8z"/>
			</g>
		</g>
		<g>
			<g>
				<path class="st10" d="M104.6,181.2c20-8.9,40-17.9,60-26.8c0.4-0.2,0.1-0.8-0.4-0.6c-20,8.9-40,17.9-60,26.8
					C103.7,180.8,104.1,181.4,104.6,181.2L104.6,181.2z"/>
			</g>
		</g>
		<g>
			<path class="st7" d="M76.9,242.9c3,1.6,6.8,0.5,9.9-0.8c19.2-8.2,33.5-24.5,48.3-39.2c11.3-11.2,23.2-21.7,35.1-32.2"/>
		</g>
		<g>
			<g>
				<path class="st0" d="M165.1,155.9c3.7,3,5.8,7.3,5.9,12.1c0,0.5,0.8,0.5,0.8,0c0-5-2.2-9.5-6.1-12.6
					C165.2,155.1,164.7,155.6,165.1,155.9L165.1,155.9z"/>
			</g>
		</g>
		<g>
			<g>
				<path class="st0" d="M164.6,152.7c2.6-4.5,6.2-8.1,10.5-10.9c0.4-0.3,0-0.9-0.4-0.6c-4.4,2.9-8.1,6.6-10.8,11.2
					C163.7,152.8,164.3,153.2,164.6,152.7L164.6,152.7z"/>
			</g>
		</g>
		<g>
			<g>
				<path class="st0" d="M170.9,148.6c6.2,0.4,11.1-3.4,15.6-7.1c0.4-0.3-0.2-0.8-0.5-0.5c-4.4,3.6-9.1,7.3-15.1,6.9
					C170.4,147.8,170.4,148.5,170.9,148.6L170.9,148.6z"/>
			</g>
		</g>
		<g>
			<g>
				<path class="st0" d="M187,141.9c-1.7,3.9-4.5,7.1-8.3,9.2c-0.4,0.2,0,0.9,0.4,0.6c3.8-2.2,6.8-5.4,8.5-9.4
					C187.8,141.8,187.2,141.4,187,141.9L187,141.9z"/>
			</g>
		</g>
		<g>
			<g>
				<path class="st0" d="M187.4,143.7c-1.2,3.9-3.5,7.2-6.9,9.6c-0.4,0.3,0,0.9,0.4,0.6c3.5-2.5,6-5.9,7.2-10
					C188.3,143.4,187.6,143.2,187.4,143.7L187.4,143.7z"/>
			</g>
		</g>
		<g>
			<g>
				<path class="st0" d="M188.5,147.3c-1.1,3.3-3.1,6-6,7.9c-0.4,0.3,0,0.9,0.4,0.6c3-2,5.2-4.8,6.4-8.3
					C189.3,147.1,188.6,146.9,188.5,147.3L188.5,147.3z"/>
			</g>
		</g>
		<g>
			<g>
				<path class="st0" d="M189.1,150c-0.6,3.5-2.3,6.5-5,8.8c-0.4,0.3,0.2,0.8,0.5,0.5c2.8-2.4,4.6-5.5,5.2-9.1
					C189.9,149.7,189.2,149.5,189.1,150L189.1,150z"/>
			</g>
		</g>
		<g>
			<g>
				<path class="st0" d="M173.2,169c3.5-1.2,6.5-3.3,8.7-6.3c0.3-0.4-0.4-0.8-0.6-0.4c-2.1,2.8-4.9,4.9-8.3,6
					C172.5,168.4,172.7,169.2,173.2,169L173.2,169z"/>
			</g>
		</g>
	</g>
	<g id="medal">
		<ellipse class="st4" cx="174.5" cy="40.7" rx="19" ry="20.7"/>
		<polygon class="st4" points="160.2,42.5 135.9,109.2 151.5,98.3 160.2,115.5 173.1,49 		"/>
		<path class="st4" d="M174.9,51.9c1.9,2.8,21.1,57.3,21.1,57.3l4.3-17.1l13.7,6.2l-28.3-53.5L174.9,51.9z"/>
		<ellipse class="st10" cx="174.5" cy="40.7" rx="15.2" ry="16.6"/>
	</g>
</g>
<g id="guy">
	<g id="leg_right">
		<path class="st4" d="M505.5,501.2c-20.9,16.4-30.5,26-28.7,28.9c2.1,3.5,20.2-2.6,54.5-18.3c-3.1-6.2-6.2-12.4-9.4-18.5
			C516.5,495.9,511,498.5,505.5,501.2z"/>
		<g id="Layer_28">
			<path class="st6" d="M492.5,240.1c0.7,8.6,1.7,21,3,36c3.7,43.8,5.6,65.7,8.2,89.7c2.7,23.9,6,53.2,12.8,91.5
				c2.6,14.9,5.1,27.3,6.9,36.1c-0.6,1.6-1.4,2.7-2.2,3.5c-5.2,5.9-14.5,4.4-15.7,4.2c-2.6-5-6-11.8-9.8-20.1
				c-7.3-15.9-13.6-32-20.4-52.7c-3-9.2-8.4-26-19.9-70.6c-4.4-17.2-10.2-40.2-16.5-67.5c-6.4-13-6-28.1,1.5-39.1
				C450.7,236.1,473.1,230.4,492.5,240.1z"/>
		</g>
		<g>
			<path class="st7" d="M493.4,241.1c4.2,83.5,13.8,166.6,28.7,248.9"/>
		</g>
		<g>
			<path class="st7" d="M444.1,309.2c15,65.7,30.3,132.3,61.4,192"/>
		</g>
		<g>
			<path class="st7" d="M506.7,502.8c6.8,1,14.1-3,16.8-9.4"/>
		</g>
		<g>
			<g>
				<path class="st10" d="M501.6,505.4c-0.6-3.7-5.3-2.1-6.3,0.5c-0.4,1-0.3,2.3,1,2.3c1.5,0.1,3.4-1.8,4.4-2.8
					c-0.2-0.1-0.4-0.1-0.6-0.2c0.4,1.5-0.2,3.6,1.2,4.7c0.8,0.6,2.1,0.6,2.9,0c1.1-0.8,1.3-2.3,0.8-3.4c-0.6-1.4-2.1-1.9-3.5-1.9
					c-0.5,0-0.5,0.8,0,0.8c1.2,0,3.2,0.6,3,2.3c-0.2,1.6-2.4,3.3-3.4,0.8c-0.4-1-0.1-2.4-0.3-3.4c-0.1-0.3-0.4-0.3-0.6-0.2
					c-0.6,0.6-1.3,1.2-2,1.7c-0.4,0.3-2.2,1.6-2.3-0.1c0-0.6,0.8-1.5,1.2-1.8c1.3-1.1,3.5-1.1,3.8,0.9
					C501,506.1,501.7,505.9,501.6,505.4L501.6,505.4z"/>
			</g>
		</g>
		<g>
			<g>
				<path class="st10" d="M486.7,516.3c1.2-0.6,2.6-0.2,3.3,0.9c0.3,0.4,0.9,0,0.6-0.4c-0.9-1.4-2.8-1.9-4.3-1.2
					C485.8,515.9,486.2,516.5,486.7,516.3L486.7,516.3z"/>
			</g>
		</g>
		<g>
			<g>
				<path class="st10" d="M489.3,513.5c1.2-0.6,2.6,0,3.2,1.1c0.2,0.4,0.9,0.1,0.6-0.4c-0.8-1.5-2.7-2.1-4.3-1.4
					C488.5,513.1,488.9,513.7,489.3,513.5L489.3,513.5z"/>
			</g>
		</g>
		<g>
			<g>
				<path class="st10" d="M492.2,510.4c1.6-0.3,3.2,0.4,4,1.8c0.2,0.4,0.9,0,0.6-0.4c-1-1.7-2.9-2.6-4.9-2.1
					C491.6,509.8,491.8,510.5,492.2,510.4L492.2,510.4z"/>
			</g>
		</g>
		<g>
			<g>
				<path class="st10" d="M528.4,508c-8.8,5.1-17.6,10.2-26.4,15.3c-0.4,0.2,0,0.9,0.4,0.6c8.8-5.1,17.6-10.2,26.4-15.3
					C529.2,508.4,528.8,507.8,528.4,508L528.4,508z"/>
			</g>
		</g>
	</g>
	<g id="leg_left">
		<path class="st4" d="M446,519.8c-31.2,12.5-46.3,20.3-45.4,23.5c1.1,3.7,23.5,1.2,67.2-7.5c-1-5.9-1.9-11.9-2.9-17.8
			C458.6,518.6,452.3,519.2,446,519.8z"/>
		<g id="Layer_27">
			<path class="st6" d="M406.1,243.3c0.4,4,1.1,10.4,1.9,18.2c6.2,59.7,7,73.7,10,98.8c3.4,28.2,6.8,48.8,10.6,70.9
				c5.9,34.6,12.1,64.9,17.7,89.9c1.3,1.4,2.6,2.1,3.6,2.5c4.6,1.7,10.4-0.5,15-5.5c0-6.9,0-16.9,0.2-28.9
				c0.4-21.5,1.3-38.2,2.2-54.2c1-17.2,1.9-30.4,2.2-34.5c2.8-38.6,6.1-68.3,8.2-86.9c1.7-14.7,3.9-33.3,6.8-55
				c-1.1-6.1-4.3-17.3-13.9-24.7C455,221.6,427.7,224.3,406.1,243.3z"/>
		</g>
		<g>
			<path class="st7" d="M406.9,245.7c6,92.2,19.1,183.9,39.1,274.1"/>
		</g>
		<g>
			<g>
				<path class="st10" d="M482.2,275.4c-10.9,80.4-16.9,161.5-18,242.6c0,0.5,0.7,0.5,0.8,0c1.1-81.1,7.1-162.1,18-242.4
					C483,275.1,482.3,274.9,482.2,275.4L482.2,275.4z"/>
			</g>
		</g>
		<g>
			<path class="st7" d="M446.3,521c2.6,2.6,6.4,3.9,10.1,3.3c3.6-0.6,6.9-3,8.5-6.3"/>
		</g>
		<g>
			<g>
				<path class="st10" d="M440.2,523.1c-0.3-1.8-1.8-5.9-4.1-6.3c-2.3-0.3-1.8,3.2-1.6,4.5c0.2,1.9,1,5.3,3.5,5.3
					c1.6,0,2.6-1.6,1.9-3c-0.2-0.4-0.7-0.2-0.7,0.2c-0.1,1.8,0.9,10,4.2,8.3c3.6-1.8-0.9-6.7-2.8-7.6c-0.4-0.2-0.8,0.4-0.4,0.6
					c1,0.5,1.9,1,2.5,2c0.5,0.5,0.8,1.2,0.7,2c0.8,1.8,0,2.1-2.2,1c-1.5-1.3-1.5-4.5-1.3-6.3c-0.2,0.1-0.5,0.1-0.7,0.2
					c-1.9,1.3-3,1.2-3.3-0.3c-0.3-0.5-0.4-1.1-0.5-1.7c-0.3-1.4-0.7-2.6,0.6-3.3c1.3-0.7,1.6,0,2.4,1.4c0.5,1,0.8,2,1,3
					C439.5,523.8,440.2,523.6,440.2,523.1L440.2,523.1z"/>
			</g>
		</g>
		<g>
			<g>
				<path class="st10" d="M412.2,533.6c1.9,0.3,3.3,1.6,3.7,3.5c0.1,0.5,0.8,0.3,0.7-0.2c-0.4-2.1-2.1-3.7-4.2-4
					C411.9,532.8,411.7,533.6,412.2,533.6L412.2,533.6z"/>
			</g>
		</g>
		<g>
			<g>
				<path class="st10" d="M417.3,531.3c1.7,0,3,1.5,2.9,3.1c0,0.5,0.7,0.5,0.8,0c0.1-2.1-1.6-3.8-3.7-3.9
					C416.8,530.5,416.8,531.3,417.3,531.3L417.3,531.3z"/>
			</g>
		</g>
		<g>
			<g>
				<path class="st10" d="M421,528.6c1.9,0.2,3.3,1.8,3.6,3.7c0.1,0.5,0.8,0.3,0.7-0.2c-0.3-2.2-2.1-3.9-4.3-4.2
					C420.6,527.8,420.6,528.6,421,528.6L421,528.6z"/>
			</g>
		</g>
		<g>
			<g>
				<path class="st10" d="M427,525.8c2,0.1,3.6,1.7,3.8,3.6c0.1,0.5,0.8,0.3,0.7-0.2c-0.3-2.3-2.3-4-4.6-4.2
					C426.5,525,426.5,525.8,427,525.8L427,525.8z"/>
			</g>
		</g>
		<g>
			<g>
				<path class="st10" d="M425.7,542c13.2-2.4,26.3-5,39.4-7.8c0.5-0.1,0.3-0.8-0.2-0.7c-13.1,2.9-26.2,5.5-39.4,7.8
					C425.1,541.3,425.3,542,425.7,542L425.7,542z"/>
			</g>
		</g>
	</g>
	<g id="head">
		<path class="st3" d="M465.4,42.6c-0.9-1.8-0.7-2.3-1.5-3.2c-1.5-1.5-3.6-1.5-7.8-1.4c-8.7,0.1-8.9,0.2-9.8,0
			c-4.7-0.9-7.7-3.8-8.7-4.8c-5.9-5.8-5.7-13.5-5.7-14.4c0.1-1.9,0.6-6.8,4.3-11.2c4.3-5,9.9-6.1,11.7-6.4c6.7-1,11.9,2.1,15.4,4.2
			c1.3,0.8,7,4.3,11.3,11.5c3.9,6.6,4.5,12.7,4.7,15.2c0.3,3.3,0.6,7.8-1.9,12.2c-0.9,1.6-2.4,4.3-4.8,4.5
			C469.5,49,466.6,45,465.4,42.6z"/>
		<path class="st8" d="M446.3,38.1c-0.2,1-0.4,2.5-0.4,4.3c0.1,1.8,0.2,7.2,4.3,11.2c0.9,0.9,3.7,3.6,8.1,3.9c0.8,0,5.4,0.2,8.8-3.3
			c1.8-1.9,2.5-4,2.7-5.1c-0.9-0.8-2-2-3.1-3.6c-1.4-2.2-2-4.2-2.3-5.6c-2.5-1.6-4.6-2-6-2c-3.1-0.1-4.8,1.2-8.6,0.9
			C448.4,38.7,447.1,38.3,446.3,38.1z"/>
		<ellipse class="st0" cx="448.1" cy="42.4" rx="0.8" ry="1.7"/>
		<g>
			<path class="st7" d="M446,39.3c-0.3,3.8,0.2,7.6,1.9,11c1.7,3.3,4.8,6.1,8.5,6.9c3.3,0.8,6.9-0.1,9.9-1.7"/>
		</g>
		<g>
			<path class="st7" d="M464.7,40.3c-1.4-1.8-3.8-2.4-6.1-2.4c-2.3,0-4.5,0.6-6.7,0.7c-7.2,0.5-14.6-3.6-17.9-10.1
				c-3.4-6.4-2.5-14.8,2-20.5s12.5-8.3,19.5-6.4c3.3,0.9,6.4,2.7,9.2,4.7c2.9,2.2,5.7,4.6,7.9,7.5c3.8,5,5.9,11.2,6.6,17.5
				c0.5,4.4,0.2,9-1.8,12.9c-1.1,2-2.7,3.8-4.8,4.5c-2.1,0.7-4.8,0.1-6-1.7c-1.3-2.1-0.6-5-1.9-7.2"/>
		</g>
	</g>
	<g id="torso">
		<path class="st11" d="M397.3,76.8c3.8-2.1,9.1-4.8,15.6-7.7c3.6-1.6,17.6-7.5,40.4-12.3c15.8-3.3,30.5-6.4,50.3-5.6
			c13.9,0.6,25.2,2.8,32.9,4.8c0.7,3.4,1.5,8.3,2,14.1c1.5,16.1,0.2,30.1-2.5,44.8c-3.4,18.7-8.4,35-15.7,55.4
			c-6.6,18.2-15.9,42.1-28.9,69.9c-2.8,1-6.8,2.3-11.8,3.7c-10,2.9-22.1,6.4-34.8,7.2c-8.2,0.5-21.4,0.3-37.9-5.3
			c-1.4-6.5-3.1-15.5-4.7-26.1c-3.5-22.4-4.6-39.6-5.4-50.9c-1.3-20.1-1.5-37.4-1.3-51.2C395.7,102,396.4,88.2,397.3,76.8z"/>
		<g>
			<path class="st7" d="M397.3,76.8c23.8-13,50.3-21.2,77.3-23.9c5.4-0.5,10.9-0.9,16.3-1.2c15.4-0.8,31.3-1.4,45.6,4.3"/>
		</g>
		<g>
			<path class="st7" d="M537.4,60.5c3.3,22.6,1,45.8-4.3,68s-13.4,43.7-21.8,64.9c-6.1,15.6-12.4,31.2-18.8,46.7"/>
		</g>
		<g>
			<path class="st7" d="M395.7,108.1c-1.3,45.3,2.2,90.7,10.4,135.2"/>
		</g>
		<g>
			<path class="st7" d="M408,246.1c12.8,5.4,27.3,6.2,41.1,4.5c13.8-1.7,27.3-5.8,40.6-9.8"/>
		</g>
	</g>
	<g id="hand">
		<path class="st8" d="M260.7,175.2L260.7,175.2L260.7,175.2c-3.8-0.9-6.8-1.8-8.7-2.4c-5-1.5-8.9-2.8-14.2-2.7
			c-3.5,0.1-3.9,0.7-4,0.9c-0.6,1.5,3.7,4.5,7.7,7c-4.6,3.5-8.6,5.9-11.3,7.5c-4.4,2.6-9.5,5.1-15,7.8c-7.5,3.7-10,4.8-9.8,5.4
			c0.2,0.6,2.6,0.9,12.1-0.6c1.6,1,3.9,2.2,6.7,3.4c3.2,1.3,6.9,2.8,11.6,3c5.6,0.2,9.9-1.6,13.9-3.3c4.5-1.9,7.9-4.2,10.2-5.9"/>
		<path class="st11" d="M397.3,76.8c-2.1,2.7-5.2,6.8-9.1,11.8c-12.2,16.1-19.9,26.8-34.8,47.1c-4.3,5.9-10.5,14.4-18.2,24.8
			c-6.7,1.5-12.6,2.7-17.8,3.8c-15.4,3.1-22.6,4-39,7.2c-6.7,1.3-12.7,2.5-17.7,3.6c-0.8,1.5-1.5,3.3-2,5.3
			c-1.8,8.1,1.4,14.9,2.8,17.6c13.9,1.6,25.7,2.8,34.7,3.7c6.3,0.6,20,1.9,37.5,2.5c12.6,0.4,18.2,0.1,25-1.5
			c2.2-0.6,9.9-2.6,18.9-7.7c4.7-2.7,8.3-5.6,15.3-11.3c3-2.5,6.1-5.1,20.4-18.2c12.4-11.4,13.4-12.4,14.8-14.5
			c0,0,7.3-10.6,8.1-23.5C437.6,108.8,422.2,87.9,397.3,76.8z"/>
		<g>
			<path class="st7" d="M395.6,78.8c-19.9,26.3-39.4,52.9-58.6,79.8"/>
		</g>
		<g>
			<path class="st7" d="M260.7,175.2c23-4.8,46.1-9.2,69.3-13"/>
		</g>
		<g>
			<path class="st7" d="M259.4,178.6c-2,5.4-1.8,11.5,0.5,16.7"/>
		</g>
		<g>
			<g>
				<path class="st10" d="M261.6,198.5c16.7,2.1,33.4,3.7,50.2,4.9c14.6,1,29.8,2.6,44.4,0.2c13.8-2.3,24.8-9.8,35.5-18.4
					c12.3-9.9,23.7-20.7,34.4-32.3c0.3-0.4-0.2-0.9-0.5-0.5c-9.9,10.7-20.4,20.7-31.6,30c-12.2,10.1-24.5,18.8-40.5,20.9
					c-14.7,1.9-29.9,0.3-44.5-0.8c-15.8-1.2-31.6-2.7-47.3-4.7C261.1,197.7,261.1,198.4,261.6,198.5L261.6,198.5z"/>
			</g>
		</g>
		<g>
			<path class="st7" d="M259.5,174.6c-7.2-1.8-14.4-3.3-21.7-4.4c-0.9-0.1-1.9-0.3-2.7,0c-0.9,0.3-1.7,1.1-1.5,2
				c0.1,0.8,0.9,1.4,1.5,1.9c2.1,1.4,4.3,2.8,6.5,4"/>
		</g>
		<g>
			<path class="st7" d="M241.1,178.4c-6.1,4.4-12.5,8.3-19.2,11.7c-5,2.6-10.2,4.8-15.4,7"/>
		</g>
		<g>
			<g>
				<path class="st0" d="M207.1,199.2c8.8,0.3,17.2-1.7,25-5.9c0.4-0.2,0-0.9-0.4-0.6c-7.7,4.1-15.9,6-24.6,5.8
					C206.6,198.4,206.6,199.2,207.1,199.2L207.1,199.2z"/>
			</g>
		</g>
		<g>
			<g>
				<path class="st0" d="M218.4,199.8c5.4,1.3,10.7,0.8,15.8-1.5c0.4-0.2,0.1-0.8-0.4-0.6c-4.9,2.1-10,2.6-15.2,1.4
					C218.2,199,218,199.7,218.4,199.8L218.4,199.8z"/>
			</g>
		</g>
		<g>
			<g>
				<path class="st0" d="M224.2,201.9c3.9,1.2,7.9,1,11.7-0.5c0.4-0.2,0.2-0.9-0.2-0.7c-3.7,1.5-7.5,1.7-11.3,0.5
					C223.9,201,223.7,201.7,224.2,201.9L224.2,201.9z"/>
			</g>
		</g>
		<g>
			<path class="st7" d="M229.1,203.5c5,1.7,10.6,1.2,15.7-0.3s9.8-4.2,14.3-6.9"/>
		</g>
	</g>
</g>
</svg>
