<?xml version="1.0" encoding="utf-8"?>
<!-- Generator: Adobe Illustrator 23.0.3, SVG Export Plug-In . SVG Version: 6.00 Build 0)  -->
<svg version="1.1" xmlns="http://www.w3.org/2000/svg" xmlns:xlink="http://www.w3.org/1999/xlink" x="0px" y="0px"
	 viewBox="0 0 600 600" style="enable-background:new 0 0 600 600;" xml:space="preserve">
<style type="text/css">
	.st0{fill:#141414;}
	.st1{fill:#B1CEFC;}
	.st2{fill:#FAFBFF;}
	.st3{fill:#202124;}
	.st4{fill:#FFFFFF;}
	.st5{fill:#D5E1FA;}
	.st6{fill:#FFFFFF;stroke:#202124;stroke-width:0.75;stroke-miterlimit:10;}
	.st7{fill:#5185EC;}
</style>
<g id="background">
	<g id="ground">
		<g>
			<g>
				<path class="st0" d="M78.3,562.9c23.9-12.7,51.6-9.2,77.3-5.4c26.7,4,53.5,7.2,80.5,9.2c28,2.1,56.6,3.8,84.7,2.2
					c27.2-1.5,53.2-10.2,80-14.5c31.4-5,63.3-5.4,94.8-1.3c0.5,0.1,0.5-0.7,0-0.8c-28-3.6-56.5-3.8-84.5-0.2
					c-28.1,3.6-55.2,13-83.4,15.5c-28.3,2.5-57.4,0.6-85.7-1.3c-28.9-2-57.5-5.4-86.1-9.6c-25.9-3.8-53.8-7.3-77.8,5.5
					C77.5,562.5,77.9,563.1,78.3,562.9L78.3,562.9z"/>
			</g>
		</g>
		<g>
			<g>
				<path class="st0" d="M449.4,566.2c46.6-12,94.1,13.4,140.6,0.6c0.5-0.1,0.3-0.9-0.2-0.7c-46.5,12.8-94-12.6-140.6-0.6
					C448.7,565.6,448.9,566.3,449.4,566.2L449.4,566.2z"/>
			</g>
		</g>
		<g>
			<g>
				<path class="st0" d="M48.1,576c51.6-12,102.6,17.4,154.3,6.6c0.5-0.1,0.3-0.8-0.2-0.7c-51.7,10.9-102.6-18.5-154.3-6.6
					C47.5,575.3,47.7,576.1,48.1,576L48.1,576z"/>
			</g>
		</g>
	</g>
	<g id="plants">
		<path class="st1" d="M458.4,583.2c-1.4-5.2-2.4-10.9-2.8-16.9c-2.7-38.5,20.1-68.5,30.4-80.5c0.8,6.5,1.1,13.6,0.7,21.2
			C484.9,542,469.2,568.5,458.4,583.2z"/>
		<path class="st1" d="M458.4,583.2c-6-5.7-13.4-14.2-19.2-25.9c-13.2-26.2-10.2-51.4-8.4-61.5c5.2,8,10.6,17.8,15.2,29.4
			C455.1,547.9,457.8,568.4,458.4,583.2z"/>
		<path class="st1" d="M184.1,493.2c-1.1,8-1.5,18.5,0.8,30.4c5.7,29.5,24.2,48,32.1,55.1c0.6-7.8,0.4-17.4-1.6-28
			C209.7,521.6,192.9,502.1,184.1,493.2z"/>
		<path class="st1" d="M217,578.7c-5.8-1.9-3.6-30,4.1-52.6c5.2-15.4,12.6-27,18.1-34.5c3.2,12.1,7.9,36.9-3.3,62.5
			C231.1,564.9,221.6,580.2,217,578.7z"/>
		<g>
			<g>
				<path class="st2" d="M162.9,513.2c1.9,0,1.9-3,0-3C160.9,510.2,160.9,513.2,162.9,513.2L162.9,513.2z"/>
			</g>
		</g>
		<g>
			<g>
				<path class="st2" d="M191.6,513c5.5,21.7,13.2,42.8,23,62.9c0.2,0.4,0.9,0.1,0.6-0.4c-9.8-20.1-17.5-41.1-22.9-62.7
					C192.2,512.4,191.5,512.6,191.6,513L191.6,513z"/>
			</g>
		</g>
		<g>
			<g>
				<path class="st2" d="M217.8,575.5c6.1-16.7,12.3-33.4,18.7-50c0.2-0.5-0.6-0.6-0.7-0.2c-6.4,16.6-12.7,33.3-18.7,50
					C216.9,575.8,217.6,576,217.8,575.5L217.8,575.5z"/>
			</g>
		</g>
		<g>
			<g>
				<path class="st2" d="M434.5,517.6c4.7,20.8,11.9,40.8,21.3,59.9c0.2,0.4,0.9,0.1,0.6-0.4c-9.4-19-16.5-39.1-21.2-59.8
					C435.2,517,434.4,517.2,434.5,517.6L434.5,517.6z"/>
			</g>
		</g>
		<g>
			<g>
				<path class="st2" d="M471.5,525.7c-2.5,18.9-6.9,37.4-13,55.4c-0.2,0.5,0.6,0.7,0.7,0.2c6.1-18,10.4-36.5,13-55.4
					C472.2,525.5,471.5,525.3,471.5,525.7L471.5,525.7z"/>
			</g>
		</g>
	</g>
</g>
<g id="body_2">
	<g id="head">
		<path class="st3" d="M393.5,111.5c-1.4-0.7-10-5-9.6-10c0.4-5.5,11.9-8.7,16.7-10c5.3-1.5,12.1-2.1,12.8-2.1
			c1.3-0.1,1.8-0.1,2.1-0.1c1.9,0.1,7,0.3,11.3,3.9c2.8,2.4,4.1,5.3,4.9,7.1c1.5,3.3,1.9,6.3,2,8.2c-6.2,1.3-13.5,2.5-21.6,3
			C405.2,112,399,111.9,393.5,111.5z"/>
		<path class="st3" d="M441.5,101.4c-5.3,9.4-16.5,14.7-26.9,12.9c-11.4-1.9-20.3-11.7-20.9-20.9c-0.1-1.5-0.4-6.6,2.7-9.3
			c3.7-3.3,8.4,0.4,14.5-2.4c6-2.7,4.8-7.8,10-10.3c6.3-3,16.8,0.2,21.6,7.8C448.7,88.8,442.4,99.9,441.5,101.4z"/>
		<path class="st4" d="M393.1,110.8c0,1.2,0.2,2.8,0.5,4.7c0.4,1.9,0.9,4.9,2.6,7.7c3.2,5.5,9,7.5,10.5,8c4.4,1.4,8.1,0.7,9.8,0.4
			c5.7-1,9.4-4,10.5-5c0.8-0.7,3.3-2.9,5.1-6.6c0.9-1.8,2.1-4.2,2.1-7.5c0-1.6-0.3-3-0.6-3.9c-0.8,0.3-2.2,0.6-3.8,0.2
			c-1.5-0.3-2.5-1.1-3.1-1.6c-4.4-3.5-4.9-6.9-8.6-9c-0.6-0.4-3.7-2.1-7.5-1.5c-3.5,0.5-5.8,2.7-6.6,3.5c-1.1,1-2.2,2.8-4.5,6.4
			c-1.2,1.8-2.1,3.3-3.9,3.9C394.7,110.9,393.8,110.9,393.1,110.8z"/>
		<g>
			<g>
				<path class="st3" d="M433.9,112.5c-1.4,11.1-10.8,19.5-22.2,19.1c-9.5-0.4-16.3-7-17.7-16.2c-0.1-0.5-0.8-0.3-0.7,0.2
					c1.5,10.2,9.6,17.1,20,16.8c11.3-0.4,19.9-8.8,21.3-19.8C434.7,112,433.9,112,433.9,112.5L433.9,112.5z"/>
			</g>
		</g>
		<g>
			<g>
				<path class="st3" d="M393.5,110.8c1.3-10.9,9-19.9,20.3-21c11.4-1,18.7,8,19.5,18.8c0,0.5,0.8,0.5,0.8,0
					c-0.8-11.2-8.4-20.5-20.2-19.5c-11.7,1-19.7,10.4-21,21.7C392.7,111.3,393.5,111.3,393.5,110.8L393.5,110.8z"/>
			</g>
		</g>
		<g>
			<g>
				<path class="st3" d="M433.8,108.9C433.8,108.9,433.9,108.9,433.8,108.9c0.5-0.2,0.1-0.9-0.3-0.7c0,0,0,0-0.1,0
					C433,108.5,433.4,109.1,433.8,108.9L433.8,108.9z"/>
			</g>
		</g>
		<g>
			<g>
				<path class="st3" d="M393.1,111.1c2.6,0.8,4.2-1.2,5.7-3.1c3.7-4.6,6.3-10.9,13.2-11.1c9.6-0.3,12.1,14.9,21.9,12
					c0.5-0.1,0.3-0.9-0.2-0.7c-6.9,2-9.7-5.8-13.9-9.3c-2.4-2-5.4-2.9-8.5-2.6c-2.8,0.3-5.2,1.5-7.2,3.5
					c-2.5,2.5-6.7,11.9-10.7,10.7C392.8,110.3,392.6,111,393.1,111.1L393.1,111.1z"/>
			</g>
		</g>
		<g>
			<g>
				<path class="st3" d="M411.3,104.1c-0.5,2.9-2.7,12.9,1.7,14c0.5,0.1,0.7-0.6,0.2-0.7c-3.5-0.9-1.5-10.8-1.2-13.1
					C412.1,103.9,411.4,103.6,411.3,104.1L411.3,104.1z"/>
			</g>
		</g>
		<g>
			<g>
				<path class="st3" d="M413.3,121.5c3.3,0.7,6.9-2.4,7.5-5.6c0.1-0.5-0.6-0.7-0.7-0.2c-0.5,2.7-3.7,5.6-6.6,5
					C413,120.7,412.8,121.4,413.3,121.5L413.3,121.5z"/>
			</g>
		</g>
		<ellipse class="st3" cx="404.6" cy="109" rx="1" ry="1.4"/>
		<ellipse class="st3" cx="419.5" cy="108.5" rx="1" ry="1.4"/>
		<g>
			<g>
				<path class="st3" d="M403.6,105.5c0.3-0.5,0.7-0.9,1.2-1.2c0.8-0.5,1.3-0.3,2.1,0.2c0.4,0.3,0.8-0.4,0.4-0.6
					c-0.7-0.5-1.5-0.8-2.4-0.4c-0.8,0.4-1.5,1-2,1.7C402.7,105.5,403.3,105.9,403.6,105.5L403.6,105.5z"/>
			</g>
		</g>
		<g>
			<g>
				<path class="st3" d="M417.8,104c0.7-0.6,1.6-1.1,2.5-0.7c0.7,0.3,1,1.1,1.4,1.8c0.2,0.4,0.9,0.1,0.6-0.4c-0.5-0.9-1-2-2.1-2.2
					c-1.1-0.3-2.1,0.3-2.9,1C416.9,103.8,417.5,104.4,417.8,104L417.8,104z"/>
			</g>
		</g>
		<path class="st4" d="M409.1,89.8c0.7-0.9,3.2-3.5,7.3-4.1c6.7-1,11.3,4.6,11.5,4.9c-1.7-0.9-5.3-2.6-10-2.7
			C413.9,87.9,410.8,89,409.1,89.8z"/>
	</g>
	<g id="hand_right">
		<path class="st4" d="M232.1,103.4c2.6-2.5,5.1-4,6.9-4.8c2.2-1.1,4.3-2.1,7.2-1.9c2,0.1,3.7,0.7,4.7,1.2
			c1.3,8.2,2.9,16.7,4.6,25.3c3.3,16.2,7,31.5,11,45.9c3.3-1.7,7.9-4.1,13.5-6.9c16.3-8.2,30.9-15.1,43.1-20.7
			c6-2.8,13.8-6.2,23-10.2c5.5,7.5,6.7,13.8,7,17.7c1.9,26.9-34.2,52.1-61.2,56.5c-8.5,1.4-18.1,1-18.9,1c-16.1-0.6-27.3-5-29.9-6
			c-4-1.6-7.1-3.2-9.4-4.5c-1.3-4.6-2.8-11-3.9-18.7c-1-7.5-1.2-13-1.4-20c-0.4-14.1,0.4-25.6,1-32.5
			C229.9,119,230.7,111.7,232.1,103.4z"/>
		<path class="st4" d="M224.7,54.8c-0.6-1-1.6-2.3-2.4-2.2c-0.5,0.1-0.9,0.9-1.2,2.4c-0.7,3.7-0.2,6.8-0.2,7.2c0.9,5.2,1.9,8,1.9,8
			c1.9,5.1,5.6,14.5,10.7,26.6c0,1.8,0,3.6,0,5.4c2.2-2,4.2-3.2,5.7-4c1.8-1,3.3-1.7,5.3-1.8c1.8-0.1,3.3,0.4,4.2,0.7
			c-1.2-1.9-1.2-3.4-1.1-4.3c0.1-0.8,0.4-1.2,2.2-4.7c1.4-2.6,1.6-3,1.8-3.5c0.9-2.1,1.4-3.1,1.4-4.4c0-1.9-0.8-4.4-2.1-4.5
			c-0.2,0-1,0-2,1.6c-1.5-6.9-1.8-12.6-1.8-16.6c0-3,0.2-7.3-1.7-12.4c-1.6-4.4-3.4-5.5-4.4-5.9c-1.4-0.6-2.9-0.4-5.9,0
			c-2.8,0.4-4.1,0.6-5.1,1.6c-0.2,0.3-0.4,0.6-0.8,4.4c-0.4,4.4-0.4,6.6-0.4,8c0,0,0,0.7,0,1.3c0.1,2,0.5,5.6,1.8,10.9
			C229.4,64.4,227.1,58.6,224.7,54.8z"/>
		<g>
			<g>
				<path class="st3" d="M249.1,78.2c0.4-0.6,0.8-1.1,1.4-1.5c0.6-0.4,2.2-1.1,2.2,0.2c0,0.5,0.8,0.5,0.8,0c0-1.1-1-1.7-2-1.5
					c-1.3,0.2-2.3,1.4-3,2.4C248.2,78.2,248.8,78.6,249.1,78.2L249.1,78.2z"/>
			</g>
		</g>
		<g>
			<g>
				<path class="st3" d="M253.1,79.4c-0.6,3.1-1.7,6-3.4,8.6c-1.2,1.9-2.4,3.6-2.3,6c0,0.5,0.8,0.5,0.8,0c-0.2-3.1,2.3-5.5,3.5-8.1
					c1-2,1.6-4.2,2.1-6.4C253.9,79.2,253.2,79,253.1,79.4L253.1,79.4z"/>
			</g>
		</g>
		<g>
			<g>
				<path class="st3" d="M233.3,95.4c-3.1-7.2-6.2-14.5-8.9-21.9c-1.1-3.1-2.1-6.3-2.7-9.6c-0.4-2-0.9-4.2-0.6-6.2
					c0.3-2.1,1.2-6.9,3.3-2.7c0.2,0.4,0.9,0.1,0.6-0.4c-0.6-1.1-1.1-1.8-2.1-2.7c-0.2-0.2-0.4-0.1-0.6,0.1
					c-3.8,5.6-1.4,13.2,0.5,19.1c2.7,8.4,6.3,16.5,9.8,24.6C232.8,96.2,233.5,95.8,233.3,95.4L233.3,95.4z"/>
			</g>
		</g>
		<g>
			<g>
				<path class="st3" d="M225.9,58.3c1.4,3.3,2.9,6.5,4.3,9.8c0.2,0.4,0.8,0.1,0.6-0.4c-1.4-3.3-2.9-6.5-4.3-9.8
					C226.3,57.5,225.7,57.9,225.9,58.3L225.9,58.3z"/>
			</g>
		</g>
		<g>
			<g>
				<path class="st3" d="M231,64.7c-0.7-6.4-2.4-15.2,0.2-21.3c0.2-0.4-0.5-0.6-0.7-0.2c-2.6,6.2-0.9,15-0.2,21.5
					C230.3,65.1,231,65.2,231,64.7L231,64.7z"/>
			</g>
		</g>
		<g>
			<g>
				<path class="st3" d="M231.9,44c1.8,6.6,3.1,13.3,4.2,20c0.1,0.5,0.8,0.3,0.7-0.2c-1-6.8-2.4-13.4-4.2-20
					C232.5,43.4,231.8,43.6,231.9,44L231.9,44z"/>
			</g>
		</g>
		<g>
			<g>
				<path class="st3" d="M236.4,43.3c3.7,5.1,4.4,13.5,5.5,19.6c0.1,0.5,0.8,0.3,0.7-0.2c-1.1-6.3-1.7-14.5-5.6-19.8
					C236.8,42.5,236.1,42.9,236.4,43.3L236.4,43.3z"/>
			</g>
		</g>
		<g>
			<g>
				<path class="st3" d="M245.4,48.5c0.8,4.1,1.4,8.2,1.6,12.3c0,0.5,0.8,0.5,0.8,0c-0.3-4.2-0.8-8.4-1.7-12.5
					C246,47.9,245.3,48.1,245.4,48.5L245.4,48.5z"/>
			</g>
		</g>
		<g>
			<g>
				<path class="st3" d="M346,131c-27,11.6-53.6,24.3-79.7,37.8c-0.4,0.2,0,0.9,0.4,0.6c26.1-13.6,52.7-26.2,79.7-37.8
					C346.8,131.5,346.4,130.8,346,131L346,131z"/>
			</g>
		</g>
		<g>
			<g>
				<path class="st3" d="M266.5,168.8c-6.2-23.4-11.3-47.1-15.3-71.1c-0.1-0.5-0.8-0.3-0.7,0.2c4,23.9,9.1,47.6,15.3,71.1
					C265.9,169.5,266.6,169.3,266.5,168.8L266.5,168.8z"/>
			</g>
		</g>
		<g>
			<g>
				<path class="st3" d="M234,102.6c4.3-3.4,9.2-6.9,14.9-5c0.5,0.2,0.7-0.6,0.2-0.7c-6-2-11.1,1.6-15.6,5.1
					C233,102.3,233.6,102.9,234,102.6L234,102.6z"/>
			</g>
		</g>
		<g>
			<g>
				<path class="st3" d="M231.6,105.1c-4.3,25.8-4.7,52.1-1.4,78c0.1,0.5,0.8,0.5,0.8,0c-3.3-25.9-2.9-52.1,1.4-77.8
					C232.4,104.8,231.7,104.6,231.6,105.1L231.6,105.1z"/>
			</g>
		</g>
		<g>
			<g>
				<path class="st3" d="M235.3,197.3c28.8,14.8,61.9,10.5,91.1-0.7c0.4-0.2,0.3-0.9-0.2-0.7c-29,11.2-61.9,15.5-90.5,0.8
					C235.3,196.4,234.9,197.1,235.3,197.3L235.3,197.3z"/>
			</g>
		</g>
	</g>
	<g id="torso">
		<path class="st4" d="M281.7,189.4c11.2-9.9,34.7-30.7,45.9-40.6c2.3-2,16.9-14.9,19.1-16.9c8.2-1.4,19.6-3.1,33.3-4.7
			c19.7-2.3,33.6-3.8,50.9-3.3c11.2,0.3,26.7,1.6,45.2,5.7c0.2,5.9,0.1,14-1.5,23.6c-0.9,5.8-4.4,24.9-17.1,46.5
			c-3.6,6.1-9.5,16-18.6,24.6c-30.6,29-76.2,23.6-78.4,23.3C308.3,240.7,283.8,193.6,281.7,189.4z"/>
		<g>
			<g>
				<path class="st3" d="M282,189.7c16.7-14.8,33.4-29.6,50.1-44.4c0.4-0.3-0.2-0.8-0.5-0.5c-16.7,14.8-33.4,29.6-50.1,44.4
					C281.1,189.4,281.6,190,282,189.7L282,189.7z"/>
			</g>
		</g>
		<g>
			<g>
				<path class="st3" d="M346.8,132.3c36-5.4,72.3-10.6,108.7-6.5c0.5,0.1,0.5-0.7,0-0.8c-36.4-4.2-72.9,1.1-108.9,6.5
					C346.1,131.7,346.3,132.4,346.8,132.3L346.8,132.3z"/>
			</g>
		</g>
		<g>
			<g>
				<path class="st3" d="M475.1,147.3c-3.8,28.8-16.6,55.7-36.5,76.8c-0.3,0.4,0.2,0.9,0.5,0.5c20.1-21.3,32.9-48.4,36.8-77.4
					C475.9,146.8,475.2,146.8,475.1,147.3L475.1,147.3z"/>
			</g>
		</g>
		<g>
			<g>
				<path class="st5" d="M356.8,146.4c23.6-2.8,47.4-3.6,71.2-2.4c1.9,0.1,1.9-2.9,0-3c-23.8-1.2-47.6-0.4-71.2,2.4
					C354.9,143.6,354.8,146.6,356.8,146.4L356.8,146.4z"/>
			</g>
		</g>
		<g>
			<g>
				<path class="st5" d="M342.8,161.6c27.6-2.3,55.2-2.5,82.8-0.4c1.9,0.1,1.9-2.9,0-3c-27.6-2-55.3-1.9-82.8,0.4
					C340.9,158.7,340.9,161.7,342.8,161.6L342.8,161.6z"/>
			</g>
		</g>
	</g>
	<g id="leg">
		<path class="st4" d="M254.2,153.1c7.9,1.5,19.1,3.9,32.1,7.7c22.3,6.4,38.6,13.5,55.3,20.7c11.6,5,26.5,11.9,43.6,20.9
			c-1.2,4.8-3.1,10.1-6,15.4c-13.7,24.6-40.7,32.1-48.7,34.1c-5.1-2.8-13.1-7.1-23-12.1c-27.5-13.9-36.8-16.2-49.3-25.7
			c-6.6-5.1-15.7-13.3-24.3-26.6C240.7,176,247.4,164.6,254.2,153.1z"/>
		<g>
			<g>
				<path class="st3" d="M259.6,153.3c40.7,11.1,80.2,26.3,117.7,45.5c0.4,0.2,0.8-0.4,0.4-0.6c-37.6-19.2-77.1-34.5-117.9-45.6
					C259.3,152.5,259.1,153.2,259.6,153.3L259.6,153.3z"/>
			</g>
		</g>
		<g>
			<g>
				<path class="st3" d="M248.6,209.8c25.6,12.6,50.9,25.9,75.8,39.8c0.4,0.2,0.8-0.4,0.4-0.6c-24.9-13.9-50.2-27.2-75.8-39.8
					C248.6,208.9,248.2,209.6,248.6,209.8L248.6,209.8z"/>
			</g>
		</g>
	</g>
</g>
<g id="trophy_1_">
	<g id="trophy">
		<path class="st6" d="M428.7,576.5l-178.8,2.4c0-35.1,69.5,7.1,69.5-34.7c0-30.5-4.6-73.9-6.6-79.4c17.6,0,32.2,0,49.8,0
			c-1.9,3.8-4.2,43.3-4.2,79.8C358.4,583.4,428.7,542.8,428.7,576.5z"/>
		<path class="st6" d="M198,279.6l-42.6,17.3c-3.7,1.5-5.9,6.1-5.1,10.8l13.2,83.5c0.7,4.4,3.8,7.6,7.5,7.7l43.5,0.4
			c4.6,0,8.1-4.8,7.7-10.4l0,0c-0.4-5-3.9-8.7-8-8.5l-31.6,1.7c-3.8,0.2-7.2-3.1-7.9-7.7l-8.3-54.4c-0.8-4.9,1.7-9.7,5.7-11
			l30.8-9.6c4.5-1.4,7-7.4,5.2-12.7l-0.5-1.6C206,280.5,201.8,278.1,198,279.6z"/>
		<path class="st6" d="M466,279.6l55.6,17.3c4.8,1.5,7.7,6.1,6.7,10.8l-17.2,83.5c-0.9,4.4-5,7.6-9.7,7.7l-56.7,0.4
			c-5.9,0-10.6-4.8-10-10.4l0,0c0.5-5,5.1-8.7,10.4-8.5l41.2,1.7c5,0.2,9.3-3.1,10.3-7.7l10.8-54.4c1-4.9-2.3-9.7-7.4-11l-40.1-9.6
			c-5.9-1.4-9.1-7.4-6.8-12.7l0.7-1.6C455.6,280.5,461,278.1,466,279.6z"/>
		<path class="st6" d="M416.8,484.4H245.3c-14.7,0-27-11-28.7-25.5L190.6,238c-2-17.2,11.4-32.3,28.7-32.3h232.3
			c17.8,0,31.3,15.9,28.6,33.4L445.3,460C443.1,474,431,484.4,416.8,484.4z"/>
	</g>
	<g id="_x31_">
		<g>
			<g>
				<path class="st5" d="M299.1,327.5c4.6,1.3,9.2,2.6,13.8,3.9c1.9,0.5,2.7-2.4,0.8-2.9c-4.6-1.3-9.2-2.6-13.8-3.9
					C298,324.1,297.2,327,299.1,327.5L299.1,327.5z"/>
			</g>
		</g>
		<g>
			<g>
				<path class="st5" d="M315.9,330c4.6-6.2,9.2-12.3,13.8-18.5c1.2-1.5-1.4-3-2.6-1.5c-4.6,6.2-9.2,12.3-13.8,18.5
					C312.1,330,314.7,331.5,315.9,330L315.9,330z"/>
			</g>
		</g>
		<g>
			<g>
				<path class="st5" d="M327.1,311.8c0.2,24.5,0.3,49,0.5,73.5c0,1.9,3,1.9,3,0c-0.2-24.5-0.3-49-0.5-73.5
					C330.1,309.9,327.1,309.9,327.1,311.8L327.1,311.8z"/>
			</g>
		</g>
		<g>
			<g>
				<path class="st5" d="M300.5,325.6c8.5-14,17.1-27.9,25.6-41.9c1-1.7-1.6-3.2-2.6-1.5c-8.5,14-17.1,27.9-25.6,41.9
					C296.9,325.7,299.5,327.3,300.5,325.6L300.5,325.6z"/>
			</g>
		</g>
		<g>
			<g>
				<path class="st5" d="M327.4,283c6.3,0,12.6,0,18.9,0c1.9,0,1.9-3,0-3c-6.3,0-12.6,0-18.9,0C325.5,280,325.5,283,327.4,283
					L327.4,283z"/>
			</g>
		</g>
		<g>
			<g>
				<path class="st5" d="M346,284.3c0,33.3,0,66.6,0,99.9c0,1.9,3,1.9,3,0c0-33.3,0-66.6,0-99.9C349,282.4,346,282.4,346,284.3
					L346,284.3z"/>
			</g>
		</g>
		<g>
			<g>
				<path class="st5" d="M328.4,384.5c-6.2,0-12.3,0-18.5,0c-1.9,0-1.9,3,0,3c6.2,0,12.3,0,18.5,0
					C330.3,387.5,330.3,384.5,328.4,384.5L328.4,384.5z"/>
			</g>
		</g>
		<g>
			<g>
				<path class="st5" d="M306.6,391.8c0,3.4,0,6.8,0,10.1c0,1.9,3,1.9,3,0c0-3.4,0-6.8,0-10.1C309.6,389.8,306.6,389.8,306.6,391.8
					L306.6,391.8z"/>
			</g>
		</g>
		<g>
			<g>
				<path class="st5" d="M310.8,406.5c16.5,0,32.9,0,49.4,0c1.9,0,1.9-3,0-3c-16.5,0-32.9,0-49.4,0
					C308.8,403.5,308.8,406.5,310.8,406.5L310.8,406.5z"/>
			</g>
		</g>
		<g>
			<g>
				<path class="st5" d="M350.4,387.5c5.4,0,10.9,0,16.3,0c1.9,0,1.9-3,0-3c-5.4,0-10.9,0-16.3,0
					C348.5,384.5,348.5,387.5,350.4,387.5L350.4,387.5z"/>
			</g>
		</g>
		<g>
			<g>
				<path class="st5" d="M365.7,390.9c0,4.6,0,9.1,0,13.7c0,1.9,3,1.9,3,0c0-4.6,0-9.1,0-13.7C368.7,389,365.7,389,365.7,390.9
					L365.7,390.9z"/>
			</g>
		</g>
		<g>
			<g>
				<path class="st5" d="M259.7,309.3c8.8-3,13-12,16.6-19.9c4.6-10.2,7.7-20.9,9.4-32c-0.9,0.1-1.8,0.2-2.7,0.4
					c3.2,7.3,11.7,9.2,18.9,9.5c9.5,0.3,18.7-2.6,26.5-8c1.6-1.1,0.1-3.7-1.5-2.6c-6.5,4.5-13.9,7.3-21.8,7.6
					c-7,0.3-16.3-0.7-19.5-7.9c-0.5-1.1-2.6-0.9-2.7,0.4c-1.4,9.1-3.7,18.1-7.1,26.7c-3.3,8.1-7.7,20-16.7,23.1
					C257.1,307,257.8,309.9,259.7,309.3L259.7,309.3z"/>
			</g>
		</g>
		<g>
			<g>
				<path class="st5" d="M362.7,443.3c11.9-11.4,28.3-16.7,44.6-14.3c1.1,0.2,2.1-0.6,1.8-1.8c-3.8-17.4,2.3-35.7,15.7-47.5
					c1.5-1.3-0.7-3.4-2.1-2.1c-14.2,12.5-20.5,32-16.5,50.4c0.6-0.6,1.2-1.2,1.8-1.8c-17.4-2.6-34.8,2.9-47.5,15.1
					C359.1,442.5,361.3,444.7,362.7,443.3L362.7,443.3z"/>
			</g>
		</g>
		<g>
			<g>
				<path class="st5" d="M365.7,255.9c6.5,13.2,26.5,14,39,12c-0.6-0.6-1.2-1.2-1.8-1.8c-6.3,17.1,2.5,35.5,19.6,41.5
					c1.8,0.6,2.6-2.3,0.8-2.9c-15.7-5.5-23.3-22.3-17.6-37.8c0.4-1.2-0.8-2-1.8-1.8c-11.2,1.8-29.8,1.2-35.6-10.7
					C367.4,252.7,364.8,254.2,365.7,255.9L365.7,255.9z"/>
			</g>
		</g>
		<g>
			<g>
				<path class="st5" d="M256,394.2c7.5,0.7,10.9,11.4,11.5,17.7c0.6,6.3-1,12.4-4.3,17.7c-0.7,1.2,0.8,3,2.1,2.1
					c13.4-10.2,26.9,4.4,34.7,14.3c1.2,1.5,3.3-0.6,2.1-2.1c-8.6-10.9-23.8-25.8-38.3-14.7c0.7,0.7,1.4,1.4,2.1,2.1
					c4.4-7.2,5.9-15.8,3.9-24c-1.6-6.9-5.9-15.2-13.7-15.9C254,391,254.1,394,256,394.2L256,394.2z"/>
			</g>
		</g>
		<g>
			<g>
				<path class="st5" d="M274.3,381.6c3.7,7.9,7,16,10.1,24.2c0.7,1.8,3.6,1,2.9-0.8c-3.1-8.4-6.6-16.7-10.4-24.9
					C276.1,378.3,273.5,379.8,274.3,381.6L274.3,381.6z"/>
			</g>
		</g>
		<g>
			<g>
				<path class="st5" d="M286.1,375.9c2.2,8.6,5.1,17,8.7,25.1c0.8,1.8,3.4,0.2,2.6-1.5c-3.5-7.9-6.3-16-8.4-24.4
					C288.5,373.2,285.6,374,286.1,375.9L286.1,375.9z"/>
			</g>
		</g>
		<g>
			<g>
				<path class="st5" d="M272.4,394.1c9.3-3.6,18.4-7.8,27.1-12.6c1.7-0.9,0.2-3.5-1.5-2.6c-8.5,4.7-17.3,8.8-26.4,12.3
					C269.8,391.9,270.6,394.8,272.4,394.1L272.4,394.1z"/>
			</g>
		</g>
		<g>
			<g>
				<path class="st5" d="M278.2,404c7.1-3.8,14.4-7.5,21.7-10.9c1.7-0.8,0.2-3.4-1.5-2.6c-7.3,3.5-14.5,7.1-21.7,10.9
					C275,402.3,276.5,404.9,278.2,404L278.2,404z"/>
			</g>
		</g>
	</g>
</g>
<g id="body_1">
	<g id="leg_right">
		<path class="st7" d="M107.9,261.5c-3-0.7-7.3-1.5-12.5-2.3c-17.9-2.5-42.4-2.6-43.3,2.2c-0.6,2.9,7.7,6.5,19.1,12
			c14,6.7,33.7,16.8,57.3,30.7c3.5-9.3,6.9-18.6,10.4-27.9c-0.6-2.1-2.5-8.2-8.4-12.5C120.6,256.6,108.8,261.1,107.9,261.5z"/>
		<g>
			<g>
				<path class="st2" d="M55.7,263.1c14.3-0.4,27.6,5.5,40.1,12c11.4,5.9,22,13,31.1,22c0.3,0.3,0.9-0.2,0.5-0.5
					c-9.6-9.4-20.8-16.8-32.8-22.9c-12.2-6.2-25.1-11.7-39-11.3C55.3,262.4,55.3,263.1,55.7,263.1L55.7,263.1z"/>
			</g>
		</g>
		<g>
			<g>
				<path class="st2" d="M90.9,259.1c2.4,1.5,4,3.7,4.8,6.4c0.1,0.5,0.9,0.3,0.7-0.2c-0.8-2.9-2.6-5.3-5.1-6.9
					C90.9,258.2,90.5,258.8,90.9,259.1L90.9,259.1z"/>
			</g>
		</g>
		<g>
			<g>
				<path class="st2" d="M96,259.8c2.4,1.3,4.1,3.5,4.6,6.2c0.1,0.5,0.8,0.3,0.7-0.2c-0.6-2.9-2.4-5.3-5-6.7
					C95.9,258.9,95.6,259.6,96,259.8L96,259.8z"/>
			</g>
		</g>
		<g>
			<g>
				<path class="st2" d="M101.5,261c1.6,1.3,2.6,3.1,2.9,5.2c0.1,0.5,0.8,0.3,0.7-0.2c-0.3-2.2-1.4-4.2-3.1-5.6
					C101.7,260.2,101.1,260.7,101.5,261L101.5,261z"/>
			</g>
		</g>
		<path class="st4" d="M106.5,261.2c3.1-0.2,7.2-0.1,11.9,1c10,2.5,16.4,8.5,19.2,11.5c3.9-2.3,7.8-4.6,11.7-7.1
			c21.6-13.5,36.2-25.2,43.5-30.9c11.7-9.1,29.1-21.7,53.1-36.1c1.9-2.3,8.6-10.6,7.1-20.6c-1.9-13.1-16.7-24.5-35.9-23.8
			c-2.1-0.8-5.7-1.8-10.1-1.5c-1,0.1-5.4,0.5-11.6,4c-4.5,2.6-6.9,5.2-12.6,11.1c-13.1,13.6-11.7,12.1-12.9,13.3
			c-7.6,8.5-12.5,14.6-18.1,21.6c-19.6,24.2-22.2,25.9-33.4,40.9C113.1,251.6,109,257.5,106.5,261.2z"/>
		<g>
			<g>
				<path class="st3" d="M107.4,259.6c16.3-20.3,32.5-40.7,48.9-61c7.7-9.6,15.7-19,24.5-27.7c4.4-4.4,9-8.7,13.9-12.5
					c6.9-5.3,14-4.9,22.2-3c0.5,0.1,0.7-0.6,0.2-0.7c-5.2-1.2-10.8-2.4-16.1-0.7c-4.6,1.5-8.4,5.1-12,8.3
					c-10.4,9.1-19.7,19.3-28.5,29.9c-18.2,22-35.9,44.6-53.8,66.9C106.6,259.5,107.1,260,107.4,259.6L107.4,259.6z"/>
			</g>
		</g>
		<g>
			<g>
				<path class="st3" d="M139.6,274.2c34.2-25,68.9-49.3,104.2-72.9c0.4-0.3,0-0.9-0.4-0.6c-35.2,23.6-70,47.9-104.2,72.9
					C138.8,273.8,139.2,274.5,139.6,274.2L139.6,274.2z"/>
			</g>
		</g>
		<g>
			<g>
				<path class="st3" d="M106.5,261.6c5.7-0.2,11.2,0.4,16.5,2.7c4.8,2.1,11.4,5.2,14.3,9.6c0.3,0.4,0.9,0,0.6-0.4
					c-3-4.6-9.1-7.4-13.9-9.6c-5.7-2.6-11.4-3.3-17.6-3.1C106,260.9,106,261.6,106.5,261.6L106.5,261.6z"/>
			</g>
		</g>
	</g>
	<g id="leg_left">
		<path class="st7" d="M135.9,279.7c-3.2-0.7-7.9-1.7-13.5-2.4c-19.3-2.7-45.6-2.8-46.7,2.3c-0.6,3.1,8.3,7,20.5,12.9
			c15.1,7.2,36.3,18,61.7,33c3.7-10,7.5-19.9,11.2-29.9c-0.6-2.3-2.7-8.8-9.1-13.4C149.5,274.5,136.9,279.3,135.9,279.7z"/>
		<g>
			<g>
				<path class="st2" d="M79.7,281.4c15.2-0.4,29.4,5.8,42.7,12.6c12.4,6.4,24.1,14.1,34.1,23.8c0.3,0.3,0.9-0.2,0.5-0.5
					c-10.4-10.2-22.7-18.2-35.7-24.7c-13-6.5-26.8-12.3-41.6-11.9C79.2,280.7,79.2,281.4,79.7,281.4L79.7,281.4z"/>
			</g>
		</g>
		<g>
			<g>
				<path class="st2" d="M117.6,277.1c2.5,1.6,4.3,4,5.2,6.9c0.1,0.5,0.9,0.3,0.7-0.2c-0.9-3.1-2.8-5.6-5.5-7.4
					C117.6,276.2,117.2,276.9,117.6,277.1L117.6,277.1z"/>
			</g>
		</g>
		<g>
			<g>
				<path class="st2" d="M123.1,277.9c2.6,1.4,4.4,3.8,5,6.7c0.1,0.5,0.8,0.3,0.7-0.2c-0.6-3.1-2.6-5.7-5.4-7.1
					C123,277,122.6,277.7,123.1,277.9L123.1,277.9z"/>
			</g>
		</g>
		<g>
			<g>
				<path class="st2" d="M129,279.2c1.8,1.4,2.8,3.4,3.2,5.6c0.1,0.5,0.8,0.3,0.7-0.2c-0.3-2.4-1.5-4.5-3.4-6
					C129.2,278.3,128.6,278.9,129,279.2L129,279.2z"/>
			</g>
		</g>
		<path class="st4" d="M257.8,152.3c-2.6,0.5-6.4,1.4-10.7,3.5c-5,2.5-8.3,5.4-9.8,6.7C216.1,182,201.8,200,201.8,200
			c-21.4,27.1-22.5,24.1-57.5,67.5c-4,4.9-7.2,9-9.4,11.7c3,0.1,7.4,0.4,12.4,1.8c3.3,0.9,7.5,2.1,12.2,5.1c2.5,1.6,6.4,4.6,9.9,9.7
			c20.7-18,42.1-36,64.2-54.2c18.2-15,36.3-29.5,54.2-43.5c3.3-6.1,3.6-11.1,3.4-14.1C290.4,170.1,277.1,157.2,257.8,152.3z"/>
		<g>
			<g>
				<path class="st3" d="M254.1,152.8c-11.8,3.2-20.2,12-28.3,20.7c-10.7,11.4-21.2,22.9-31.6,34.6c-20.5,23.1-40.4,46.8-59.6,71
					c-0.3,0.4,0.2,0.9,0.5,0.5c18.4-23.2,37.4-46,57-68.2c9.7-11,19.5-21.8,29.5-32.6c9.3-10,18.8-21.6,32.5-25.4
					C254.8,153.3,254.6,152.6,254.1,152.8L254.1,152.8z"/>
			</g>
		</g>
		<g>
			<g>
				<path class="st3" d="M285.3,199.9c-39.1,30.5-77.4,61.9-115,94.3c-0.4,0.3,0.2,0.8,0.5,0.5c37.6-32.4,75.9-63.8,115-94.3
					C286.2,200.1,285.6,199.6,285.3,199.9L285.3,199.9z"/>
			</g>
		</g>
		<g>
			<g>
				<path class="st3" d="M136.1,280.8c5.8-2,13.8,0.9,19.1,3.5c5.5,2.6,10.2,6.4,13.7,11.5c0.3,0.4,0.9,0,0.6-0.4
					c-3.8-5.6-9.1-9.7-15.3-12.4c-5.3-2.3-12.6-4.8-18.3-2.9C135.5,280.2,135.7,281,136.1,280.8L136.1,280.8z"/>
			</g>
		</g>
	</g>
	<g id="hand">
		<path class="st4" d="M407.6,211.9c-0.8-1-1.8-2.4-2.7-4.1c-0.5-1-1.6-3.1-2.5-6.3c-0.6-2-0.5-2.6-1.4-8.5c0,0-0.5-3.9-1.6-9.1
			c-0.8-4.2-1.3-5.9-2.7-6.5c-1-0.4-2.2-0.2-3.1,0.3c-1,0.6-1.6,1.8-1.9,4.1c-0.3,2-0.6,5.1,0,9.1c-1.4-0.1-3.3-0.3-5.5-0.3
			c-7.6-0.2-12.9-0.3-14.5,2.4c-0.4,0.7-1.1,2.5,0.7,6.2c-0.2,0.3-1.5,2-1.1,4.3c0.2,1.5,1,2.5,1.4,2.9c-0.2,0.7-0.7,2.3-0.2,4.3
			c0.5,2.3,1.9,3.6,2.5,4.1c0.7,1.2,1.9,2.8,3.9,3.9c1.7,0.9,2.6,0.8,6.7,1.4c3.7,0.6,6,0.9,8.5,1.9c2.5,1,4.3,2.4,5.4,3.3
			c0.6-2,1.6-4.8,3.4-7.8C404.6,215,406.2,213.2,407.6,211.9z"/>
		<path class="st4" d="M423.4,129.7c2.3-2.2,5.6-5,9.8-8.1c3.3-2.4,7.5-5.4,13.5-8.3c10.7-5.2,18-5.5,19.8-5.6
			c4.2-0.1,6.8,0.5,9,1.8c2.5,1.4,4,3.4,5.1,4.9c2.5,3.3,3.5,6.3,3.9,7.5c2.6,7.7,0.7-0.2,7.4,18.3c2.8,7.7,4.6,12.8,6.9,20.3
			c2.1,6.7,4.2,14.1,6.2,22.3c1.7,7,3.6,15.4,5.4,25.1c0.4,2.3,1.6,9.2,2.8,18.2c1.8,13.2,0.7,9.9,2.1,19.6
			c0.6,4.3,1.2,7.4,0.5,11.8c-0.1,0.9-0.8,4.6-3.1,9c-1.2,2.3-5.9,10.9-15.8,15c-5.5,2.2-10.7,2.3-13.2,2.3c-1.1,0-2.9,0-5.4-0.3
			c-9.8-1.2-18.5-5-21-6.2c-3.8-1.7-11.4-5.5-21.1-12.7c-9.8-7.3-11.6-10.5-26.2-23c-4.8-4-8.7-7.2-11.3-9.2
			c0.1-2.4,0.5-5.9,2.1-9.8c2-5.1,4.9-8.5,6.8-10.4c7.1,3.1,14.5,6.2,22.3,9.2c13.1,5.1,25.7,9.4,37.7,13.1
			c-1.1-3.7-2.7-8.9-4.8-15.2c-8.1-24.4-16.5-42.5-22.6-55.6C436.1,154.5,430.5,142.9,423.4,129.7z"/>
		<g>
			<g>
				<path class="st3" d="M432,123.1c6.3-5.2,13.5-9.4,21.3-12c8.8-3,19.8-5.7,26.4,2.7c4.9,6.2,7.3,14.7,10.1,21.9
					c2.9,7.5,5.6,15.1,8,22.7c9.7,30.6,15.6,62.3,17.7,94.3c0,0.5,0.8,0.5,0.8,0c-2.4-36.4-9.7-72.4-21.9-106.8
					c-2.9-8.2-6-16.3-9.5-24.2c-2.6-6-5.9-12.3-12.8-14c-7.1-1.7-15.6,1.2-22.1,3.8c-6.7,2.7-12.9,6.5-18.5,11.1
					C431.1,122.8,431.6,123.4,432,123.1L432,123.1z"/>
			</g>
		</g>
		<g>
			<g>
				<path class="st3" d="M439.6,162.9c10.7,21.6,19.6,44,26.7,67c0.1,0.5,0.9,0.3,0.7-0.2c-7.1-23.1-16.1-45.5-26.8-67.2
					C440.1,162.1,439.4,162.5,439.6,162.9L439.6,162.9z"/>
			</g>
		</g>
		<g>
			<g>
				<path class="st3" d="M408,212.3c18.6,7.9,37.5,15,56.7,21.2c0.5,0.2,0.7-0.6,0.2-0.7c-19.1-6.2-38-13.3-56.5-21.1
					C407.9,211.5,407.5,212.1,408,212.3L408,212.3z"/>
			</g>
		</g>
		<g>
			<g>
				<path class="st3" d="M407.2,212.1c-5.5,4.7-8.5,11.5-8.1,18.7c0,0.5,0.8,0.5,0.8,0c-0.3-7.1,2.5-13.6,7.9-18.2
					C408.1,212.3,407.6,211.8,407.2,212.1L407.2,212.1z"/>
			</g>
		</g>
		<g>
			<g>
				<path class="st3" d="M400.6,232.7c17.8,17.8,36.6,36.9,60.4,46.4c10.9,4.3,23.6,6.9,35,2.9c11.6-4,17-13.4,20.2-24.6
					c0.1-0.5-0.6-0.7-0.7-0.2c-3.8,13.4-11.4,23.4-25.9,25.6c-12.3,1.9-25-2.3-35.8-7.8c-20.2-10.3-36.7-27-52.6-42.8
					C400.8,231.8,400.2,232.3,400.6,232.7L400.6,232.7z"/>
			</g>
		</g>
		<g>
			<g>
				<path class="st3" d="M392.2,192c-0.1-4.2-1.7-12.4,2.8-14.6c0.4-0.2,0.1-0.9-0.4-0.6c-5.1,2.6-3.2,10.7-3.2,15.3
					C391.4,192.5,392.2,192.5,392.2,192L392.2,192z"/>
			</g>
		</g>
		<g>
			<g>
				<path class="st3" d="M396.8,178.7c5.7,10,2,23.1,9.9,32.1c0.3,0.4,0.8-0.2,0.5-0.5c-7.8-8.9-4.2-22-9.8-32
					C397.2,177.9,396.6,178.3,396.8,178.7L396.8,178.7z"/>
			</g>
		</g>
		<g>
			<g>
				<path class="st3" d="M372.8,192.8c2.7-1.4,6.4-1.4,9.4-1.7c2.6-0.2,5.2-0.2,7.8,0c0.5,0,0.5-0.7,0-0.8
					c-3.5-0.3-6.9-0.1-10.3,0.3c-2.4,0.3-5,0.4-7.2,1.5C372,192.3,372.4,193,372.8,192.8L372.8,192.8z"/>
			</g>
		</g>
		<g>
			<g>
				<path class="st3" d="M372.2,199.5c1.8,2.2,4.1,3.8,6.7,4.7c0.5,0.2,0.7-0.6,0.2-0.7c-2.6-0.9-4.7-2.4-6.4-4.5
					C372.4,198.6,371.9,199.1,372.2,199.5L372.2,199.5z"/>
			</g>
		</g>
		<g>
			<g>
				<path class="st3" d="M371.6,204.8c0.9,3.4,5.4,5.6,8.4,6.8c0.4,0.2,0.6-0.5,0.2-0.7c-2.7-1.1-7-3.2-7.8-6.2
					C372.2,204.1,371.4,204.3,371.6,204.8L371.6,204.8z"/>
			</g>
		</g>
		<g>
			<g>
				<path class="st3" d="M372.8,212.4c1.7,2.1,3.3,5.2,5.8,6.5c2.5,1.2,5.8,1.4,8.5,1.7c0.5,0,0.5-0.7,0-0.8
					c-2.7-0.3-7.3-0.5-9.4-2.5c-1.7-1.5-2.9-3.7-4.3-5.4C373,211.5,372.5,212.1,372.8,212.4L372.8,212.4z"/>
			</g>
		</g>
		<g>
			<g>
				<path class="st3" d="M390.6,221.2c3.2,0.7,6.2,2.2,8.7,4.3c0.4,0.3,0.9-0.2,0.5-0.5c-2.6-2.2-5.7-3.7-9-4.5
					C390.3,220.4,390.1,221.1,390.6,221.2L390.6,221.2z"/>
			</g>
		</g>
	</g>
</g>
</svg>
